<?xml version="1.0" standalone="no"?>
<!DOCTYPE svg PUBLIC "-//W3C//DTD SVG 1.1//EN" "http://www.w3.org/Graphics/SVG/1.1/DTD/svg11.dtd" >
<svg>
<metadata>
Created by FontForge 20090622 at Wed Dec 28 07:20:29 2016
 By deploy user
Copyright 1990-1995 Bitstream Inc.  All rights reserved.
</metadata>
<defs>
<font id="BaskervilleBT-Italic" horiz-adv-x="2048" >
  <font-face 
    font-family="Baskerville Win95BT"
    font-weight="400"
    font-style="italic"
    font-stretch="normal"
    units-per-em="2048"
    panose-1="2 3 6 3 7 5 6 9 3 3"
    ascent="1638"
    descent="-410"
    x-height="926"
    cap-height="1376"
    bbox="-360 -586 2423 2052"
    underline-thickness="96"
    underline-position="-233"
    slope="-15.4"
    unicode-range="U+0020-U+FB02"
  />
<missing-glyph horiz-adv-x="1229" 
d="M102 -362v1806h1024v-1806h-1024zM217 -248h795v1577h-795v-1577z" />
    <glyph glyph-name=".notdef" horiz-adv-x="1229" 
d="M102 -362v1806h1024v-1806h-1024zM217 -248h795v1577h-795v-1577z" />
    <glyph glyph-name=".null" horiz-adv-x="0" 
 />
    <glyph glyph-name="nonmarkingreturn" horiz-adv-x="559" 
 />
    <glyph glyph-name="space" unicode=" " horiz-adv-x="559" 
 />
    <glyph glyph-name="exclam" unicode="!" horiz-adv-x="616" 
d="M350 1227q19 107 44.5 142.5t72.5 35.5q43 0 70.5 -28.5t27.5 -73.5q0 -33 -29 -110q-4 -11 -6 -16l-262 -722q0 -1 -1 -4q-12 -31 -29 -31q-12 0 -17.5 6t-5.5 18q0 11 0.5 16t1.5 9zM25 82q0 46 31 77t77 31q45 0 77 -31.5t32 -76.5q0 -44 -32 -75.5t-77 -31.5
q-46 0 -77 31t-31 76z" />
    <glyph glyph-name="quotedbl" unicode="&#x22;" horiz-adv-x="678" 
d="M518 864h-31l-65 457q0 2 -1 6q-3 22 -3 33q0 49 22.5 75.5t63.5 26.5q40 0 62 -26t22 -74q0 -14 -0.5 -23t-1.5 -18zM190 864h-32l-64 457l-3 26t-1 15q0 48 22 74t62 26q41 0 63.5 -26t22.5 -74q0 -9 -3 -34q-1 -5 -1 -7z" />
    <glyph glyph-name="numbersign" unicode="#" horiz-adv-x="1575" 
d="M700 868l-100 -286h289l102 286h-291zM778 1456h133l-168 -471h287l168 471h131l-166 -471h307l-40 -117h-310l-100 -286h332l-43 -115h-330l-166 -469h-133l166 469h-287l-166 -469h-131l166 469h-324l43 115h322l100 286h-348l43 117h348z" />
    <glyph glyph-name="dollar" unicode="$" horiz-adv-x="1118" 
d="M481 887l24 -14l126 -70l137 516q-29 6 -60.5 9t-64.5 3q-19 0 -28.5 -0.5t-16.5 -1.5zM436 909l109 412q-105 -18 -163 -78t-58 -149q0 -50 29.5 -99t82.5 -86zM482 37q134 9 219 96t85 213q0 78 -37.5 144t-113.5 122zM262 57q48 -10 90 -15t78 -5l158 600
q-33 17 -69.5 38l-80.5 48zM115 -303l86 326q-102 33 -165 90.5t-63 113.5q0 39 22 60.5t60 21.5q28 0 45.5 -23t20.5 -63q0 -3 1 -10q9 -118 91 -141l182 673q-98 51 -146 122t-48 165q0 136 91.5 222t262.5 110l47 178h51l-45 -174q9 0 27.5 1t28.5 1q31 0 58.5 -2
t53.5 -6l49 180h58l-54 -192q88 -29 142.5 -80.5t54.5 -102.5q0 -31 -17 -49t-46 -18q-40 0 -59 21t-19 65v35q0 32 -17 53.5t-51 31.5l-139 -528q121 -59 187.5 -159t66.5 -224q0 -168 -126.5 -279.5t-334.5 -123.5l-76 -295h-55l78 295q-57 2 -96.5 6t-71.5 12l-84 -313
h-51z" />
    <glyph glyph-name="percent" unicode="%" horiz-adv-x="1763" 
d="M1130 229q0 -104 42 -156.5t126 -52.5q122 0 214 138.5t92 333.5q0 105 -45.5 168t-118.5 63q-61 0 -113.5 -40.5t-99.5 -123.5q-44 -79 -70.5 -169.5t-26.5 -160.5zM1286 -35q-138 0 -222.5 88t-84.5 234q0 197 131 340t307 143q109 0 168.5 -75t59.5 -214
q0 -207 -110.5 -361.5t-248.5 -154.5zM268 836q0 -79 45.5 -129t116.5 -50q121 0 214 138t93 325q0 104 -45.5 170t-113.5 66q-51 0 -99 -29.5t-84 -83.5q-61 -94 -94 -198.5t-33 -208.5zM461 -102h-88l811 1386q-54 -35 -114.5 -52.5t-131.5 -17.5q-46 0 -90 10t-88 29
q10 -36 15 -71.5t5 -69.5q0 -66 -17 -137t-48 -131q-59 -118 -137 -176t-179 -58q-123 0 -201.5 87.5t-78.5 226.5q0 96 37.5 187t105.5 161q62 63 139.5 98t155.5 35q48 0 87 -14.5t87 -53.5q51 -40 97.5 -56.5t105.5 -16.5q116 0 217 56.5t154 152.5h73z" />
    <glyph glyph-name="ampersand" unicode="&#x26;" horiz-adv-x="1796" 
d="M1290 813q66 -48 101.5 -127.5t35.5 -177.5q0 -88 -33 -173.5t-96 -162.5q-81 -100 -213 -152.5t-303 -52.5q-310 0 -498 152t-188 399q0 136 53 235.5t158 159.5q-29 49 -44 97.5t-15 97.5q0 129 93.5 224t217.5 95q75 0 126.5 -30.5t51.5 -73.5q0 -30 -18 -49t-47 -19
q-22 0 -81.5 38t-113.5 38q-74 0 -124 -57.5t-50 -143.5q0 -40 20 -85.5t56 -88.5q17 11 42.5 17t55.5 6q50 0 84.5 -28.5t34.5 -67.5q0 -43 -29 -66.5t-82 -23.5q-41 0 -76 20t-71 64q-69 -33 -108.5 -104.5t-39.5 -162.5q0 -101 57 -195.5t163 -168.5q86 -59 188 -88
t225 -29q239 0 385 115.5t146 302.5q0 139 -75.5 217t-209.5 78q-105 0 -166 -40.5t-61 -109.5q0 -26 15.5 -43.5t39.5 -17.5q12 0 46.5 14t60.5 14q38 0 62 -25t24 -65q0 -45 -30 -70.5t-83 -25.5q-78 0 -131 60.5t-53 150.5q0 124 88.5 201.5t234.5 77.5h14l173 -5h34
q166 0 251 55t85 161q0 69 -36.5 118t-84.5 49q-33 0 -52 -47q-2 -5 -3 -8q-14 -33 -38 -50t-56 -17q-39 0 -63.5 20.5t-24.5 52.5q0 60 45 97.5t119 37.5q108 0 182 -79.5t74 -198.5q0 -160 -105.5 -249t-296.5 -89q-7 0 -21.5 1t-21.5 1z" />
    <glyph glyph-name="quotesingle" unicode="'" horiz-adv-x="348" 
d="M190 864h-32l-66 457q-1 8 -1.5 16t-0.5 23q0 50 21.5 76t62.5 26t63.5 -26t22.5 -74q0 -9 -3 -34q-1 -5 -1 -7z" />
    <glyph glyph-name="parenleft" unicode="(" horiz-adv-x="678" 
d="M354 -395l-39 -23q-122 203 -182.5 400t-60.5 391q0 281 153 554.5t424 475.5l27 -33q-229 -193 -349 -493t-120 -678q0 -158 36.5 -306t110.5 -288z" />
    <glyph glyph-name="parenright" unicode=")" horiz-adv-x="678" 
d="M262 1380l39 23q122 -203 183 -400t61 -391q0 -280 -153.5 -554t-424.5 -476l-26 33q228 193 348.5 493t120.5 678q0 158 -37 306t-111 288z" />
    <glyph glyph-name="asterisk" unicode="*" horiz-adv-x="1024" 
d="M500 1014v16q0 73 -35 162.5t-35 114.5q0 43 22.5 69.5t59.5 26.5q35 0 58.5 -25t23.5 -63q0 -28 -35 -120.5t-35 -168.5v-12q78 39 150 137q15 20 22 28q25 30 51 44t56 14q32 0 54 -23t22 -57q0 -33 -22 -56.5t-62 -35.5q-14 -4 -52 -9q-123 -15 -206 -65
q69 -42 162 -56.5t100 -16.5q35 -12 57.5 -38t22.5 -55q0 -33 -24 -56.5t-58 -23.5q-26 0 -52 16t-52 47q-6 7 -17 23q-65 91 -152 140v-17q0 -72 35 -161.5t35 -114.5q0 -43 -22.5 -69.5t-59.5 -26.5q-35 0 -58.5 24.5t-23.5 63.5q0 28 35 120.5t35 167.5v13
q-78 -40 -150 -137l-23 -30q-24 -28 -50 -42t-56 -14q-32 0 -54 23t-22 56t22 56.5t62 36.5q14 4 52 8q123 13 206 63q-72 44 -165 60t-95 16q-39 12 -60.5 36.5t-21.5 55.5q0 34 23.5 57t58.5 23q26 0 52 -16t53 -48q5 -6 16 -21q65 -92 152 -140z" />
    <glyph glyph-name="plus" unicode="+" horiz-adv-x="1706" 
d="M795 1221h118v-551h539v-117h-539v-553h-118v553h-541v117h541v551z" />
    <glyph glyph-name="comma" unicode="," horiz-adv-x="559" 
d="M195 2q-13 -4 -25 -6t-23 -2q-47 0 -75.5 23.5t-28.5 62.5q0 51 31.5 80.5t85.5 29.5q60 0 98.5 -44.5t38.5 -114.5q0 -115 -87.5 -209.5t-252.5 -157.5l-18 33q120 55 192 130t72 140q0 8 -6 26q-1 5 -2 9z" />
    <glyph glyph-name="hyphen" unicode="-" horiz-adv-x="674" 
d="M16 383l37 129h498l-35 -129h-500z" />
    <glyph glyph-name="period" unicode="." horiz-adv-x="559" 
d="M100 84q0 46 31.5 77.5t77.5 31.5q45 0 75.5 -31.5t30.5 -77.5q0 -45 -31 -76t-77 -31q-45 0 -76 31t-31 76z" />
    <glyph glyph-name="slash" unicode="/" horiz-adv-x="559" 
d="M-156 -190l709 1593h84l-711 -1593h-82z" />
    <glyph glyph-name="zero" unicode="0" horiz-adv-x="1118" 
d="M209 266q0 -126 50.5 -194t143.5 -68q95 0 169 79t143 255q85 220 133.5 428t48.5 346q0 126 -45.5 189t-136.5 63q-97 0 -177.5 -80t-146.5 -242q-31 -74 -65.5 -190t-67.5 -260q-25 -106 -37 -187.5t-12 -138.5zM408 -35q-160 0 -248 124t-88 349q0 162 45 319.5
t135 307.5q99 165 216.5 252.5t240.5 87.5q156 0 242.5 -122t86.5 -343q0 -151 -41.5 -310t-119.5 -302q-97 -177 -217.5 -270t-251.5 -93z" />
    <glyph glyph-name="one" unicode="1" horiz-adv-x="1118" 
d="M373 257l233 876q1 2 2 6q10 42 10 61q0 41 -28 56.5t-113 15.5q-13 0 -30 -1t-21 -1q-16 0 -22.5 5t-6.5 17q0 11 9.5 16t29.5 5q184 0 363 91q24 13 28 13q9 0 15 -4t6 -10q0 -2 -7.5 -25t-13.5 -45l-292 -1104q-11 -40 -17 -73t-6 -47q0 -29 18 -41.5t91 -22.5
q15 -2 38 -4q52 -4 52 -31q0 -5 -8.5 -9.5t-20.5 -4.5q-7 0 -36 2q-134 10 -261 10q-125 0 -242 -10q-18 -2 -22 -2q-14 0 -21.5 5t-7.5 15q1 21 72 28q39 4 61 7q98 15 138 168z" />
    <glyph glyph-name="two" unicode="2" horiz-adv-x="1118" 
d="M53 0q-10 0 -25.5 -2t-21.5 -2q-19 0 -27.5 5t-9.5 17q0 9 7 20t22 23l481 453q215 200 279.5 303.5t64.5 208.5q0 115 -65.5 180.5t-182.5 65.5q-129 0 -209.5 -78t-80.5 -203q0 -23 4 -51t4 -33q0 -14 -4.5 -20t-16.5 -6q-22 0 -33.5 42t-11.5 124q0 154 110 255
t284 101q172 0 276 -98.5t104 -260.5q0 -116 -67 -219t-244 -243l-135 -106q-267 -205 -412 -335h68h104q215 0 316.5 5t134.5 16q40 13 83 85t60 72q9 0 14 -6t5 -14t-35.5 -77.5t-59.5 -138.5q-3 -9 -8 -26q-20 -61 -51 -61q-12 0 -38 2t-40 2h-643z" />
    <glyph glyph-name="three" unicode="3" horiz-adv-x="1118" 
d="M655 825q94 -16 147.5 -81t53.5 -160q0 -118 -66 -231.5t-184 -196.5q-57 -41 -124 -71.5t-169 -61.5q-88 -27 -173.5 -42.5t-137.5 -15.5q-27 0 -41 6t-14 17q0 13 14.5 19.5t69.5 12.5q59 8 107.5 18.5t97.5 24.5q206 63 326 195t120 295q0 97 -58 147t-171 50
q-45 0 -101.5 -16.5t-68.5 -16.5q-18 0 -28.5 7.5t-10.5 18.5q0 30 92 42q86 10 141 24q166 42 253 117t87 176q0 70 -50.5 108.5t-141.5 38.5q-106 0 -231 -44q-29 -11 -36 -11t-12.5 4.5t-5.5 9.5q0 41 12 84t23 54q19 18 100 38.5t168 20.5q143 0 226 -65t83 -175
q0 -100 -70.5 -181.5t-226.5 -158.5z" />
    <glyph glyph-name="four" unicode="4" horiz-adv-x="1118" 
d="M442 -16l136 503h-472q-55 0 -68 3.5t-13 11.5q0 9 4.5 17t13.5 16l875 845q2 3 7 8q29 29 42 29q10 0 16 -4.5t6 -11.5q0 -22 -31 -115.5t-49 -161.5l-147 -565h76q40 0 83.5 10.5t45.5 10.5q3 -1 4.5 -5t1.5 -12q0 -34 -15.5 -58t-39.5 -24h-179l-123 -481zM147 559
h455l160 590q-270 -238 -416 -378.5t-199 -211.5z" />
    <glyph glyph-name="five" unicode="5" horiz-adv-x="1118" 
d="M391 1006q15 1 31 1.5t49 0.5q209 0 317.5 -89t108.5 -260q0 -155 -104 -313.5t-269 -251.5q-106 -60 -244 -97.5t-249 -37.5q-39 0 -53.5 5t-14.5 18q0 11 14 17.5t66 12.5q57 5 107 15t100 26q225 71 358 218t133 317q0 123 -74.5 191.5t-209.5 68.5q-60 0 -126 -8
q-18 -2 -22 -2q-12 0 -17 4t-5 12q0 2 46.5 128.5t82.5 264.5q8 32 19 81q16 77 34 77q7 0 41 -14q158 -66 303 -66q119 0 207 36q13 5 14 5q9 0 14.5 -4.5t6.5 -13.5q0 -55 -128 -108.5t-304 -53.5q-56 0 -98 2.5t-78 7.5z" />
    <glyph glyph-name="six" unicode="6" horiz-adv-x="1118" 
d="M444 -35q-172 0 -269 112.5t-97 313.5q0 224 138 451.5t366 374.5q129 82 266 135t196 53q20 0 29.5 -4.5t9.5 -14.5q0 -11 -12.5 -19.5t-62.5 -23.5q-80 -23 -138.5 -48.5t-115.5 -59.5q-116 -69 -203 -165t-162 -239q-77 -147 -118.5 -294.5t-41.5 -270.5
q0 -127 53.5 -194.5t153.5 -67.5q145 0 251 154t106 370q0 108 -44 168t-122 60q-47 0 -83.5 -20.5t-86.5 -80.5q-11 -13 -25 -36q-22 -35 -39 -35q-6 0 -9 5.5t-3 16.5q0 18 17 50t42 61q52 58 108.5 84t129.5 26q133 0 210 -83.5t77 -229.5q0 -231 -150.5 -390
t-370.5 -159z" />
    <glyph glyph-name="seven" unicode="7" horiz-adv-x="1118" 
d="M188 4l746 1192q2 3 4 8.5t2 7.5q0 5 -3 7.5t-9 3.5h-496q-61 0 -95.5 -24t-59.5 -84q-12 -28 -26 -68q-21 -60 -40 -60q-7 0 -10.5 5.5t-3.5 17.5q0 2 1 7t5 21l110 410l3 9q10 32 24 32q18 0 20 -40q1 -26 4 -39q7 -25 22 -33.5t60 -8.5h594q10 0 16.5 -5t6.5 -11
q0 -2 -2.5 -8.5t-5.5 -11.5l-434 -857q-113 -221 -193 -440q-13 -35 -17 -42q-7 -13 -22 -19.5t-39 -6.5h-162q-7 0 -10.5 2t-3.5 6q0 7 12 25z" />
    <glyph glyph-name="eight" unicode="8" horiz-adv-x="1118" 
d="M657 782q121 54 194 145.5t73 186.5q0 117 -60 182.5t-166 65.5q-116 0 -190 -70.5t-74 -181.5q0 -74 43.5 -141.5t179.5 -186.5zM487 692q-166 -77 -247.5 -179.5t-81.5 -236.5q0 -121 69 -190.5t191 -69.5q146 0 227.5 80.5t81.5 225.5q0 91 -49.5 171t-190.5 199z
M453 725q-83 80 -122.5 155.5t-39.5 153.5q0 159 118 263t304 104q147 0 242.5 -82.5t95.5 -208.5q0 -111 -92 -202t-273 -158q97 -88 144 -178t47 -189q0 -188 -126.5 -302t-338.5 -114q-175 0 -278 86.5t-103 229.5t104 252.5t318 189.5z" />
    <glyph glyph-name="nine" unicode="9" horiz-adv-x="1118" 
d="M37 -18q0 11 8 17.5t37 12.5q3 0 7 1t11 3q109 26 182.5 57t133.5 74q114 84 208 207t156 273q56 133 83.5 244t27.5 204q0 141 -51.5 214t-151.5 73q-62 0 -118 -31.5t-99 -89.5q-67 -89 -105 -197.5t-38 -207.5q0 -101 47.5 -162.5t124.5 -61.5q47 0 86.5 21.5
t79.5 68.5q12 16 30 50t35 34q8 0 12.5 -7t4.5 -17q0 -13 -15 -43.5t-37 -56.5q-56 -68 -115.5 -97.5t-136.5 -29.5q-135 0 -213.5 86.5t-78.5 236.5q0 81 30.5 167.5t83.5 156.5q85 110 189.5 165.5t224.5 55.5q167 0 264.5 -116t97.5 -316q0 -221 -131.5 -445t-357.5 -383
q-111 -77 -256 -127.5t-236 -50.5q-11 0 -17.5 4.5t-6.5 12.5z" />
    <glyph glyph-name="colon" unicode=":" horiz-adv-x="616" 
d="M39 88q0 46 31 76.5t77 30.5t77.5 -31t31.5 -76t-31.5 -76.5t-77.5 -31.5q-45 0 -76.5 31.5t-31.5 76.5zM240 782q0 47 30 78t76 31q45 0 77 -31.5t32 -77.5q0 -44 -31.5 -75t-77.5 -31q-45 0 -75.5 30.5t-30.5 75.5z" />
    <glyph glyph-name="semicolon" unicode=";" horiz-adv-x="616" 
d="M170 4q-16 -5 -27.5 -7.5t-19.5 -2.5q-48 0 -77.5 24t-29.5 62q0 51 31.5 80.5t85.5 29.5q60 0 98.5 -43.5t38.5 -109.5q0 -117 -88.5 -214.5t-251.5 -158.5l-18 33q120 55 192 131t72 141q0 8 -1.5 16t-4.5 19zM240 778q0 46 31 76.5t77 30.5q45 0 76 -30.5t31 -76.5
q0 -45 -31.5 -76.5t-77.5 -31.5q-45 0 -75.5 31t-30.5 77z" />
    <glyph glyph-name="less" unicode="&#x3c;" horiz-adv-x="1706" 
d="M1442 1145v-127l-1000 -408l1000 -405v-129l-1178 483v103z" />
    <glyph glyph-name="equal" unicode="=" horiz-adv-x="1706" 
d="M254 477h1198v-117h-1198v117zM254 860h1198v-117h-1198v117z" />
    <glyph glyph-name="greater" unicode="&#x3e;" horiz-adv-x="1706" 
d="M264 1145l1178 -483v-103l-1178 -483v129l1000 405l-1000 408v127z" />
    <glyph glyph-name="question" unicode="?" horiz-adv-x="1006" 
d="M250 82q0 46 31 77t77 31q45 0 76 -31t31 -77t-31 -77.5t-76 -31.5q-46 0 -77 31.5t-31 77.5zM426 758l168 149q71 64 102 122t31 128q0 86 -55.5 141.5t-143.5 55.5q-96 0 -156.5 -53t-60.5 -136q0 -54 33 -87.5t86 -33.5q27 0 43 8t16 21q0 1 -25.5 25.5t-25.5 56.5
q0 29 21 48.5t53 19.5q38 0 60 -24.5t22 -65.5q0 -61 -43 -98.5t-113 -37.5q-80 0 -129 48.5t-49 125.5q0 102 75.5 167t194.5 65q144 0 234 -87.5t90 -228.5q0 -86 -39 -155t-137 -150l-154 -125q-65 -53 -91.5 -90t-26.5 -73q0 -30 20.5 -48t54.5 -18q33 0 68 18t59 48
l29 -29q-38 -44 -82 -66t-94 -22q-73 0 -120.5 46t-47.5 118q0 52 29.5 101t103.5 116z" />
    <glyph glyph-name="at" unicode="@" horiz-adv-x="2019" 
d="M1190 336q-62 -106 -139 -158.5t-170 -52.5q-125 0 -201 92t-76 244q0 108 49 216t138 193q65 64 144 100t155 36q87 0 143 -49.5t78 -145.5l53 180h143l-170 -610q0 -2 -1 -5q-17 -59 -17 -104q0 -47 25.5 -74.5t68.5 -27.5q34 0 79 17.5t85 48.5q122 90 187 231t65 315
q0 140 -50 252t-153 203q-90 79 -216 122.5t-267 43.5q-187 0 -341.5 -58.5t-275.5 -175.5q-130 -126 -197 -293.5t-67 -369.5q0 -175 57 -304.5t181 -234.5q114 -97 261 -146.5t320 -49.5q163 0 317.5 52t295.5 154l30 -36q-148 -110 -313 -166t-342 -56q-187 0 -342 46.5
t-274 138.5q-151 113 -229.5 274.5t-78.5 358.5q0 204 86 381t250 313q131 110 291 165.5t344 55.5q347 0 553.5 -187t206.5 -499q0 -157 -58 -297t-163 -236q-57 -52 -123.5 -80t-134.5 -28q-97 0 -149 52.5t-58 158.5zM1098 965q-54 0 -99 -31t-92 -100
q-72 -108 -114.5 -234t-42.5 -225q0 -93 40.5 -147t108.5 -54q66 0 126 44.5t116 133.5q57 94 91 202.5t34 197.5q0 93 -47.5 153t-120.5 60z" />
    <glyph glyph-name="at" unicode="&#xa0;" horiz-adv-x="2019" 
d="M1190 336q-62 -106 -139 -158.5t-170 -52.5q-125 0 -201 92t-76 244q0 108 49 216t138 193q65 64 144 100t155 36q87 0 143 -49.5t78 -145.5l53 180h143l-170 -610q0 -2 -1 -5q-17 -59 -17 -104q0 -47 25.5 -74.5t68.5 -27.5q34 0 79 17.5t85 48.5q122 90 187 231t65 315
q0 140 -50 252t-153 203q-90 79 -216 122.5t-267 43.5q-187 0 -341.5 -58.5t-275.5 -175.5q-130 -126 -197 -293.5t-67 -369.5q0 -175 57 -304.5t181 -234.5q114 -97 261 -146.5t320 -49.5q163 0 317.5 52t295.5 154l30 -36q-148 -110 -313 -166t-342 -56q-187 0 -342 46.5
t-274 138.5q-151 113 -229.5 274.5t-78.5 358.5q0 204 86 381t250 313q131 110 291 165.5t344 55.5q347 0 553.5 -187t206.5 -499q0 -157 -58 -297t-163 -236q-57 -52 -123.5 -80t-134.5 -28q-97 0 -149 52.5t-58 158.5zM1098 965q-54 0 -99 -31t-92 -100
q-72 -108 -114.5 -234t-42.5 -225q0 -93 40.5 -147t108.5 -54q66 0 126 44.5t116 133.5q57 94 91 202.5t34 197.5q0 93 -47.5 153t-120.5 60z" />
    <glyph glyph-name="A" unicode="A" horiz-adv-x="1341" 
d="M827 563h-413q-184 -266 -232.5 -349.5t-48.5 -117.5q0 -29 36 -46t99 -17q9 0 16 -6t7 -13q0 -10 -7.5 -15t-21.5 -5q-6 0 -74 6t-129 6q-52 0 -111.5 -7t-66.5 -7q-10 0 -18 6t-8 14q0 12 33 23h1q58 14 99 44t75 79l789 1114l25 37q66 98 145 98q6 0 11 -10t5 -27v-10
l-49 -1172v-24q0 -55 16.5 -80t59.5 -37q17 -5 48 -9q44 -6 44 -22q0 -11 -8 -15.5t-29 -4.5q-4 0 -21 1q-102 9 -204 9q-72 0 -150.5 -6t-85.5 -6q-18 0 -26 4t-8 14q0 11 8 15.5t39 7.5l18 3q39 6 61 13q56 18 62 135v9zM457 627h372l25 553z" />
    <glyph glyph-name="B" unicode="B" horiz-adv-x="1346" 
d="M420 1133q15 53 19.5 77.5t4.5 42.5q0 37 -21 55t-70 23q-9 1 -22 2q-50 4 -50 21q0 8 12.5 14t32.5 6q5 0 26 -1q91 -7 174 -7q29 0 106 2t124 2q221 0 327.5 -71.5t106.5 -219.5q0 -143 -108.5 -225t-340.5 -113q194 -21 294 -103t100 -220q0 -82 -30 -154.5
t-85 -128.5q-74 -72 -195 -103.5t-344 -31.5q-44 0 -137 3t-143 3q-91 0 -185 -11q-23 -3 -28 -3q-19 0 -31 6.5t-12 15.5q0 20 48 27h3q19 2 36.5 5.5t32.5 8.5q37 14 57 43t44 113zM514 771q13 -2 27.5 -2.5t42.5 -0.5q206 0 311.5 87.5t105.5 258.5q0 109 -58 163
t-175 54q-58 0 -83.5 -16.5t-37.5 -61.5zM375 254q-11 -44 -16 -70.5t-5 -42.5q0 -48 38.5 -72t117.5 -24q109 0 181 23.5t122 74.5q51 53 85 149.5t34 192.5q0 124 -86.5 180t-278.5 56q-11 0 -33.5 -1t-33.5 -1z" />
    <glyph glyph-name="C" unicode="C" horiz-adv-x="1341" 
d="M1077 36q-4 -16 -14 -27t-21 -11q-13 0 -22.5 32.5t-32.5 32.5l-123 -49t-256 -49q-245 0 -382.5 142.5t-137.5 396.5q0 172 72.5 345t206.5 322q98 110 234.5 171t281.5 61q134 0 272 -75q34 -19 43 -19q11 0 30 23.5t32 23.5q10 0 16 -7t6 -20q0 -2 -1 -6t-1 -6
l-57 -297q-1 -3 -3 -11q-7 -32 -24 -32q-11 0 -16.5 9t-5.5 26q0 5 1 13.5t1 12.5q0 157 -73 242.5t-208 85.5q-105 0 -202 -64t-187 -192q-98 -140 -154.5 -323t-56.5 -355q0 -212 84 -317t254 -105q141 0 249 74t187 223q11 22 27 58q28 65 51 65q9 0 15.5 -6.5t6.5 -15.5
t-3 -23t-13 -51z" />
    <glyph glyph-name="D" unicode="D" horiz-adv-x="1470" 
d="M420 1123q1 4 4 15q16 61 16 89q0 36 -16 54t-52 22q-6 0 -20 1q-86 8 -86 27q0 23 97 33t327 10q334 0 512 -148t178 -423q0 -155 -54 -296t-157 -255q-120 -134 -268 -193t-366 -59q-57 0 -152.5 4t-134.5 4q-113 0 -228 -13q-24 -3 -30 -3q-19 0 -30 6t-11 16
q0 20 46 26q2 1 3 1q19 2 36.5 5.5t32.5 8.5q36 14 56.5 42.5t44.5 113.5zM633 1188l-258 -916q-8 -29 -12.5 -59t-4.5 -59q0 -58 43 -80.5t164 -22.5q153 0 271 68.5t190 199.5q72 129 112 280.5t40 295.5q0 199 -107.5 311.5t-298.5 112.5q-59 0 -86.5 -22.5t-52.5 -108.5
z" />
    <glyph glyph-name="E" unicode="E" horiz-adv-x="1360" 
d="M408 1133q14 53 19 77.5t5 42.5q0 37 -21 55t-71 23q-4 1 -8.5 1.5t-12.5 0.5q-32 2 -41.5 6.5t-9.5 14.5q0 8 13 14t32 6q14 0 119 -7t195 -7q231 0 373 2t223 6v-18q0 -81 11 -165.5t11 -86.5q0 -19 -5 -30t-13 -11q-20 0 -35.5 53t-28.5 78q-37 70 -98.5 97.5
t-261.5 27.5h-144l-22 -71.5l-35 -117.5l-104 -364h104q107 0 156.5 18.5t83.5 65.5q25 34 46.5 90.5t37.5 56.5q7 0 10.5 -7t3.5 -21q0 -9 -23.5 -94.5t-35.5 -161.5q-10 -55 -21 -135q-17 -117 -37 -117q-10 0 -16 5.5t-6 14.5q0 7 1 22t1 23q0 113 -38.5 152t-150.5 39
h-129l-121 -460q-7 -24 -10.5 -50.5t-3.5 -55.5q0 -56 43.5 -78t177.5 -22q190 0 272.5 28.5t143.5 96.5q45 50 76 116t47 66q8 0 13 -6t5 -18q0 -9 -30.5 -119t-55.5 -213q-133 0 -403.5 5t-407.5 5q-126 0 -237 -12q-15 -2 -19 -2q-18 0 -29.5 6t-11.5 16q0 20 49 27h3
q19 2 36.5 5.5t32.5 8.5q35 13 54.5 41t44.5 115z" />
    <glyph glyph-name="F" unicode="F" horiz-adv-x="1233" 
d="M373 219q-8 -28 -12.5 -53t-4.5 -45q0 -30 14 -50t40 -26q28 -7 73 -9q49 -3 49 -24q0 -7 -10 -13.5t-24 -6.5q-4 0 -25 2q-127 12 -260 12q-93 0 -189 -12q-19 -2 -24 -2q-19 0 -30 6t-11 16q0 20 46 26q2 1 3 1q19 2 36.5 5.5t32.5 8.5q37 14 57.5 43t43.5 113l254 922
q15 53 20 77.5t5 42.5q0 37 -21 55t-71 23q-4 1 -8.5 1.5t-12.5 0.5q-33 2 -42 6.5t-9 14.5q0 8 12.5 14t32.5 6q6 0 37 -2q180 -12 366 -12q178 0 296 2t196 6v-18q0 -82 10 -166t10 -86q0 -19 -5 -30t-13 -11q-20 0 -35 53t-29 78q-37 71 -98 98t-260 27h-129l-23 -71.5
t-34 -117.5l-105 -364h105q106 0 156 18.5t83 65.5q26 35 46 91t36 56q8 0 12.5 -7.5t4.5 -20.5q0 -9 -23 -94t-37 -163q-9 -53 -20 -133q-17 -118 -37 -118q-11 0 -18 5.5t-7 14.5q0 7 2 22t2 23q0 113 -38.5 152t-149.5 39h-129z" />
    <glyph glyph-name="G" unicode="G" horiz-adv-x="1460" 
d="M1174 80q-6 0 -15.5 1t-13.5 1q-44 0 -91 -9.5t-112 -31.5q-15 -5 -47 -17q-155 -57 -279 -57q-250 0 -391 139.5t-141 385.5q0 167 65 335t183 303q117 136 255.5 205.5t289.5 69.5q155 0 306 -93q39 -24 50 -24q13 0 32.5 27.5t32.5 27.5q9 0 15 -6t6 -16
q0 -16 -18.5 -83t-26.5 -119q-5 -30 -11 -77q-9 -75 -34 -75q-12 0 -18.5 10t-6.5 29q0 3 1 14t1 20q0 153 -82 237.5t-231 84.5q-96 0 -183.5 -49.5t-166.5 -149.5q-114 -143 -183 -346.5t-69 -396.5q0 -200 88.5 -307t253.5 -107q187 0 289 102.5t102 290.5q0 55 -12.5 73
t-53.5 26q-19 3 -52 5q-54 3 -54 25q0 11 10.5 16t32.5 5q21 0 122.5 -8.5t182.5 -8.5q55 0 112 5.5t58 5.5q17 0 26 -6t9 -17q0 -17 -41 -19q-22 -2 -32 -3q-47 -7 -70 -28t-31 -64z" />
    <glyph glyph-name="H" unicode="H" horiz-adv-x="1683" 
d="M1255 219q-8 -27 -12 -53t-4 -45q0 -29 12 -47.5t35 -24.5q27 -8 67 -13q41 -5 42 -24q0 -6 -8 -13t-17 -7q-4 0 -24 2q-124 12 -252 12q-89 0 -183 -11q-23 -3 -28 -3q-19 0 -30 6t-11 16q0 20 45 26q3 1 4 1q19 2 36.5 5.5t32.5 8.5q37 14 57 43t44 113l127 465h-688
l-127 -457q-8 -27 -12.5 -53t-4.5 -45q0 -29 12 -47.5t35 -24.5q28 -8 68 -13q43 -5 43 -24q0 -6 -8 -13t-17 -7q-3 0 -24 2q-124 12 -252 12q-89 0 -186 -12q-21 -2 -27 -2q-19 0 -30 6t-11 16q0 20 46 26q2 1 3 1q19 2 36.5 5.5t32.5 8.5q37 14 57.5 43t43.5 113l254 922
q15 53 20 77.5t5 42.5q0 37 -21 55t-71 23q-8 1 -22 2q-50 4 -50 21q0 8 12.5 14t32.5 6q4 0 21 -1q104 -7 210 -7q109 0 220 9q19 1 24 1q17 0 28 -6t11 -14q0 -20 -47 -23t-74 -14q-30 -12 -48 -35t-36 -82l-131 -465h688l109 396q14 49 19 75t5 45q0 36 -21 54.5
t-68 23.5q-10 1 -26 2q-48 3 -48 21q0 8 12.5 14t32.5 6q5 0 27 -1q92 -7 175 -7q118 0 229 11q17 1 21 1q15 0 25 -6.5t10 -15.5q0 -17 -37.5 -23t-56.5 -14q-31 -12 -49 -35t-35 -82z" />
    <glyph glyph-name="I" unicode="I" horiz-adv-x="782" 
d="M373 219q-8 -27 -12.5 -53t-4.5 -45q0 -29 12 -47.5t35 -24.5q28 -8 68 -13q43 -5 43 -24q0 -6 -8 -13t-17 -7q-3 0 -24 2q-124 12 -252 12q-89 0 -186 -12q-21 -2 -27 -2q-19 0 -30 6t-11 16q0 20 46 26q2 1 3 1q19 2 36.5 5.5t32.5 8.5q37 14 57.5 43t43.5 113l254 922
q15 53 20 77.5t5 42.5q0 37 -21 55t-71 23q-8 1 -22 2q-50 4 -50 21q0 8 12.5 14t32.5 6q4 0 21 -1q104 -7 210 -7q109 0 220 9q19 1 24 1q17 0 28 -6t11 -14q0 -20 -47 -23t-74 -14q-31 -12 -49 -35t-35 -82z" />
    <glyph glyph-name="J" unicode="J" horiz-adv-x="905" 
d="M508 1133q15 53 19.5 77.5t4.5 42.5q0 37 -21.5 55t-71.5 23q-8 1 -21 2q-49 4 -49 21q0 8 12.5 14t32.5 6q4 0 21 -1q103 -7 210 -7q109 0 220 9q19 1 24 1q17 0 28 -6t11 -14q0 -20 -48 -23t-75 -14q-31 -12 -49 -35t-35 -82l-359 -1290q-72 -260 -185 -375t-292 -115
q-108 0 -174.5 41t-66.5 105q0 39 23 63.5t59 24.5q44 0 67 -24t23 -70q0 -6 -1 -20.5t-1 -22.5q0 -25 22 -40.5t60 -15.5q81 0 139 84t115 287z" />
    <glyph glyph-name="K" unicode="K" horiz-adv-x="1462" 
d="M373 219q-8 -27 -12.5 -53t-4.5 -45q0 -29 12 -47.5t35 -24.5q28 -8 68 -13q43 -5 43 -24q0 -6 -8 -13t-17 -7q-3 0 -24 2q-124 12 -252 12q-89 0 -186 -12q-21 -2 -27 -2q-19 0 -30 6t-11 16q0 20 46 26q2 1 3 1q19 2 36.5 5.5t32.5 8.5q37 14 57.5 43t43.5 113l254 922
q15 53 20 77.5t5 42.5q0 37 -21 55t-71 23q-8 1 -22 2q-50 4 -50 21q0 8 12.5 14t32.5 6q6 0 11 -0.5t10 -1.5q5 0 19 -1q103 -7 191 -7q83 0 188 8q23 2 31 2q6 1 12 1.5t13 0.5q17 0 28 -6t11 -14q0 -20 -47 -23t-74 -14q-30 -12 -48 -35t-36 -82l-133 -469
q323 196 499.5 336.5t176.5 200.5q0 23 -15 37t-48 20q-17 3 -44 4q-49 3 -49 23q0 8 9.5 13t25.5 5q5 0 21.5 -1t28.5 -1q29 -3 68.5 -4.5t90.5 -1.5q44 0 82.5 2t69.5 6q6 0 15 1t11 1q14 0 23.5 -6t9.5 -12q0 -18 -58.5 -33t-107.5 -51q-10 -8 -50 -44
q-267 -240 -571 -454l412 -627q26 -39 57.5 -65t67.5 -37q18 -5 47 -9q41 -5 41 -24q0 -9 -7.5 -14.5t-21.5 -5.5q-3 0 -24 2q-130 12 -268 12q-82 0 -175 -9q-27 -3 -34 -3q-18 0 -27.5 6t-9.5 16q0 11 6.5 16t34.5 9q9 0 20 1.5t23 4.5q40 10 52.5 22t12.5 35q0 12 -3 23
t-9 20l-350 543l-49 -28z" />
    <glyph glyph-name="L" unicode="L" horiz-adv-x="1233" 
d="M365 219q-8 -27 -12.5 -53t-4.5 -45q0 -45 32 -60.5t163 -15.5q197 0 306 25.5t165 83.5q43 43 79.5 117.5t55.5 74.5q9 0 14.5 -8t5.5 -21q0 -1 -33 -106.5t-57 -216.5q-70 1 -190 4q-269 6 -307 6h-297q-90 0 -124.5 -0.5t-56.5 -1.5q-26 -2 -64 -6t-48 -4q-19 0 -30 6
t-11 16q0 20 46 26q2 1 3 1q19 2 36.5 5.5t32.5 8.5q37 14 57.5 43t43.5 113l254 922q15 53 20 77.5t5 42.5q0 37 -21.5 55t-70.5 23q-9 1 -22 2q-50 4 -50 21q0 8 12.5 14t32.5 6q4 0 21 -1q103 -7 210 -7q109 0 220 9q19 1 24 1q17 0 28 -6t11 -14q0 -20 -47 -23t-74 -14
q-31 -12 -49 -35t-35 -82z" />
    <glyph glyph-name="M" unicode="M" horiz-adv-x="1907" 
d="M440 1128q18 60 25.5 94t7.5 52q0 23 -14.5 34.5t-50.5 16.5q-16 2 -42 4q-53 5 -53 23q0 6 7.5 12t15.5 6q7 0 12.5 -0.5t12.5 -1.5h4q81 -6 153 -6q37 0 67 1t50 3q4 1 7.5 1.5t6.5 0.5q21 0 34.5 -8.5t16.5 -23.5l183 -1055l620 1038q17 29 30.5 39t35.5 10h20
q2 0 7 -1q59 -5 110 -5q66 0 135 6h4h15q15 0 22.5 -4.5t7.5 -13.5q0 -18 -53 -24t-80 -23q-23 -14 -37.5 -47.5t-27.5 -108.5l-172 -983q-3 -16 -3.5 -27t-0.5 -22q0 -30 17.5 -48t55.5 -26q16 -3 42 -5q42 -4 42 -24q0 -6 -8 -13t-16 -7q-4 0 -25 2q-124 12 -252 12
q-88 0 -186 -12q-21 -2 -27 -2q-18 0 -29.5 6t-11.5 16q0 20 46 26q2 1 3 1q20 2 37 5.5t32 8.5q40 14 65.5 53.5t35.5 102.5l179 1026l-699 -1184q-17 -28 -27 -37.5t-20 -9.5q-11 0 -16.5 6t-10.5 27l-211 1233l-231 -862l-2 -8q-53 -199 -53 -265q0 -38 14 -58.5
t45 -29.5q27 -8 67 -14q44 -6 44 -23q0 -7 -11 -12.5t-26 -5.5q-5 0 -25 2q-118 10 -239 10q-58 0 -122 -8q-17 -2 -22 -2q-14 0 -23 6t-9 14q0 15 50 23t87 27q31 14 56 55.5t46 111.5z" />
    <glyph glyph-name="N" unicode="N" horiz-adv-x="1569" 
d="M270 330q-15 -60 -22.5 -104.5t-7.5 -73.5q0 -40 15 -62.5t51 -34.5q14 -5 29 -8.5t32 -5.5h2q45 -7 45 -25q-1 -11 -9.5 -16.5t-23.5 -5.5q-6 0 -27 2q-87 10 -166 10q-89 0 -187 -11q-25 -3 -32 -3q-17 0 -27 6t-10 16q0 11 10.5 17t43.5 10q45 8 69 18.5t41 26.5
q29 29 72.5 147t91.5 299l158 595q4 13 7.5 33t4.5 44q-18 49 -37.5 74t-46.5 35q-30 9 -77.5 13t-47.5 24q0 8 9.5 14t23.5 6q3 0 44.5 -4t80.5 -4q30 0 76 3t61 3q23 0 33 -7t24 -36l529 -1094l203 809q17 70 23.5 111t6.5 70q0 39 -15.5 61.5t-49.5 34.5q-23 8 -65 14
t-42 23q0 11 8 16.5t23 5.5q6 0 27 -2q89 -10 168 -10q80 0 177 11q8 1 11 1q8 0 18.5 1t12.5 1q16 0 25 -5.5t9 -16.5t-10 -17t-43 -10q-2 0 -7 -1q-73 -14 -103 -42q-29 -28 -73 -149t-91 -299l-211 -807q-8 -32 -20 -49t-27 -17t-29 12.5t-24 34.5l-533 1118z" />
    <glyph glyph-name="O" unicode="O" horiz-adv-x="1460" 
d="M283 401q0 -187 75.5 -290t212.5 -103q133 0 244 96t207 293q73 149 112.5 305.5t39.5 294.5q0 169 -83 268t-223 99q-96 0 -184 -58t-170 -176q-105 -150 -168 -350t-63 -379zM578 -33q-232 0 -362 139t-130 390q0 198 75.5 376t221.5 324q99 101 226.5 155t264.5 54
q228 0 360 -144t132 -393q0 -185 -75.5 -364t-213.5 -320q-100 -103 -231.5 -160t-267.5 -57z" />
    <glyph glyph-name="P" unicode="P" horiz-adv-x="1346" 
d="M367 219q-8 -28 -12.5 -53t-4.5 -45q0 -29 12 -47.5t35 -24.5q28 -8 68 -13q43 -5 43 -24q0 -6 -8 -13t-17 -7q-4 0 -24 2q-124 12 -252 12q-89 0 -185 -11q-22 -3 -28 -3q-19 0 -30 6t-11 16q0 20 46 26q2 1 3 1q19 2 36.5 5.5t32.5 8.5q37 14 57.5 43t43.5 113l254 922
q15 53 20 77.5t5 42.5q0 37 -21.5 55t-70.5 23q-4 1 -8.5 1.5t-12.5 0.5q-33 2 -42 6.5t-9 14.5q0 8 12.5 14t32.5 6q1 0 75.5 -5t149.5 -5q32 0 102 3t109 3q275 0 395.5 -73t120.5 -236q0 -197 -155 -307.5t-433 -110.5q-42 0 -94.5 3t-116.5 9zM500 701q53 -4 91.5 -5.5
t63.5 -1.5q200 0 315 106t115 287q0 114 -70.5 178t-195.5 64q-99 0 -129.5 -26.5t-56.5 -120.5z" />
    <glyph glyph-name="Q" unicode="Q" horiz-adv-x="1460" 
d="M485 -12q-195 30 -295 158.5t-100 347.5q0 172 54.5 323t166.5 289q119 146 265.5 222.5t306.5 76.5q215 0 350 -147t135 -384q0 -121 -40 -253t-114 -254q-83 -136 -174.5 -213.5t-228.5 -128.5q-50 -19 -153 -33.5t-152 -44.5l-154 -101q40 12 72 17.5t57 5.5
q75 0 179.5 -34.5t261.5 -110.5l63 -31q226 -111 318 -111q53 0 100 23t86 67q20 25 37 63t28 38q7 0 12 -8t5 -21q0 -40 -30 -104.5t-73 -108.5q-49 -51 -110.5 -76.5t-134.5 -25.5q-168 0 -379 174q-26 22 -39 32q-126 104 -214.5 142.5t-184.5 38.5q-80 0 -165 -46
t-104 -46q-20 0 -32.5 13t-12.5 34q0 20 13.5 33.5t40.5 19.5q17 4 41 6.5t28 3.5q49 14 138 71l24 15zM283 401q0 -187 75.5 -290t212.5 -103q133 0 244 96t207 293q73 149 112.5 305.5t39.5 294.5q0 169 -83 268t-223 99q-96 0 -184 -58t-170 -176q-105 -150 -168 -350
t-63 -379z" />
    <glyph glyph-name="R" unicode="R" horiz-adv-x="1460" 
d="M510 729h123q224 0 356.5 99.5t132.5 265.5q0 110 -76 171.5t-212 61.5q-98 0 -135.5 -24t-55.5 -89zM367 220q-9 -31 -14 -57.5t-5 -41.5q0 -29 13 -47.5t36 -24.5q28 -8 67 -13q42 -5 42 -24q0 -6 -8 -13t-17 -7q-4 0 -24 2q-124 12 -252 12q-89 0 -183 -11
q-22 -3 -28 -3q-19 0 -30 6t-11 16q0 20 46 26q2 1 3 1q19 2 36.5 5.5t32.5 8.5q37 14 57.5 43t43.5 113l254 922q15 53 20 77.5t5 42.5q0 37 -21.5 55t-70.5 23q-4 1 -8.5 1.5t-12.5 0.5q-33 2 -42 6.5t-9 14.5q0 9 10 15.5t27 6.5l73 -7t144 -7q36 0 149.5 4t192.5 4
q216 0 325 -69t109 -207q0 -171 -138.5 -270t-410.5 -122q156 -40 222.5 -114t72.5 -217l6 -151q3 -84 29.5 -122.5t81.5 -38.5q54 0 102.5 34l48.5 34q8 0 11.5 -3.5t3.5 -10.5q0 -42 -75 -86.5t-169 -44.5q-120 0 -176 59.5t-56 187.5q0 7 1 19t1 18l9 144q1 15 1.5 27.5
t0.5 19.5q0 125 -57 174t-205 49q-40 0 -69 -0.5t-58 -1.5z" />
    <glyph glyph-name="S" unicode="S" horiz-adv-x="1124" 
d="M74 37q-10 0 -16.5 6t-6.5 14q0 12 11.5 69t17.5 100q7 46 12 114q6 82 31 82q19 0 26 -66q5 -46 11 -76q23 -119 113 -194.5t210 -75.5q118 0 191.5 73.5t73.5 190.5q0 75 -37.5 148t-110.5 143l-25 24q-309 295 -309 472q0 145 105.5 243.5t263.5 98.5q103 0 203.5 -49
t103.5 -49q15 0 34.5 23.5t31.5 23.5q10 0 16 -6.5t6 -16.5q0 -2 -16 -57.5t-27 -114.5q-8 -39 -15 -95q-8 -67 -28 -67q-10 1 -15 11t-5 30v23q0 137 -75 218t-200 81q-101 0 -166 -62t-65 -157q0 -63 41 -132.5t121 -140.5q210 -186 271.5 -285t61.5 -204
q0 -195 -110 -303.5t-309 -108.5q-67 0 -126.5 14t-109.5 41q-34 18 -74.5 44t-48.5 26q-12 0 -29 -26.5t-32 -26.5z" />
    <glyph glyph-name="T" unicode="T" horiz-adv-x="1341" 
d="M616 221q-8 -30 -13 -57t-5 -41q0 -30 14 -49t41 -25q33 -8 81 -12q52 -5 52 -25q0 -7 -10.5 -13.5t-23.5 -6.5q-5 0 -28 2q-130 12 -263 12q-99 0 -206 -12q-24 -2 -30 -2q-21 0 -34 6t-13 16q0 20 49 26q3 1 4 1h5q49 5 77 14q41 14 62 41.5t45 114.5l305 1114h-150
q-121 0 -209.5 -32.5t-144.5 -98.5q-24 -28 -47.5 -85.5t-42.5 -57.5q-6 0 -11 7t-5 17q0 4 0.5 6.5t1.5 4.5l76 278q28 3 42 3.5t27 0.5h1022q29 0 52.5 -1t47.5 -3l7 -307q-1 -12 -6 -18.5t-13 -6.5q-23 0 -32.5 67.5t-32.5 104.5q-36 58 -112.5 89.5t-180.5 31.5h-99z
" />
    <glyph glyph-name="U" unicode="U" horiz-adv-x="1577" 
d="M233 535l146 530q16 60 24.5 105.5t8.5 68.5q0 36 -12 53.5t-44 28.5q-21 7 -65.5 12t-44.5 21q0 9 11.5 15.5t29.5 6.5q3 0 20 -1q121 -9 250 -9q100 0 197 9q16 1 20 1q16 0 25.5 -5.5t9.5 -14.5q0 -20 -46 -26q-2 -1 -3 -1q-23 0 -40 -3.5t-32 -10.5q-31 -14 -54 -56
t-50 -137l-176 -633q-15 -54 -22 -99.5t-7 -82.5q0 -133 81.5 -204.5t233.5 -71.5q175 0 279 100.5t184 355.5t127 460.5t47 285.5q0 36 -17 59t-48 29q-14 3 -37 7q-4 1 -6 1q-33 4 -41 8.5t-8 14.5q0 11 9.5 17.5t26.5 6.5q2 0 14 -1t21 -1q32 -4 71.5 -6t84.5 -2
q73 0 155 8q20 2 25 2q15 0 25 -6.5t10 -15.5q0 -10 -8 -15.5t-33 -9.5q-4 -1 -11 -3q-41 -12 -67 -26q-31 -16 -55 -54.5t-41 -96.5l-144 -516q-60 -215 -110 -333t-103 -175q-76 -81 -173.5 -119.5t-229.5 -38.5q-213 0 -326.5 91t-113.5 261q0 49 8 103.5t24 112.5z" />
    <glyph glyph-name="V" unicode="V" horiz-adv-x="1341" 
d="M342 1182v26q0 53 -16.5 78t-57.5 37q-17 5 -49 9q-44 6 -45 22q0 10 6.5 14t28.5 4h18q20 0 85 -4t110 -4q66 0 152 6t106 6q14 0 20.5 -4.5t6.5 -13.5q0 -19 -47.5 -24t-77.5 -15q-58 -21 -64 -143v0l-37 -973l525 731q92 130 142 218.5t50 121.5q0 25 -14 38.5
t-45 18.5q-17 3 -48 4q-49 1 -49 19q0 10 11 15t34 5q12 0 20.5 -0.5t17.5 -1.5q7 0 27 -2q76 -6 130 -6q59 0 129 11q6 1 8 1q5 1 10 1.5t11 0.5q16 0 26.5 -5t10.5 -13q-1 -15 -36 -24q-32 -8 -52 -17q-28 -11 -59 -42.5t-85 -105.5l-844 -1161q-17 -24 -34.5 -35.5
t-36.5 -11.5q-18 0 -25.5 9.5t-7.5 33.5v17z" />
    <glyph glyph-name="W" unicode="W" horiz-adv-x="1907" 
d="M309 27l45 1149v24q0 50 -12 77t-39 38q-19 7 -38.5 10.5t-41.5 3.5q-1 0 -3 1q-38 6 -38 22q0 9 9.5 14.5t25.5 5.5q4 0 25 -1q110 -5 217 -5q70 0 144.5 5t78.5 5q16 0 25.5 -5.5t9.5 -14.5q0 -16 -50.5 -22.5t-86.5 -22.5q-23 -10 -33.5 -39t-11.5 -88l-39 -936
q316 490 443.5 716t127.5 291q0 37 -22.5 55.5t-65.5 18.5q-4 0 -11 -1t-10 -1q-18 0 -30.5 6.5t-12.5 16.5q1 11 14.5 17.5t37.5 6.5q5 0 23 -1q77 -7 147 -7q108 0 216 5q21 1 25 1q17 0 27 -4.5t10 -11.5q0 -19 -49.5 -25t-77.5 -22q-19 -11 -28 -42.5t-13 -125.5
l-30 -893q302 471 434.5 705.5t132.5 297.5q0 29 -10 44t-37 26q-10 4 -21 6t-33 2q-2 1 -7 2q-31 8 -31 23q0 8 11 14t30 6q4 0 18 -1t25 -1q28 -3 67.5 -4.5t89.5 -1.5q24 0 47.5 1t48.5 3q8 0 19 1t14 1q9 0 17 -4.5t8 -9.5q0 -13 -38.5 -26.5t-64.5 -33.5
q-47 -38 -178 -273l-155 -271q-293 -490 -396.5 -639.5t-140.5 -149.5q-18 0 -27.5 10.5t-9.5 30.5v6l37 1067l-337.5 -578.5t-303.5 -465.5q-33 -46 -50.5 -58t-37.5 -12q-15 0 -22 10.5t-7 34.5v17z" />
    <glyph glyph-name="X" unicode="X" horiz-adv-x="1341" 
d="M602 670l-227 524q-21 49 -47 80.5t-54 42.5q-30 12 -72 15t-42 20q0 11 8.5 16.5t28.5 5.5q17 0 46 -2t42 -2q49 0 71 -0.5t40 -1.5h67q95 0 187 9q14 1 18 1q20 0 32.5 -7.5t12.5 -18.5q0 -14 -44 -19q-9 -1 -14 -2q-53 -5 -75.5 -20.5t-22.5 -46.5q0 -15 5.5 -33
t17.5 -43l161 -379l299 358q30 36 42 59t12 44q0 26 -15 38.5t-57 18.5q-12 2 -31 3q-47 4 -47 22q0 10 11 16t30 6q5 0 9.5 -0.5t9.5 -1.5q24 -2 71 -3t107 -1q55 0 100 1t72 3q4 1 8.5 1.5t9.5 0.5q14 0 21.5 -5t7.5 -13q0 -16 -36 -23q-25 -5 -38 -10q-46 -17 -86 -47
t-96 -92l-383 -420l264 -604q19 -44 46.5 -74t59.5 -41q17 -6 53 -9t36 -22q0 -8 -10.5 -14t-26.5 -6q-5 0 -9.5 0.5t-9.5 1.5q-5 0 -24 2q-96 8 -180 8q-91 0 -200 -9q-27 -3 -36 -3q-5 -1 -10 -1.5t-10 -0.5q-11 0 -20 6.5t-9 13.5q0 20 48 25q25 3 40 6q36 7 49.5 21
t13.5 42q0 21 -12.5 66t-34.5 94l-153 348l-205 -227q-80 -89 -130 -169t-50 -114q0 -24 14.5 -37t54.5 -22q19 -4 46 -7q46 -6 46 -24q0 -8 -7 -14t-17 -6q-3 0 -18 2q-73 10 -144 10q-108 0 -223 -7q-25 -1 -31 -1q-19 0 -29 5.5t-10 14.5q0 8 8.5 13t38.5 12q43 8 72 20
t53 31q28 22 116 129l144 170z" />
    <glyph glyph-name="Y" unicode="Y" horiz-adv-x="1110" 
d="M514 221q-8 -28 -12 -54t-4 -44q0 -30 14 -49t41 -25q32 -8 81 -12q52 -5 52 -25q0 -6 -9.5 -13t-21.5 -7q-3 0 -23 2q-127 12 -265 12q-103 0 -212 -12q-24 -2 -30 -2q-22 0 -34.5 6t-12.5 16q0 20 49 26q3 1 4 1h4q49 5 78 14q41 14 62 41.5t44 114.5l105 389l-166 631
q-9 33 -23 54t-35 30q-18 8 -58 12.5t-40 22.5q0 10 14.5 16t39.5 6q7 0 29 -1t36 -1q38 -4 71.5 -6t65.5 -2q80 0 173 7q15 1 19 1q7 1 13 1.5t12 0.5q18 0 26.5 -5t8.5 -15q0 -19 -51 -24q-33 -3 -51 -7q-32 -8 -44.5 -23t-12.5 -45q0 -15 3.5 -37.5t10.5 -48.5l135 -512
l115 131q175 200 254.5 313t79.5 163q0 25 -17 40t-55 23q-15 3 -38 4q-40 4 -40 19q0 11 8.5 17.5t24.5 6.5q6 0 11.5 -0.5t11.5 -1.5q25 -4 63.5 -6t85.5 -2q48 0 87 1t63 3q4 1 8 1.5t10 0.5q16 0 25.5 -5.5t9.5 -14.5q0 -15 -37 -23q-19 -4 -31 -8q-32 -10 -110 -107
l-29 -36l-488 -594z" />
    <glyph glyph-name="Z" unicode="Z" horiz-adv-x="1229" 
d="M13 48l937 1277h-235q-101 0 -170.5 -16t-116.5 -49q-65 -46 -122.5 -117.5t-69.5 -71.5q-9 0 -13 6t-4 21q0 12 44.5 100t76.5 164q5 3 13.5 4.5t27.5 1.5h774q20 0 26.5 -4t6.5 -14q0 -4 -1.5 -9t-4.5 -9l-942 -1283h272q188 0 289.5 39.5t179.5 138.5q22 27 47.5 71
t40.5 44q8 0 13 -4.5t5 -11.5q0 -11 -43.5 -120.5l-77.5 -199.5q-13 -3 -24 -4.5t-18 -1.5h-871q-32 0 -42.5 4t-10.5 14q0 3 4 12.5t9 17.5z" />
    <glyph glyph-name="bracketleft" unicode="[" horiz-adv-x="674" 
d="M444 1368h377l-12 -61h-242l-465 -1639h240l-12 -59h-373z" />
    <glyph glyph-name="backslash" unicode="\" horiz-adv-x="559" 
d="M35 1403h84l428 -1593h-82z" />
    <glyph glyph-name="bracketright" unicode="]" horiz-adv-x="674" 
d="M117 -391h-377l12 61h242l465 1637h-240l12 61h373z" />
    <glyph glyph-name="asciicircum" unicode="^" 
d="M934 1462h178l520 -565h-92l-518 436l-520 -436h-90z" />
    <glyph glyph-name="underscore" unicode="_" horiz-adv-x="1024" 
d="M0 -365h1024v-118h-1024v118z" />
    <glyph glyph-name="grave" unicode="`" horiz-adv-x="1024" 
d="M774 1036h-55l-225 221l-15 15q-45 43 -45 69q0 22 14.5 36t38.5 14q19 0 33.5 -10t30.5 -31z" />
    <glyph glyph-name="a" unicode="a" horiz-adv-x="1010" 
d="M115 160q0 -65 33 -105.5t85 -40.5q64 0 121 51.5t121 167.5q82 148 130 293.5t48 235.5q0 55 -29 88t-77 33q-68 0 -136.5 -64.5t-138.5 -191.5q-77 -141 -117 -261t-40 -206zM530 256q-60 -145 -142 -215t-189 -70q-103 0 -162.5 70.5t-59.5 191.5q0 96 45 211.5
t125 225.5q87 117 192 185.5t193 68.5q61 0 103 -36t57 -100l31 109q3 9 9 12.5t18 3.5q39 0 60 -8.5t21 -25.5q0 -9 -1.5 -20.5t-4.5 -21.5l-172 -595q-12 -45 -19 -88t-7 -74q0 -23 13 -37t34 -14q42 0 93 78t105 227l33 -12q-47 -171 -118 -261t-160 -90q-61 0 -93 31.5
t-32 91.5q0 26 7 67.5t21 94.5z" />
    <glyph glyph-name="b" unicode="b" horiz-adv-x="901" 
d="M88 432l227 862q1 2 2 6q6 26 7 41q0 28 -19.5 39t-68.5 11q-13 0 -44 -4q-4 0 -6 -1l13 50l315 39l-227 -793q67 122 144.5 184t164.5 62q94 0 148.5 -76t54.5 -209q0 -105 -43 -222t-119 -216q-85 -111 -186.5 -170.5t-208.5 -59.5q-95 0 -147 60t-52 168q0 61 33 185z
M166 147q0 -65 27.5 -99t80.5 -34q66 0 126.5 56t117.5 170q68 135 106 264.5t38 226.5q0 68 -28 107t-75 39q-60 0 -129.5 -67.5t-132.5 -186.5q-18 -36 -39.5 -94t-46.5 -140q-22 -76 -33.5 -138t-11.5 -104z" />
    <glyph glyph-name="c" unicode="c" horiz-adv-x="786" 
d="M608 268q-64 -147 -154 -221t-204 -74q-124 0 -187 71t-63 210q0 99 34.5 202.5t100.5 200.5q86 127 188 199t193 72q74 0 121 -36t47 -91q0 -32 -20.5 -56t-47.5 -24q-33 0 -52 16t-19 43q0 28 14 51.5t14 26.5q0 11 -17 19t-42 8q-50 0 -94 -33.5t-84 -101.5
q-85 -144 -135.5 -301.5t-50.5 -268.5q0 -76 32.5 -118t91.5 -42q84 0 158.5 66t142.5 201z" />
    <glyph glyph-name="d" unicode="d" horiz-adv-x="1020" 
d="M537 301q-63 -166 -144.5 -247t-187.5 -81q-107 0 -166 71.5t-59 201.5q0 96 37.5 205t107.5 211q85 124 182 193t187 69q52 0 90.5 -29t66.5 -90l115 489l3 15q5 24 5 32q0 27 -19.5 38.5t-70.5 11.5q-11 0 -37 -3q-6 -1 -10 -2l12 50l316 39l-234 -895
q-43 -164 -68.5 -297.5t-25.5 -180.5q0 -31 10.5 -49t28.5 -18q42 0 90.5 70t107.5 219l35 -15q-52 -166 -124.5 -251t-163.5 -85q-48 0 -79.5 35.5t-31.5 89.5q0 29 6 74t21 129zM117 174q0 -73 31.5 -114.5t87.5 -41.5q59 0 115 55t118 175q69 133 108 263t39 224
q0 68 -27.5 106t-76.5 38q-56 0 -110 -46.5t-113 -146.5q-81 -136 -126.5 -273.5t-45.5 -238.5z" />
    <glyph glyph-name="e" unicode="e" horiz-adv-x="784" 
d="M596 252q-83 -144 -176.5 -212.5t-206.5 -68.5q-99 0 -155 64.5t-56 177.5q0 91 31 191.5t88 191.5q93 151 206 240.5t205 89.5q68 0 110 -41.5t42 -108.5q0 -125 -125 -233t-377 -199l-16 -69q-10 -39 -14.5 -70t-4.5 -58q0 -66 27.5 -96.5t87.5 -30.5q64 0 140 64
t159 188zM197 393q164 67 273.5 187t109.5 217q0 42 -19 66t-53 24q-80 0 -167 -136t-144 -358z" />
    <glyph glyph-name="f" unicode="f" horiz-adv-x="678" 
d="M238 815h-181l9 49h182l49 150q75 230 174 335t240 105q86 0 143 -37t57 -92q0 -20 -15 -35.5t-36 -15.5q-20 0 -36 13.5t-23 35.5q-2 6 -4 15q-20 75 -99 75q-83 0 -147 -89.5t-107 -266.5l-47 -193h199l-4 -49h-207l-190 -792q-89 -366 -168.5 -477t-219.5 -111
q-75 0 -117 31t-42 85q0 27 12.5 41.5t36.5 14.5q22 0 38.5 -13t24.5 -36q2 -6 6 -19q19 -65 70 -65q91 0 170 337l2 9z" />
    <glyph glyph-name="g" unicode="g" horiz-adv-x="1006" 
d="M236 276q-71 40 -103.5 96t-32.5 138q0 174 112 294t273 120q67 0 120.5 -24t92.5 -71q57 45 95 62.5t73 17.5q49 0 79 -29.5t30 -78.5q0 -36 -17.5 -57t-48.5 -21q-26 0 -42.5 16t-16.5 41v8q0 25 -9 38.5t-26 13.5t-36 -9.5t-60 -39.5q10 -30 15 -60t5 -61
q0 -159 -90.5 -278.5t-230.5 -143.5q-24 -5 -52 -7.5t-60 -2.5q-40 -3 -59 -5t-35 -6q-47 -12 -73 -35.5t-26 -54.5q0 -35 38.5 -60.5t112.5 -39.5l182 -33q156 -27 217.5 -83t61.5 -165q0 -152 -114 -236.5t-320 -84.5q-183 0 -296.5 78.5t-113.5 201.5q0 67 42.5 112.5
t105.5 45.5q18 0 36 -4.5t37 -13.5q-50 -35 -74 -72t-24 -80q0 -94 88 -158.5t221 -64.5q137 0 221 60.5t84 156.5q0 62 -34 96t-113 49l-240 45q-122 24 -178.5 66t-56.5 108q0 83 60 137t180 78zM233 440q0 -73 34.5 -117t90.5 -44q101 0 173.5 129.5t72.5 318.5
q0 76 -31 114t-92 38q-44 0 -83 -25.5t-66 -71.5q-45 -77 -72 -171t-27 -171z" />
    <glyph glyph-name="h" unicode="h" horiz-adv-x="1010" 
d="M117 0h-142l349 1295q4 15 6 26t2 20q0 27 -20 38.5t-70 11.5q-13 0 -44 -4q-3 0 -5 -1l12 50l315 39l-237 -879q107 168 196 248t168 80q75 0 116.5 -48t41.5 -135q0 -40 -12.5 -101t-34.5 -130l-113 -338q-8 -23 -12 -43.5t-4 -38.5q0 -22 11 -34.5t30 -12.5
q44 0 96.5 68.5t116.5 207.5l32 -18q-65 -166 -134.5 -241.5t-155.5 -75.5q-63 0 -94 35t-31 106q0 32 7.5 70t29.5 102l112 342q15 46 23 85t8 64q0 37 -16 56.5t-46 19.5q-127 0 -269 -238t-232 -626z" />
    <glyph glyph-name="i" unicode="i" horiz-adv-x="559" 
d="M125 399l76 197q33 82 49 136.5t16 84.5q0 22 -10 35.5t-27 13.5q-40 0 -94 -67.5t-108 -186.5l-35 15q64 148 131 222.5t137 74.5q58 0 92.5 -40t34.5 -108q0 -48 -18 -117t-62 -186l-59 -158q-40 -106 -57 -161t-17 -78q0 -20 11 -32.5t28 -12.5q46 0 97 60.5
t128 209.5l29 -18q-69 -158 -140 -233t-151 -75q-59 0 -92 37t-33 103q0 51 17 117t57 167zM307 1335q0 37 25.5 61.5t62.5 24.5q36 0 61 -24.5t25 -61.5q0 -36 -26 -61t-62 -25q-37 0 -61.5 24.5t-24.5 61.5z" />
    <glyph glyph-name="j" unicode="j" horiz-adv-x="559" 
d="M291 729q6 24 9 45.5t3 38.5q0 16 -6.5 26.5t-15.5 10.5q-40 0 -103 -70t-127 -188l-33 16q70 144 159.5 231t162.5 87q44 0 68 -29t24 -82q0 -39 -11.5 -106t-41.5 -191l-94 -395q-90 -376 -199 -532t-276 -156q-78 0 -124 29t-46 77q0 30 15.5 48t41.5 18
q21 0 36.5 -13.5t22.5 -39.5q2 -6 5 -18q15 -58 71 -58q78 0 132.5 100.5t152.5 478.5zM371 1335q0 35 26 60.5t62 25.5q35 0 60.5 -25t25.5 -61t-26 -61t-62 -25q-37 0 -61.5 24.5t-24.5 61.5z" />
    <glyph glyph-name="k" unicode="k" horiz-adv-x="901" 
d="M217 426q196 88 304 186t108 185q0 34 -19.5 53.5t-52.5 19.5q-95 0 -184.5 -116t-155.5 -328zM96 0h-143l336 1295q5 20 6.5 29.5t1.5 16.5q0 27 -20 38.5t-70 11.5q-12 0 -44 -4q-3 0 -5 -1l12 50l315 39l-206 -797q68 119 150.5 181.5t172.5 62.5q70 0 111 -37
t41 -101q0 -81 -80.5 -153t-280.5 -166q103 -10 142.5 -57.5t39.5 -165.5q0 -25 -5 -68.5t-5 -62.5q0 -36 12 -55t33 -19q34 0 73.5 54t82.5 159l35 -17q-48 -137 -107 -199.5t-141 -62.5q-65 0 -100 40t-35 114q0 41 12 116t12 107q0 45 -19.5 69.5t-55.5 24.5q-7 0 -15 -2
t-26 -10l-127 -63z" />
    <glyph glyph-name="l" unicode="l" horiz-adv-x="559" 
d="M328 1295q5 18 6.5 27.5t1.5 18.5q0 27 -20 38.5t-70 11.5q-12 0 -44 -4q-3 0 -5 -1l12 50l315 39l-348 -1246q-11 -39 -16.5 -73.5t-5.5 -59.5q0 -36 12.5 -53.5t38.5 -17.5q47 0 104.5 72t112.5 202l35 -16q-60 -159 -132.5 -235.5t-164.5 -76.5q-70 0 -107 37.5
t-37 108.5q0 33 7.5 78.5t21.5 95.5z" />
    <glyph glyph-name="m" unicode="m" horiz-adv-x="1456" 
d="M203 0h-137l112 401q43 153 63.5 253t20.5 153q0 26 -11.5 39.5t-33.5 13.5q-41 0 -90.5 -70.5t-112.5 -218.5l-34 17q63 174 132 256t152 82q56 0 84.5 -40.5t28.5 -121.5q0 -36 -7.5 -91.5t-23.5 -133.5q86 189 180.5 288t188.5 99q53 0 83.5 -39t30.5 -107
q0 -32 -9.5 -83t-31.5 -128q94 183 180.5 270t176.5 87q57 0 90 -41t33 -113q0 -46 -12.5 -107.5t-36.5 -136.5l-123 -378q-7 -21 -11 -41.5t-4 -36.5q0 -15 12.5 -25t30.5 -10q44 0 96 66.5t126 215.5l30 -14q-68 -172 -141 -251t-162 -79q-51 0 -85 39t-34 99q0 27 8 64
t25 87l119 348q26 78 35.5 117t9.5 68q0 35 -14 53t-41 18q-72 0 -183 -154t-178 -368l-108 -346h-138l179 600q24 83 34.5 130.5t10.5 74.5q0 33 -12.5 48t-38.5 15q-72 0 -167.5 -140t-170.5 -366z" />
    <glyph glyph-name="n" unicode="n" horiz-adv-x="1124" 
d="M215 0h-145l110 367q39 131 61.5 250.5t22.5 183.5q0 31 -9.5 45t-31.5 14q-47 0 -97 -68t-116 -225l-37 13q65 179 137.5 262.5t161.5 83.5q56 0 85.5 -41.5t29.5 -120.5q0 -43 -9 -103t-28 -137q94 194 195 298t196 104q75 0 118.5 -52t43.5 -141q0 -34 -6.5 -72
t-19.5 -79l-136 -420q-8 -26 -13 -49.5t-5 -36.5q0 -24 11.5 -37.5t31.5 -13.5q48 0 102.5 68t122.5 212l33 -18l-39 -88q-52 -114 -117.5 -171t-144.5 -57q-62 0 -95.5 38t-33.5 108q0 31 7.5 67.5t33.5 116.5l110 326q18 48 26.5 88.5t8.5 70.5q0 40 -17.5 61t-49.5 21
q-41 0 -87.5 -33t-97.5 -100q-141 -183 -244 -516q-9 -30 -14 -45z" />
    <glyph glyph-name="o" unicode="o" horiz-adv-x="895" 
d="M295 -29q-129 0 -200.5 80t-71.5 223q0 118 38 232t111 215q71 97 158.5 151t175.5 54q117 0 188.5 -92t71.5 -242q0 -122 -40 -236t-118 -217q-62 -80 -143.5 -124t-169.5 -44zM158 190q0 -84 38.5 -132t106.5 -48q60 0 112.5 43.5t90.5 124.5q57 121 91 260t34 244
q0 99 -33 150t-98 51q-62 0 -119.5 -56t-106.5 -163q-52 -118 -84 -250t-32 -224z" />
    <glyph glyph-name="p" unicode="p" horiz-adv-x="1010" 
d="M133 -326q-15 -60 -19.5 -87t-4.5 -46q0 -33 32 -48.5t108 -18.5l-13 -37h-451l8 34q83 2 121 38t78 186l280 1098q-156 -124 -204.5 -189t-61.5 -139l-41 6q9 70 46.5 130t117.5 126q15 13 44 35q117 92 144 196l60 238q6 24 15 32.5t30 8.5q44 0 64 -7t20 -22
q0 -6 -3.5 -21.5l-8.5 -37.5l-132 -496q77 138 153.5 204.5t158.5 66.5q100 0 160.5 -78.5t60.5 -210.5q0 -111 -47 -239.5t-127 -235.5q-72 -95 -154 -143t-172 -48q-57 0 -96.5 26.5t-60.5 78.5zM268 162q0 -68 30.5 -108t80.5 -40q59 0 118 52t111 151q29 52 55.5 122.5
t49.5 154.5q19 68 29 125t10 100q0 74 -29 113.5t-82 39.5q-51 0 -104 -46t-111 -142q-75 -124 -116.5 -262t-41.5 -260z" />
    <glyph glyph-name="q" unicode="q" horiz-adv-x="895" 
d="M504 -378q-5 -18 -7.5 -35.5t-2.5 -37.5q0 -61 138 -70q9 -1 13 -1l-12 -41h-467l9 39q90 3 124.5 28.5t62.5 130.5l150 555q-63 -109 -139 -165t-164 -56q-101 0 -156 67.5t-55 190.5q0 114 47.5 243.5t128.5 234.5q83 106 176.5 166.5t173.5 60.5q69 0 110 -43t46 -118
l33 116q5 21 11.5 27t18.5 6q36 0 60 -10.5t24 -24.5q0 -7 -1.5 -16t-4.5 -20zM139 170q0 -68 31 -106.5t84 -38.5q66 0 142.5 73.5t125.5 190.5q57 131 89 248.5t32 191.5q0 72 -27 114t-73 42q-69 0 -131.5 -63.5t-137.5 -211.5q-66 -132 -100.5 -243.5t-34.5 -196.5z" />
    <glyph glyph-name="r" unicode="r" horiz-adv-x="782" 
d="M221 0h-147q97 266 141.5 453.5t44.5 326.5q0 39 -12 60.5t-33 21.5q-37 0 -86.5 -67.5t-108.5 -200.5l-36 12q71 168 135.5 244t136.5 76q60 0 91.5 -47t31.5 -136q0 -38 -6 -90t-19 -118q84 208 160 299.5t164 91.5q44 0 70 -26t26 -71q0 -33 -20 -56t-49 -23
q-34 0 -50 15.5t-16 49.5q0 2 1 8t1 8q0 17 -6 22t-23 5q-51 0 -121 -126t-147 -357z" />
    <glyph glyph-name="s" unicode="s" horiz-adv-x="676" 
d="M168 -29q-105 0 -168 42.5t-63 111.5q0 32 18.5 55t44.5 23t41.5 -20t15.5 -52q0 -8 -3 -30t-3 -35q0 -24 35.5 -40t89.5 -16q89 0 141 43t52 115q0 50 -21 97t-92 136l-20 26q-125 159 -125 255q0 102 78 173t192 71q80 0 133 -36t53 -85q0 -30 -15 -46t-42 -16
q-24 0 -38.5 15t-14.5 39q0 7 2 20t2 19q0 22 -25 36.5t-65 14.5q-67 0 -109.5 -38t-42.5 -97q0 -57 92 -174l31 -39q81 -102 111 -168t30 -129q0 -119 -87.5 -195t-227.5 -76z" />
    <glyph glyph-name="t" unicode="t" horiz-adv-x="559" 
d="M207 856h-156v45h170l80 266q9 29 21.5 41.5t33.5 12.5q45 0 60.5 -7t15.5 -26q0 -7 -1 -15.5t-3 -19.5l-68 -252h158v-45h-170l-162 -573q-21 -78 -28.5 -116t-7.5 -61q0 -30 14 -46.5t41 -16.5q47 0 94 63t109 211l38 -14q-67 -180 -136 -254t-165 -74q-66 0 -102.5 37
t-36.5 103q0 26 7 64t22 87z" />
    <glyph glyph-name="u" unicode="u" horiz-adv-x="1124" 
d="M797 901h145l-111 -373q-38 -130 -60.5 -249t-22.5 -183q0 -31 10 -46t30 -15q48 0 97.5 68t115.5 227l35 -15q-64 -178 -136.5 -261t-162.5 -83q-55 0 -83.5 40.5t-28.5 119.5q0 47 8.5 109t25.5 133q-94 -194 -195 -298t-196 -104q-74 0 -118 51.5t-44 139.5
q0 32 7.5 70t21.5 83l135 426q9 27 14 49t5 35q0 25 -11.5 39.5t-31.5 14.5q-47 0 -102 -68.5t-124 -214.5l-32 18l39 88q52 114 117.5 171t144.5 57q62 0 95.5 -38t33.5 -108q0 -33 -8 -70.5t-33 -113.5l-111 -330q-17 -53 -26 -92t-9 -67q0 -40 18 -62t50 -22q41 0 87 33
t97 100q142 182 242 514q10 32 14 46z" />
    <glyph glyph-name="v" unicode="v" horiz-adv-x="1006" 
d="M379 762q-38 -33 -73 -48.5t-73 -15.5q-32 0 -80.5 15.5t-66.5 15.5q-11 0 -20 -11t-9 -24v-18q0 -13 -6 -20t-16 -7q-14 0 -23.5 19t-9.5 49q0 56 36 93.5t89 37.5q42 0 99.5 -37t86.5 -37q44 0 68.5 24t34.5 74q6 33 14.5 43.5t24.5 10.5q13 0 21.5 -10t8.5 -25
q0 -28 -40 -96q-25 -43 -37 -68q-56 -115 -87.5 -241.5t-31.5 -235.5q0 -111 33.5 -164t103.5 -53q52 0 106 32.5t97 90.5q68 90 107.5 219t39.5 264q0 46 -7 109.5t-7 80.5q0 46 17 71.5t46 25.5q41 0 56.5 -29.5t15.5 -130.5q0 -123 -31.5 -241.5t-95.5 -237.5
q-84 -153 -189.5 -234.5t-220.5 -81.5q-106 0 -164.5 57.5t-58.5 161.5q0 114 148 391q62 115 94 181z" />
    <glyph glyph-name="w" unicode="w" horiz-adv-x="1346" 
d="M582 168q-48 -93 -126.5 -145t-168.5 -52q-89 0 -140 54t-51 149q0 86 50 202.5t178 319.5l45 72q-47 -32 -87.5 -46.5t-82.5 -14.5q-33 0 -70.5 14t-42.5 14q-12 0 -20.5 -10.5t-8.5 -26.5v-12q0 -23 -4 -29.5t-16 -7.5q-12 0 -21.5 21t-9.5 51q0 61 33.5 100t85.5 39
q41 0 92 -41t86 -41q37 0 57 17t31 59q3 9 6 25q9 45 33 45q15 0 25 -9t10 -22q0 -21 -40 -90.5t-63 -120.5q-53 -127 -85.5 -258.5t-32.5 -210.5q0 -84 30 -129t86 -45q76 0 136 71.5t94 202.5l117 457q11 43 22.5 53.5t34.5 10.5q33 0 53.5 -13t20.5 -35q0 -3 -3 -14
q-1 -5 -1 -8l-93 -363q-17 -69 -25.5 -124t-8.5 -101q0 -75 26 -111t80 -36q113 0 212 171t99 390q0 74 -13 164t-13 106q0 30 16.5 48t44.5 18q39 0 58.5 -36.5t19.5 -107.5q0 -140 -38.5 -288.5t-104.5 -266.5q-73 -128 -159 -192t-185 -64q-77 0 -122.5 47.5t-45.5 126.5
v23z" />
    <glyph glyph-name="x" unicode="x" horiz-adv-x="891" 
d="M352 375l-162 -264q-51 -84 -84.5 -112t-74.5 -28q-43 0 -68.5 25t-25.5 65q0 37 23 86t75 121l35 -20q-36 -61 -50 -93t-14 -53q0 -22 11.5 -34.5t33.5 -12.5t51.5 26t55.5 69l168 278l-97 303q-12 40 -26 57t-33 17q-30 0 -52.5 -39.5t-45.5 -134.5l-39 8
q25 137 76 212t118 75q54 0 90 -49t76 -183l39 -123l160 228q50 72 85 99.5t73 27.5t62 -24t24 -62q0 -47 -27.5 -102.5t-79.5 -114.5l-31 24q39 59 56.5 96t17.5 60q0 19 -13 33t-30 14q-26 0 -47.5 -16.5t-50.5 -61.5l-176 -258l118 -352q12 -35 26 -49.5t36 -14.5
q33 0 61.5 44.5t51.5 129.5l40 -12q-31 -139 -86.5 -214t-126.5 -75q-35 0 -66 25.5t-46 66.5z" />
    <glyph glyph-name="y" unicode="y" horiz-adv-x="786" 
d="M-2 528q0 11 -1 31t-1 29q0 160 44 249t124 89q106 0 182.5 -238.5t87.5 -625.5q84 155 128 292t44 244q0 67 -12.5 106.5t-52.5 83.5q-23 25 -32 42t-9 32q0 26 20 45t49 19q50 0 72.5 -48t22.5 -163q0 -234 -100 -495t-281 -499q-101 -130 -206 -207t-179 -77
q-46 0 -66 17t-20 54q0 34 25 53t71 19h13q6 -1 16.5 -1.5t37.5 -0.5q71 0 115 19t96 75q74 77 103.5 151.5t29.5 180.5q0 152 -27 310.5t-79 308.5q-37 108 -61 147t-50 39q-32 0 -45.5 -56.5t-17.5 -223.5z" />
    <glyph glyph-name="z" unicode="z" horiz-adv-x="786" 
d="M16 84l500 692q-39 -14 -72.5 -21t-64.5 -7q-45 0 -103 19t-75 19q-37 0 -53.5 -25t-18.5 -83l-35 -2q-6 19 -9 35t-3 30q0 73 50 121.5t124 48.5q53 0 132 -52t120 -52q34 0 52 14.5t26 48.5q0 3 2 10q11 50 45 50q13 0 23 -10.5t10 -24.5q0 -26 -34 -61
q-14 -15 -19 -22l-471 -656q32 7 61.5 10.5t56.5 3.5q70 0 163.5 -22.5t119.5 -22.5q55 0 80.5 30t25.5 95v8h35q3 -31 4.5 -53t1.5 -37q0 -87 -52 -135.5t-146 -48.5q-91 0 -180 62q-8 6 -13 9q-52 35 -85.5 48.5t-63.5 13.5q-36 0 -60.5 -19.5t-34.5 -54.5q-2 -7 -4 -19
q-11 -47 -41 -47q-18 0 -25.5 8t-7.5 27q0 24 28 57q7 9 11 15z" />
    <glyph glyph-name="braceleft" unicode="{" horiz-adv-x="1024" 
d="M846 1516v-51q-142 -2 -194 -55.5t-52 -209.5v-143q0 -226 -61 -308.5t-226 -113.5q165 -31 226 -113.5t61 -308.5v-143q0 -156 51.5 -208.5t194.5 -54.5v-51h-10q-217 0 -298 73.5t-81 272.5v213q0 158 -59 218t-222 73v60q165 15 223 74t58 216v213q0 200 81 273.5
t298 73.5h10z" />
    <glyph glyph-name="bar" unicode="|" horiz-adv-x="1024" 
d="M449 1565h126v-2048h-126v2048z" />
    <glyph glyph-name="braceright" unicode="}" horiz-adv-x="1024" 
d="M178 1516h10q216 0 297.5 -74t81.5 -273v-213q0 -157 58 -216t223 -74v-60q-163 -13 -222 -73t-59 -218v-213q0 -198 -81.5 -272t-297.5 -74h-10v51q143 2 194.5 54.5t51.5 208.5v143q0 226 61 308.5t226 113.5q-165 31 -226 113.5t-61 308.5v143q0 156 -52 209.5
t-194 55.5v51z" />
    <glyph glyph-name="asciitilde" unicode="~" horiz-adv-x="1706" 
d="M1530 758v-131q-101 -72 -197.5 -108t-189.5 -36q-43 0 -90.5 9t-100.5 26q-30 10 -87 31q-202 72 -302 72q-83 0 -173.5 -37.5t-211.5 -122.5v133q105 73 202 109t185 36q56 0 116.5 -12.5t174.5 -52.5q12 -4 35 -13q164 -59 254 -59q85 0 176 36.5t209 119.5z" />
    <glyph glyph-name="Adieresis" unicode="&#xc4;" horiz-adv-x="1341" 
d="M827 563h-413q-184 -266 -232.5 -349.5t-48.5 -117.5q0 -29 36 -46t99 -17q9 0 16 -6t7 -13q0 -10 -7.5 -15t-21.5 -5q-6 0 -74 6t-129 6q-52 0 -111.5 -7t-66.5 -7q-10 0 -18 6t-8 14q0 12 33 23h1q58 14 99 44t75 79l789 1114l25 37q66 98 145 98q6 0 11 -10t5 -27v-10
l-49 -1172v-24q0 -55 16.5 -80t59.5 -37q17 -5 48 -9q44 -6 44 -22q0 -11 -8 -15.5t-29 -4.5q-4 0 -21 1q-102 9 -204 9q-72 0 -150.5 -6t-85.5 -6q-18 0 -26 4t-8 14q0 11 8 15.5t39 7.5l18 3q39 6 61 13q56 18 62 135v9zM457 627h372l25 553zM729 1667q0 33 26.5 59.5
t59.5 26.5q36 0 62 -25.5t26 -60.5q0 -38 -25.5 -64t-62.5 -26q-35 0 -60.5 26.5t-25.5 63.5zM1112 1667q0 33 26.5 59.5t59.5 26.5q35 0 60.5 -25.5t25.5 -60.5q0 -39 -24.5 -64.5t-61.5 -25.5q-35 0 -60.5 26.5t-25.5 63.5z" />
    <glyph glyph-name="Aring" unicode="&#xc5;" horiz-adv-x="1341" 
d="M850 1702q0 -66 45 -111t113 -45q67 0 112 44.5t45 111.5t-45.5 113.5t-111.5 46.5q-68 0 -113 -46t-45 -114zM774 1704q0 98 67.5 165.5t166.5 67.5q98 0 165.5 -67.5t67.5 -165.5t-67.5 -166t-165.5 -68q-99 0 -166.5 68t-67.5 166zM827 563h-413
q-184 -266 -232.5 -349.5t-48.5 -117.5q0 -29 36 -46t99 -17q9 0 16 -6t7 -13q0 -10 -7.5 -15t-21.5 -5q-6 0 -74 6t-129 6q-52 0 -111.5 -7t-66.5 -7q-10 0 -18 6t-8 14q0 12 33 23h1q58 14 99 44t75 79l789 1114l25 37q66 98 145 98q6 0 11 -10t5 -27v-10l-49 -1172v-24
q0 -55 16.5 -80t59.5 -37q17 -5 48 -9q44 -6 44 -22q0 -11 -8 -15.5t-29 -4.5q-4 0 -21 1q-102 9 -204 9q-72 0 -150.5 -6t-85.5 -6q-18 0 -26 4t-8 14q0 11 8 15.5t39 7.5l18 3q39 6 61 13q56 18 62 135v9zM457 627h372l25 553z" />
    <glyph glyph-name="Ccedilla" unicode="&#xc7;" horiz-adv-x="1341" 
d="M1077 36q-4 -16 -14 -27t-21 -11q-13 0 -22.5 32.5t-32.5 32.5l-123 -49t-256 -49q-245 0 -382.5 142.5t-137.5 396.5q0 172 72.5 345t206.5 322q98 110 234.5 171t281.5 61q134 0 272 -75q34 -19 43 -19q11 0 30 23.5t32 23.5q10 0 16 -7t6 -20q0 -2 -1 -6t-1 -6
l-57 -297q-1 -3 -3 -11q-7 -32 -24 -32q-11 0 -16.5 9t-5.5 26q0 5 1 13.5t1 12.5q0 157 -73 242.5t-208 85.5q-105 0 -202 -64t-187 -192q-98 -140 -154.5 -323t-56.5 -355q0 -212 84 -317t254 -105q141 0 249 74t187 223q11 22 27 58q28 65 51 65q9 0 15.5 -6.5t6.5 -15.5
t-3 -23t-13 -51zM325 -371l27 64q65 -32 123 -50t98 -18q64 0 95.5 25t31.5 76q0 44 -31.5 68t-91.5 24q-21 0 -41 -2t-41 -6l97 190h55l-62 -121q2 0 6 1q30 3 46 3q79 0 125.5 -43t46.5 -116t-58.5 -118.5t-152.5 -45.5q-50 0 -112.5 15.5t-160.5 53.5z" />
    <glyph glyph-name="Eacute" unicode="&#xc9;" horiz-adv-x="1360" 
d="M408 1133q14 53 19 77.5t5 42.5q0 37 -21 55t-71 23q-4 1 -8.5 1.5t-12.5 0.5q-32 2 -41.5 6.5t-9.5 14.5q0 8 13 14t32 6q14 0 119 -7t195 -7q231 0 373 2t223 6v-18q0 -81 11 -165.5t11 -86.5q0 -19 -5 -30t-13 -11q-20 0 -35.5 53t-28.5 78q-37 70 -98.5 97.5
t-261.5 27.5h-144l-22 -71.5l-35 -117.5l-104 -364h104q107 0 156.5 18.5t83.5 65.5q25 34 46.5 90.5t37.5 56.5q7 0 10.5 -7t3.5 -21q0 -9 -23.5 -94.5t-35.5 -161.5q-10 -55 -21 -135q-17 -117 -37 -117q-10 0 -16 5.5t-6 14.5q0 7 1 22t1 23q0 113 -38.5 152t-150.5 39
h-129l-121 -460q-7 -24 -10.5 -50.5t-3.5 -55.5q0 -56 43.5 -78t177.5 -22q190 0 272.5 28.5t143.5 96.5q45 50 76 116t47 66q8 0 13 -6t5 -18q0 -9 -30.5 -119t-55.5 -213q-133 0 -403.5 5t-407.5 5q-126 0 -237 -12q-15 -2 -19 -2q-18 0 -29.5 6t-11.5 16q0 20 49 27h3
q19 2 36.5 5.5t32.5 8.5q35 13 54.5 41t44.5 115zM760 1515h-57l262 301q28 32 45.5 44t34.5 12q19 0 33 -16t14 -38q0 -30 -60 -80l-1 -1z" />
    <glyph glyph-name="Ntilde" unicode="&#xd1;" horiz-adv-x="1569" 
d="M270 330q-15 -60 -22.5 -104.5t-7.5 -73.5q0 -40 15 -62.5t51 -34.5q14 -5 29 -8.5t32 -5.5h2q45 -7 45 -25q-1 -11 -9.5 -16.5t-23.5 -5.5q-6 0 -27 2q-87 10 -166 10q-89 0 -187 -11q-25 -3 -32 -3q-17 0 -27 6t-10 16q0 11 10.5 17t43.5 10q45 8 69 18.5t41 26.5
q29 29 72.5 147t91.5 299l158 595q4 13 7.5 33t4.5 44q-18 49 -37.5 74t-46.5 35q-30 9 -77.5 13t-47.5 24q0 8 9.5 14t23.5 6q3 0 44.5 -4t80.5 -4q30 0 76 3t61 3q23 0 33 -7t24 -36l529 -1094l203 809q17 70 23.5 111t6.5 70q0 39 -15.5 61.5t-49.5 34.5q-23 8 -65 14
t-42 23q0 11 8 16.5t23 5.5q6 0 27 -2q89 -10 168 -10q80 0 177 11q8 1 11 1q8 0 18.5 1t12.5 1q16 0 25 -5.5t9 -16.5t-10 -17t-43 -10q-2 0 -7 -1q-73 -14 -103 -42q-29 -28 -73 -149t-91 -299l-211 -807q-8 -32 -20 -49t-27 -17t-29 12.5t-24 34.5l-533 1118zM1247 1782
q-23 -93 -63.5 -137t-102.5 -44q-16 0 -32 2t-31 6l-131 35q-33 8 -49 10.5t-27 2.5q-38 0 -61 -19t-35 -61h-41q18 89 58 131.5t106 42.5q16 0 35 -3t42 -9l138 -35q13 -4 26.5 -6t26.5 -2q39 0 64.5 21.5t37.5 64.5h39z" />
    <glyph glyph-name="Odieresis" unicode="&#xd6;" horiz-adv-x="1460" 
d="M283 401q0 -187 75.5 -290t212.5 -103q133 0 244 96t207 293q73 149 112.5 305.5t39.5 294.5q0 169 -83 268t-223 99q-96 0 -184 -58t-170 -176q-105 -150 -168 -350t-63 -379zM578 -33q-232 0 -362 139t-130 390q0 198 75.5 376t221.5 324q99 101 226.5 155t264.5 54
q228 0 360 -144t132 -393q0 -185 -75.5 -364t-213.5 -320q-100 -103 -231.5 -160t-267.5 -57zM672 1667q0 33 26.5 59.5t59.5 26.5q36 0 62 -25.5t26 -60.5q0 -38 -25.5 -64t-62.5 -26q-35 0 -60.5 26.5t-25.5 63.5zM1055 1667q0 33 26.5 59.5t59.5 26.5q35 0 60.5 -25.5
t25.5 -60.5q0 -39 -24.5 -64.5t-61.5 -25.5q-35 0 -60.5 26.5t-25.5 63.5z" />
    <glyph glyph-name="Udieresis" unicode="&#xdc;" horiz-adv-x="1577" 
d="M233 535l146 530q16 60 24.5 105.5t8.5 68.5q0 36 -12 53.5t-44 28.5q-21 7 -65.5 12t-44.5 21q0 9 11.5 15.5t29.5 6.5q3 0 20 -1q121 -9 250 -9q100 0 197 9q16 1 20 1q16 0 25.5 -5.5t9.5 -14.5q0 -20 -46 -26q-2 -1 -3 -1q-23 0 -40 -3.5t-32 -10.5q-31 -14 -54 -56
t-50 -137l-176 -633q-15 -54 -22 -99.5t-7 -82.5q0 -133 81.5 -204.5t233.5 -71.5q175 0 279 100.5t184 355.5t127 460.5t47 285.5q0 36 -17 59t-48 29q-14 3 -37 7q-4 1 -6 1q-33 4 -41 8.5t-8 14.5q0 11 9.5 17.5t26.5 6.5q2 0 14 -1t21 -1q32 -4 71.5 -6t84.5 -2
q73 0 155 8q20 2 25 2q15 0 25 -6.5t10 -15.5q0 -10 -8 -15.5t-33 -9.5q-4 -1 -11 -3q-41 -12 -67 -26q-31 -16 -55 -54.5t-41 -96.5l-144 -516q-60 -215 -110 -333t-103 -175q-76 -81 -173.5 -119.5t-229.5 -38.5q-213 0 -326.5 91t-113.5 261q0 49 8 103.5t24 112.5z
M760 1667q0 33 26.5 59.5t59.5 26.5q36 0 62 -25.5t26 -60.5q0 -38 -25.5 -64t-62.5 -26q-35 0 -60.5 26.5t-25.5 63.5zM1143 1667q0 33 26.5 59.5t59.5 26.5q35 0 60.5 -25.5t25.5 -60.5q0 -39 -24.5 -64.5t-61.5 -25.5q-35 0 -60.5 26.5t-25.5 63.5z" />
    <glyph glyph-name="aacute" unicode="&#xe1;" horiz-adv-x="1010" 
d="M115 160q0 -65 33 -105.5t85 -40.5q64 0 121 51.5t121 167.5q82 148 130 293.5t48 235.5q0 55 -29 88t-77 33q-68 0 -136.5 -64.5t-138.5 -191.5q-77 -141 -117 -261t-40 -206zM530 256q-60 -145 -142 -215t-189 -70q-103 0 -162.5 70.5t-59.5 191.5q0 96 45 211.5
t125 225.5q87 117 192 185.5t193 68.5q61 0 103 -36t57 -100l31 109q3 9 9 12.5t18 3.5q39 0 60 -8.5t21 -25.5q0 -9 -1.5 -20.5t-4.5 -21.5l-172 -595q-12 -45 -19 -88t-7 -74q0 -23 13 -37t34 -14q42 0 93 78t105 227l33 -12q-47 -171 -118 -261t-160 -90q-61 0 -93 31.5
t-32 91.5q0 26 7 67.5t21 94.5zM541 1036h-57l262 301q28 32 45.5 44t34.5 12q19 0 33 -16t14 -38q0 -30 -60 -80l-1 -1z" />
    <glyph glyph-name="agrave" unicode="&#xe0;" horiz-adv-x="1010" 
d="M115 160q0 -65 33 -105.5t85 -40.5q64 0 121 51.5t121 167.5q82 148 130 293.5t48 235.5q0 55 -29 88t-77 33q-68 0 -136.5 -64.5t-138.5 -191.5q-77 -141 -117 -261t-40 -206zM530 256q-60 -145 -142 -215t-189 -70q-103 0 -162.5 70.5t-59.5 191.5q0 96 45 211.5
t125 225.5q87 117 192 185.5t193 68.5q61 0 103 -36t57 -100l31 109q3 9 9 12.5t18 3.5q39 0 60 -8.5t21 -25.5q0 -9 -1.5 -20.5t-4.5 -21.5l-172 -595q-12 -45 -19 -88t-7 -74q0 -23 13 -37t34 -14q42 0 93 78t105 227l33 -12q-47 -171 -118 -261t-160 -90q-61 0 -93 31.5
t-32 91.5q0 26 7 67.5t21 94.5zM756 1036h-55l-225 221l-15 15q-45 43 -45 69q0 22 14.5 36t38.5 14q19 0 33.5 -10t30.5 -31z" />
    <glyph glyph-name="acircumflex" unicode="&#xe2;" horiz-adv-x="1010" 
d="M115 160q0 -65 33 -105.5t85 -40.5q64 0 121 51.5t121 167.5q82 148 130 293.5t48 235.5q0 55 -29 88t-77 33q-68 0 -136.5 -64.5t-138.5 -191.5q-77 -141 -117 -261t-40 -206zM530 256q-60 -145 -142 -215t-189 -70q-103 0 -162.5 70.5t-59.5 191.5q0 96 45 211.5
t125 225.5q87 117 192 185.5t193 68.5q61 0 103 -36t57 -100l31 109q3 9 9 12.5t18 3.5q39 0 60 -8.5t21 -25.5q0 -9 -1.5 -20.5t-4.5 -21.5l-172 -595q-12 -45 -19 -88t-7 -74q0 -23 13 -37t34 -14q42 0 93 78t105 227l33 -12q-47 -171 -118 -261t-160 -90q-61 0 -93 31.5
t-32 91.5q0 26 7 67.5t21 94.5zM879 1036h-45l-174 244l-270 -244h-54l283 348h104z" />
    <glyph glyph-name="adieresis" unicode="&#xe4;" horiz-adv-x="1010" 
d="M115 160q0 -65 33 -105.5t85 -40.5q64 0 121 51.5t121 167.5q82 148 130 293.5t48 235.5q0 55 -29 88t-77 33q-68 0 -136.5 -64.5t-138.5 -191.5q-77 -141 -117 -261t-40 -206zM530 256q-60 -145 -142 -215t-189 -70q-103 0 -162.5 70.5t-59.5 191.5q0 96 45 211.5
t125 225.5q87 117 192 185.5t193 68.5q61 0 103 -36t57 -100l31 109q3 9 9 12.5t18 3.5q39 0 60 -8.5t21 -25.5q0 -9 -1.5 -20.5t-4.5 -21.5l-172 -595q-12 -45 -19 -88t-7 -74q0 -23 13 -37t34 -14q42 0 93 78t105 227l33 -12q-47 -171 -118 -261t-160 -90q-61 0 -93 31.5
t-32 91.5q0 26 7 67.5t21 94.5zM361 1188q0 33 26.5 59.5t59.5 26.5q36 0 62 -25.5t26 -60.5q0 -38 -25.5 -64t-62.5 -26q-35 0 -60.5 26.5t-25.5 63.5zM744 1188q0 33 26.5 59.5t59.5 26.5q35 0 60.5 -25.5t25.5 -60.5q0 -39 -24.5 -64.5t-61.5 -25.5q-35 0 -60.5 26.5
t-25.5 63.5z" />
    <glyph glyph-name="atilde" unicode="&#xe3;" horiz-adv-x="1010" 
d="M115 160q0 -65 33 -105.5t85 -40.5q64 0 121 51.5t121 167.5q82 148 130 293.5t48 235.5q0 55 -29 88t-77 33q-68 0 -136.5 -64.5t-138.5 -191.5q-77 -141 -117 -261t-40 -206zM530 256q-60 -145 -142 -215t-189 -70q-103 0 -162.5 70.5t-59.5 191.5q0 96 45 211.5
t125 225.5q87 117 192 185.5t193 68.5q61 0 103 -36t57 -100l31 109q3 9 9 12.5t18 3.5q39 0 60 -8.5t21 -25.5q0 -9 -1.5 -20.5t-4.5 -21.5l-172 -595q-12 -45 -19 -88t-7 -74q0 -23 13 -37t34 -14q42 0 93 78t105 227l33 -12q-47 -171 -118 -261t-160 -90q-61 0 -93 31.5
t-32 91.5q0 26 7 67.5t21 94.5zM928 1303q-23 -93 -63.5 -137t-102.5 -44q-16 0 -32 2t-31 6l-131 35q-33 8 -49 10.5t-27 2.5q-38 0 -61 -19t-35 -61h-41q18 89 58 131.5t106 42.5q16 0 35 -3t42 -9l138 -35q13 -4 26.5 -6t26.5 -2q39 0 64.5 21.5t37.5 64.5h39z" />
    <glyph glyph-name="aring" unicode="&#xe5;" horiz-adv-x="1010" 
d="M477 1225q0 -67 45.5 -112.5t112.5 -45.5t112.5 45.5t45.5 112.5t-45.5 112t-112.5 45q-68 0 -113 -45t-45 -112zM403 1225q0 98 68 165.5t166 67.5t165.5 -67.5t67.5 -165.5q0 -99 -67.5 -166.5t-165.5 -67.5t-166 67.5t-68 166.5zM115 160q0 -65 33 -105.5t85 -40.5
q64 0 121 51.5t121 167.5q82 148 130 293.5t48 235.5q0 55 -29 88t-77 33q-68 0 -136.5 -64.5t-138.5 -191.5q-77 -141 -117 -261t-40 -206zM530 256q-60 -145 -142 -215t-189 -70q-103 0 -162.5 70.5t-59.5 191.5q0 96 45 211.5t125 225.5q87 117 192 185.5t193 68.5
q61 0 103 -36t57 -100l31 109q3 9 9 12.5t18 3.5q39 0 60 -8.5t21 -25.5q0 -9 -1.5 -20.5t-4.5 -21.5l-172 -595q-12 -45 -19 -88t-7 -74q0 -23 13 -37t34 -14q42 0 93 78t105 227l33 -12q-47 -171 -118 -261t-160 -90q-61 0 -93 31.5t-32 91.5q0 26 7 67.5t21 94.5z" />
    <glyph glyph-name="ccedilla" unicode="&#xe7;" horiz-adv-x="786" 
d="M608 268q-64 -147 -154 -221t-204 -74q-124 0 -187 71t-63 210q0 99 34.5 202.5t100.5 200.5q86 127 188 199t193 72q74 0 121 -36t47 -91q0 -32 -20.5 -56t-47.5 -24q-33 0 -52 16t-19 43q0 28 14 51.5t14 26.5q0 11 -17 19t-42 8q-50 0 -94 -33.5t-84 -101.5
q-85 -144 -135.5 -301.5t-50.5 -268.5q0 -76 32.5 -118t91.5 -42q84 0 158.5 66t142.5 201zM-60 -371l27 64q65 -32 123 -50t98 -18q64 0 95.5 25t31.5 76q0 44 -31.5 68t-91.5 24q-21 0 -41 -2t-41 -6l97 190h55l-62 -121q2 0 6 1q30 3 46 3q79 0 125.5 -43t46.5 -116
t-58.5 -118.5t-152.5 -45.5q-50 0 -112.5 15.5t-160.5 53.5z" />
    <glyph glyph-name="eacute" unicode="&#xe9;" horiz-adv-x="784" 
d="M596 252q-83 -144 -176.5 -212.5t-206.5 -68.5q-99 0 -155 64.5t-56 177.5q0 91 31 191.5t88 191.5q93 151 206 240.5t205 89.5q68 0 110 -41.5t42 -108.5q0 -125 -125 -233t-377 -199l-16 -69q-10 -39 -14.5 -70t-4.5 -58q0 -66 27.5 -96.5t87.5 -30.5q64 0 140 64
t159 188zM197 393q164 67 273.5 187t109.5 217q0 42 -19 66t-53 24q-80 0 -167 -136t-144 -358zM461 1036h-57l262 301q28 32 45.5 44t34.5 12q19 0 33 -16t14 -38q0 -30 -60 -80l-1 -1z" />
    <glyph glyph-name="egrave" unicode="&#xe8;" horiz-adv-x="784" 
d="M596 252q-83 -144 -176.5 -212.5t-206.5 -68.5q-99 0 -155 64.5t-56 177.5q0 91 31 191.5t88 191.5q93 151 206 240.5t205 89.5q68 0 110 -41.5t42 -108.5q0 -125 -125 -233t-377 -199l-16 -69q-10 -39 -14.5 -70t-4.5 -58q0 -66 27.5 -96.5t87.5 -30.5q64 0 140 64
t159 188zM197 393q164 67 273.5 187t109.5 217q0 42 -19 66t-53 24q-80 0 -167 -136t-144 -358zM676 1036h-55l-225 221l-15 15q-45 43 -45 69q0 22 14.5 36t38.5 14q19 0 33.5 -10t30.5 -31z" />
    <glyph glyph-name="ecircumflex" unicode="&#xea;" horiz-adv-x="784" 
d="M596 252q-83 -144 -176.5 -212.5t-206.5 -68.5q-99 0 -155 64.5t-56 177.5q0 91 31 191.5t88 191.5q93 151 206 240.5t205 89.5q68 0 110 -41.5t42 -108.5q0 -125 -125 -233t-377 -199l-16 -69q-10 -39 -14.5 -70t-4.5 -58q0 -66 27.5 -96.5t87.5 -30.5q64 0 140 64
t159 188zM197 393q164 67 273.5 187t109.5 217q0 42 -19 66t-53 24q-80 0 -167 -136t-144 -358zM799 1036h-45l-174 244l-270 -244h-54l283 348h104z" />
    <glyph glyph-name="edieresis" unicode="&#xeb;" horiz-adv-x="784" 
d="M596 252q-83 -144 -176.5 -212.5t-206.5 -68.5q-99 0 -155 64.5t-56 177.5q0 91 31 191.5t88 191.5q93 151 206 240.5t205 89.5q68 0 110 -41.5t42 -108.5q0 -125 -125 -233t-377 -199l-16 -69q-10 -39 -14.5 -70t-4.5 -58q0 -66 27.5 -96.5t87.5 -30.5q64 0 140 64
t159 188zM197 393q164 67 273.5 187t109.5 217q0 42 -19 66t-53 24q-80 0 -167 -136t-144 -358zM281 1188q0 33 26.5 59.5t59.5 26.5q36 0 62 -25.5t26 -60.5q0 -38 -25.5 -64t-62.5 -26q-35 0 -60.5 26.5t-25.5 63.5zM664 1188q0 33 26.5 59.5t59.5 26.5q35 0 60.5 -25.5
t25.5 -60.5q0 -39 -24.5 -64.5t-61.5 -25.5q-35 0 -60.5 26.5t-25.5 63.5z" />
    <glyph glyph-name="iacute" unicode="&#xed;" horiz-adv-x="559" 
d="M125 399l76 197q33 82 49 136.5t16 84.5q0 22 -10 35.5t-27 13.5q-40 0 -94 -67.5t-108 -186.5l-35 15q64 148 131 222.5t137 74.5q58 0 92.5 -40t34.5 -108q0 -48 -18 -117t-62 -186l-59 -158q-40 -106 -57 -161t-17 -78q0 -20 11 -32.5t28 -12.5q46 0 97 60.5
t128 209.5l29 -18q-69 -158 -140 -233t-151 -75q-59 0 -92 37t-33 103q0 51 17 117t57 167zM231 1036h-57l262 301q28 32 45.5 44t34.5 12q19 0 33 -16t14 -38q0 -30 -60 -80l-1 -1z" />
    <glyph glyph-name="igrave" unicode="&#xec;" horiz-adv-x="559" 
d="M125 399l76 197q33 82 49 136.5t16 84.5q0 22 -10 35.5t-27 13.5q-40 0 -94 -67.5t-108 -186.5l-35 15q64 148 131 222.5t137 74.5q58 0 92.5 -40t34.5 -108q0 -48 -18 -117t-62 -186l-59 -158q-40 -106 -57 -161t-17 -78q0 -20 11 -32.5t28 -12.5q46 0 97 60.5
t128 209.5l29 -18q-69 -158 -140 -233t-151 -75q-59 0 -92 37t-33 103q0 51 17 117t57 167zM446 1036h-55l-225 221l-15 15q-45 43 -45 69q0 22 14.5 36t38.5 14q19 0 33.5 -10t30.5 -31z" />
    <glyph glyph-name="icircumflex" unicode="&#xee;" horiz-adv-x="559" 
d="M125 399l76 197q33 82 49 136.5t16 84.5q0 22 -10 35.5t-27 13.5q-40 0 -94 -67.5t-108 -186.5l-35 15q64 148 131 222.5t137 74.5q58 0 92.5 -40t34.5 -108q0 -48 -18 -117t-62 -186l-59 -158q-40 -106 -57 -161t-17 -78q0 -20 11 -32.5t28 -12.5q46 0 97 60.5
t128 209.5l29 -18q-69 -158 -140 -233t-151 -75q-59 0 -92 37t-33 103q0 51 17 117t57 167zM569 1036h-45l-174 244l-270 -244h-54l283 348h104z" />
    <glyph glyph-name="idieresis" unicode="&#xef;" horiz-adv-x="559" 
d="M125 399l76 197q33 82 49 136.5t16 84.5q0 22 -10 35.5t-27 13.5q-40 0 -94 -67.5t-108 -186.5l-35 15q64 148 131 222.5t137 74.5q58 0 92.5 -40t34.5 -108q0 -48 -18 -117t-62 -186l-59 -158q-40 -106 -57 -161t-17 -78q0 -20 11 -32.5t28 -12.5q46 0 97 60.5
t128 209.5l29 -18q-69 -158 -140 -233t-151 -75q-59 0 -92 37t-33 103q0 51 17 117t57 167zM51 1188q0 33 26.5 59.5t59.5 26.5q36 0 62 -25.5t26 -60.5q0 -38 -25.5 -64t-62.5 -26q-35 0 -60.5 26.5t-25.5 63.5zM434 1188q0 33 26.5 59.5t59.5 26.5q35 0 60.5 -25.5
t25.5 -60.5q0 -39 -24.5 -64.5t-61.5 -25.5q-35 0 -60.5 26.5t-25.5 63.5z" />
    <glyph glyph-name="ntilde" unicode="&#xf1;" horiz-adv-x="1124" 
d="M215 0h-145l110 367q39 131 61.5 250.5t22.5 183.5q0 31 -9.5 45t-31.5 14q-47 0 -97 -68t-116 -225l-37 13q65 179 137.5 262.5t161.5 83.5q56 0 85.5 -41.5t29.5 -120.5q0 -43 -9 -103t-28 -137q94 194 195 298t196 104q75 0 118.5 -52t43.5 -141q0 -34 -6.5 -72
t-19.5 -79l-136 -420q-8 -26 -13 -49.5t-5 -36.5q0 -24 11.5 -37.5t31.5 -13.5q48 0 102.5 68t122.5 212l33 -18l-39 -88q-52 -114 -117.5 -171t-144.5 -57q-62 0 -95.5 38t-33.5 108q0 31 7.5 67.5t33.5 116.5l110 326q18 48 26.5 88.5t8.5 70.5q0 40 -17.5 61t-49.5 21
q-41 0 -87.5 -33t-97.5 -100q-141 -183 -244 -516q-9 -30 -14 -45zM934 1303q-23 -93 -63.5 -137t-102.5 -44q-16 0 -32 2t-31 6l-131 35q-33 8 -49 10.5t-27 2.5q-38 0 -61 -19t-35 -61h-41q18 89 58 131.5t106 42.5q16 0 35 -3t42 -9l138 -35q13 -4 26.5 -6t26.5 -2
q39 0 64.5 21.5t37.5 64.5h39z" />
    <glyph glyph-name="oacute" unicode="&#xf3;" horiz-adv-x="895" 
d="M295 -29q-129 0 -200.5 80t-71.5 223q0 118 38 232t111 215q71 97 158.5 151t175.5 54q117 0 188.5 -92t71.5 -242q0 -122 -40 -236t-118 -217q-62 -80 -143.5 -124t-169.5 -44zM158 190q0 -84 38.5 -132t106.5 -48q60 0 112.5 43.5t90.5 124.5q57 121 91 260t34 244
q0 99 -33 150t-98 51q-62 0 -119.5 -56t-106.5 -163q-52 -118 -84 -250t-32 -224zM496 1036h-57l262 301q28 32 45.5 44t34.5 12q19 0 33 -16t14 -38q0 -30 -60 -80l-1 -1z" />
    <glyph glyph-name="ograve" unicode="&#xf2;" horiz-adv-x="895" 
d="M295 -29q-129 0 -200.5 80t-71.5 223q0 118 38 232t111 215q71 97 158.5 151t175.5 54q117 0 188.5 -92t71.5 -242q0 -122 -40 -236t-118 -217q-62 -80 -143.5 -124t-169.5 -44zM158 190q0 -84 38.5 -132t106.5 -48q60 0 112.5 43.5t90.5 124.5q57 121 91 260t34 244
q0 99 -33 150t-98 51q-62 0 -119.5 -56t-106.5 -163q-52 -118 -84 -250t-32 -224zM711 1036h-55l-225 221l-15 15q-45 43 -45 69q0 22 14.5 36t38.5 14q19 0 33.5 -10t30.5 -31z" />
    <glyph glyph-name="ocircumflex" unicode="&#xf4;" horiz-adv-x="895" 
d="M295 -29q-129 0 -200.5 80t-71.5 223q0 118 38 232t111 215q71 97 158.5 151t175.5 54q117 0 188.5 -92t71.5 -242q0 -122 -40 -236t-118 -217q-62 -80 -143.5 -124t-169.5 -44zM158 190q0 -84 38.5 -132t106.5 -48q60 0 112.5 43.5t90.5 124.5q57 121 91 260t34 244
q0 99 -33 150t-98 51q-62 0 -119.5 -56t-106.5 -163q-52 -118 -84 -250t-32 -224zM834 1036h-45l-174 244l-270 -244h-54l283 348h104z" />
    <glyph glyph-name="odieresis" unicode="&#xf6;" horiz-adv-x="895" 
d="M295 -29q-129 0 -200.5 80t-71.5 223q0 118 38 232t111 215q71 97 158.5 151t175.5 54q117 0 188.5 -92t71.5 -242q0 -122 -40 -236t-118 -217q-62 -80 -143.5 -124t-169.5 -44zM158 190q0 -84 38.5 -132t106.5 -48q60 0 112.5 43.5t90.5 124.5q57 121 91 260t34 244
q0 99 -33 150t-98 51q-62 0 -119.5 -56t-106.5 -163q-52 -118 -84 -250t-32 -224zM316 1188q0 33 26.5 59.5t59.5 26.5q36 0 62 -25.5t26 -60.5q0 -38 -25.5 -64t-62.5 -26q-35 0 -60.5 26.5t-25.5 63.5zM699 1188q0 33 26.5 59.5t59.5 26.5q35 0 60.5 -25.5t25.5 -60.5
q0 -39 -24.5 -64.5t-61.5 -25.5q-35 0 -60.5 26.5t-25.5 63.5z" />
    <glyph glyph-name="otilde" unicode="&#xf5;" horiz-adv-x="895" 
d="M295 -29q-129 0 -200.5 80t-71.5 223q0 118 38 232t111 215q71 97 158.5 151t175.5 54q117 0 188.5 -92t71.5 -242q0 -122 -40 -236t-118 -217q-62 -80 -143.5 -124t-169.5 -44zM158 190q0 -84 38.5 -132t106.5 -48q60 0 112.5 43.5t90.5 124.5q57 121 91 260t34 244
q0 99 -33 150t-98 51q-62 0 -119.5 -56t-106.5 -163q-52 -118 -84 -250t-32 -224zM883 1303q-23 -93 -63.5 -137t-102.5 -44q-16 0 -32 2t-31 6l-131 35q-33 8 -49 10.5t-27 2.5q-38 0 -61 -19t-35 -61h-41q18 89 58 131.5t106 42.5q16 0 35 -3t42 -9l138 -35q13 -4 26.5 -6
t26.5 -2q39 0 64.5 21.5t37.5 64.5h39z" />
    <glyph glyph-name="uacute" unicode="&#xfa;" horiz-adv-x="1124" 
d="M797 901h145l-111 -373q-38 -130 -60.5 -249t-22.5 -183q0 -31 10 -46t30 -15q48 0 97.5 68t115.5 227l35 -15q-64 -178 -136.5 -261t-162.5 -83q-55 0 -83.5 40.5t-28.5 119.5q0 47 8.5 109t25.5 133q-94 -194 -195 -298t-196 -104q-74 0 -118 51.5t-44 139.5
q0 32 7.5 70t21.5 83l135 426q9 27 14 49t5 35q0 25 -11.5 39.5t-31.5 14.5q-47 0 -102 -68.5t-124 -214.5l-32 18l39 88q52 114 117.5 171t144.5 57q62 0 95.5 -38t33.5 -108q0 -33 -8 -70.5t-33 -113.5l-111 -330q-17 -53 -26 -92t-9 -67q0 -40 18 -62t50 -22q41 0 87 33
t97 100q142 182 242 514q10 32 14 46zM553 1036h-57l262 301q28 32 45.5 44t34.5 12q19 0 33 -16t14 -38q0 -30 -60 -80l-1 -1z" />
    <glyph glyph-name="ugrave" unicode="&#xf9;" horiz-adv-x="1124" 
d="M797 901h145l-111 -373q-38 -130 -60.5 -249t-22.5 -183q0 -31 10 -46t30 -15q48 0 97.5 68t115.5 227l35 -15q-64 -178 -136.5 -261t-162.5 -83q-55 0 -83.5 40.5t-28.5 119.5q0 47 8.5 109t25.5 133q-94 -194 -195 -298t-196 -104q-74 0 -118 51.5t-44 139.5
q0 32 7.5 70t21.5 83l135 426q9 27 14 49t5 35q0 25 -11.5 39.5t-31.5 14.5q-47 0 -102 -68.5t-124 -214.5l-32 18l39 88q52 114 117.5 171t144.5 57q62 0 95.5 -38t33.5 -108q0 -33 -8 -70.5t-33 -113.5l-111 -330q-17 -53 -26 -92t-9 -67q0 -40 18 -62t50 -22q41 0 87 33
t97 100q142 182 242 514q10 32 14 46zM768 1036h-55l-225 221l-15 15q-45 43 -45 69q0 22 14.5 36t38.5 14q19 0 33.5 -10t30.5 -31z" />
    <glyph glyph-name="ucircumflex" unicode="&#xfb;" horiz-adv-x="1124" 
d="M797 901h145l-111 -373q-38 -130 -60.5 -249t-22.5 -183q0 -31 10 -46t30 -15q48 0 97.5 68t115.5 227l35 -15q-64 -178 -136.5 -261t-162.5 -83q-55 0 -83.5 40.5t-28.5 119.5q0 47 8.5 109t25.5 133q-94 -194 -195 -298t-196 -104q-74 0 -118 51.5t-44 139.5
q0 32 7.5 70t21.5 83l135 426q9 27 14 49t5 35q0 25 -11.5 39.5t-31.5 14.5q-47 0 -102 -68.5t-124 -214.5l-32 18l39 88q52 114 117.5 171t144.5 57q62 0 95.5 -38t33.5 -108q0 -33 -8 -70.5t-33 -113.5l-111 -330q-17 -53 -26 -92t-9 -67q0 -40 18 -62t50 -22q41 0 87 33
t97 100q142 182 242 514q10 32 14 46zM891 1036h-45l-174 244l-270 -244h-54l283 348h104z" />
    <glyph glyph-name="udieresis" unicode="&#xfc;" horiz-adv-x="1124" 
d="M797 901h145l-111 -373q-38 -130 -60.5 -249t-22.5 -183q0 -31 10 -46t30 -15q48 0 97.5 68t115.5 227l35 -15q-64 -178 -136.5 -261t-162.5 -83q-55 0 -83.5 40.5t-28.5 119.5q0 47 8.5 109t25.5 133q-94 -194 -195 -298t-196 -104q-74 0 -118 51.5t-44 139.5
q0 32 7.5 70t21.5 83l135 426q9 27 14 49t5 35q0 25 -11.5 39.5t-31.5 14.5q-47 0 -102 -68.5t-124 -214.5l-32 18l39 88q52 114 117.5 171t144.5 57q62 0 95.5 -38t33.5 -108q0 -33 -8 -70.5t-33 -113.5l-111 -330q-17 -53 -26 -92t-9 -67q0 -40 18 -62t50 -22q41 0 87 33
t97 100q142 182 242 514q10 32 14 46zM373 1188q0 33 26.5 59.5t59.5 26.5q36 0 62 -25.5t26 -60.5q0 -38 -25.5 -64t-62.5 -26q-35 0 -60.5 26.5t-25.5 63.5zM756 1188q0 33 26.5 59.5t59.5 26.5q35 0 60.5 -25.5t25.5 -60.5q0 -39 -24.5 -64.5t-61.5 -25.5
q-35 0 -60.5 26.5t-25.5 63.5z" />
    <glyph glyph-name="dagger" unicode="&#x2020;" horiz-adv-x="1024" 
d="M250 -315q55 265 81.5 465.5t26.5 355.5v45q59 71 99 163.5t63 210.5q-73 -2 -167.5 -36.5t-125.5 -34.5q-42 0 -67 22.5t-25 61.5q0 40 25.5 65t66.5 25q26 0 119 -35t168 -35h12q13 43 19 86t6 86q0 50 -10.5 110.5t-10.5 70.5q0 42 25.5 68t67.5 26t68 -25t26 -65
q0 -36 -39 -90q-5 -8 -8 -12q-38 -54 -61.5 -112.5t-41.5 -139.5h25q63 0 147.5 32.5t114.5 32.5q43 0 69.5 -24t26.5 -64q0 -35 -26 -58.5t-66 -23.5q-22 0 -111.5 35t-166.5 35h-23q-10 -56 -15 -101.5t-5 -81.5q0 -50 7.5 -97.5t22.5 -92.5q-75 -153 -141.5 -365
t-130.5 -503h-45z" />
    <glyph glyph-name="degree" unicode="&#xb0;" horiz-adv-x="674" 
d="M338 1372q-84 0 -143.5 -58.5t-59.5 -142.5t59.5 -143t143.5 -59t142.5 59t58.5 143t-58.5 142.5t-142.5 58.5zM338 1454q117 0 200 -83t83 -200q0 -116 -83.5 -199t-201.5 -83t-199.5 82t-81.5 200q0 119 82.5 201t200.5 82z" />
    <glyph glyph-name="cent" unicode="&#xa2;" horiz-adv-x="1118" 
d="M332 59l278 811q-61 -14 -123 -79.5t-122 -180.5q-57 -107 -88 -210t-31 -185q0 -61 21.5 -100t64.5 -56zM209 -297l100 299q-105 29 -161 99.5t-56 172.5q0 114 55 231.5t158 223.5q76 77 157 123t161 57l82 242h59l-82 -240q74 -7 115 -40.5t41 -86.5q0 -33 -21 -53
t-55 -20q-26 0 -43 15t-17 40q0 18 8.5 42.5t8.5 33.5q0 15 -10.5 22t-40.5 10l-285 -831q4 0 11 -1t12 -1q62 0 121 30.5t106 86.5q29 34 56.5 84.5t43.5 50.5q8 0 13.5 -6.5t5.5 -14.5q0 -20 -41 -83t-95 -109q-49 -42 -104 -62t-119 -20h-26l-99 -295h-59z" />
    <glyph glyph-name="sterling" unicode="&#xa3;" horiz-adv-x="1118" 
d="M326 150q-33 26 -71.5 40.5t-76.5 14.5q-51 0 -80.5 -27.5t-29.5 -75.5q0 -41 27 -65.5t73 -24.5q53 0 91 33.5t67 104.5zM383 111q-53 -77 -105.5 -109.5t-123.5 -32.5q-60 0 -98 34.5t-38 88.5q0 79 49.5 125.5t133.5 46.5q35 0 72.5 -8.5t78.5 -26.5q14 48 20 209.5
t15 259.5h-268l14 64h260q35 313 156 478t315 165q108 0 176 -47t68 -121q0 -36 -19.5 -55t-56.5 -19q-33 0 -53 21t-33 71q0 2 -1 4q-25 105 -111 105q-99 0 -162 -141t-107 -461h299l-10 -64h-299q-16 -162 -52 -284t-93 -211l54 -22q172 -70 247 -70q68 0 118 16t86 49
q22 20 47 62.5t42 42.5q7 0 12.5 -8.5t5.5 -18.5q0 -21 -20 -69t-50 -89q-47 -65 -105 -96t-134 -31q-87 0 -160 31t-170 111z" />
    <glyph glyph-name="section" unicode="&#xa7;" horiz-adv-x="1024" 
d="M250 676q0 -36 16 -77.5t51 -94.5q81 -122 136.5 -166.5t117.5 -44.5q67 0 112.5 45t45.5 111q0 35 -16 75t-51 94q-96 144 -144.5 180t-109.5 36q-68 0 -113 -45.5t-45 -112.5zM500 264q70 -80 106.5 -155.5t36.5 -143.5q0 -112 -83 -184t-214 -72q-115 0 -192.5 63.5
t-77.5 153.5q0 47 28 77t72 30q35 0 59.5 -23.5t24.5 -56.5t-36 -75t-36 -56q0 -31 42.5 -51.5t107.5 -20.5q86 0 143.5 52t57.5 128q0 50 -30 108t-120 171l-102 127q-80 100 -110 164.5t-30 126.5q0 105 69 176t171 71q17 0 40 -3t50 -9q-71 81 -105 149t-34 130
q0 116 83 189t216 73q106 0 176 -56.5t70 -138.5q0 -50 -24.5 -79t-65.5 -29q-38 0 -63 21.5t-25 54.5t30.5 72t30.5 50q0 26 -39.5 46t-95.5 20q-85 0 -139 -48.5t-54 -123.5q0 -49 28 -103.5t120 -166.5l102 -127q80 -100 111.5 -168t31.5 -131q0 -107 -68 -177.5
t-171 -70.5q-17 0 -39.5 4t-52.5 12z" />
    <glyph glyph-name="bullet" unicode="&#x2022;" horiz-adv-x="1208" 
d="M307 762q0 123 87 209t210 86q122 0 208.5 -86.5t86.5 -208.5t-87.5 -209.5t-209.5 -87.5q-123 0 -209 87t-86 210z" />
    <glyph glyph-name="paragraph" unicode="&#xb6;" horiz-adv-x="1024" 
d="M948 1479v-78h-125v-1401h-94v1401h-182v-1401h-96v782q-173 8 -274 102.5t-101 245.5q0 157 107.5 253t285.5 96h479z" />
    <glyph glyph-name="germandbls" unicode="&#xdf;" horiz-adv-x="938" 
d="M135 -18q-67 -288 -151.5 -418.5t-202.5 -130.5q-54 0 -88.5 23t-34.5 59q0 26 17 43.5t44 17.5q34 0 52.5 -47t42.5 -47q37 0 67 60.5t62 201.5l172 788q120 555 224.5 740.5t266.5 185.5q111 0 180.5 -76.5t69.5 -197.5q0 -143 -73.5 -234.5t-213.5 -122.5l-2 -18
q109 -25 163 -97t54 -192q0 -96 -34 -194.5t-97 -182.5q-57 -75 -127 -115t-143 -40q-69 0 -110.5 35t-41.5 94q0 35 18.5 56.5t47.5 21.5q27 0 45 -17.5t18 -42.5q0 -16 -9 -39.5t-9 -29.5q0 -15 8 -22t23 -7q33 0 70.5 30t68.5 83q57 94 91 221.5t34 242.5
q0 69 -24.5 108.5t-80.5 61.5q-19 8 -54.5 14.5t-35.5 22.5q0 17 45.5 21.5t69.5 15.5q69 32 114.5 134.5t45.5 230.5q0 96 -30.5 144t-90.5 48q-72 0 -119 -84t-112 -364z" />
    <glyph glyph-name="registered" unicode="&#xae;" horiz-adv-x="1683" 
d="M729 719q16 -1 32 -1.5t34 -0.5q112 0 173.5 45.5t61.5 128.5q0 73 -53 117.5t-143 44.5q-52 0 -78.5 -18.5t-26.5 -53.5v-262zM469 1092h393q147 0 232.5 -54.5t85.5 -146.5q0 -76 -69.5 -124t-217.5 -75q93 -29 142 -77.5t71 -133.5q6 -22 11 -63q13 -88 59 -88
q32 0 49.5 34t17.5 99h43v-12q0 -88 -40.5 -133.5t-119.5 -45.5q-46 0 -78.5 17t-48.5 49q-18 40 -21 113.5t-9 95.5q-20 68 -70.5 100.5t-136.5 32.5h-33v-248q0 -54 26.5 -75.5t98.5 -25.5v-40h-385v40q72 3 99.5 24.5t27.5 76.5v516q0 55 -26 76t-101 25v43zM844 1303
q-122 0 -236 -48t-202 -137t-134.5 -202.5t-46.5 -237.5q0 -127 46.5 -239t136.5 -201q88 -89 198.5 -135t235.5 -46q126 0 236.5 46t197.5 135q88 90 135 203t47 237t-47.5 241.5t-132.5 200.5q-86 87 -200.5 135t-233.5 48zM844 1382q138 0 268.5 -54t228.5 -152
q97 -97 150 -228t53 -272q0 -137 -55.5 -267.5t-157.5 -232.5q-99 -99 -224.5 -150t-270.5 -51q-137 0 -263 52.5t-227 152.5t-154 227t-53 271q0 140 53 268.5t152 229.5q98 99 228 152.5t272 53.5z" />
    <glyph glyph-name="copyright" unicode="&#xa9;" horiz-adv-x="1683" 
d="M1120 1096h35l2 -314h-41q-34 137 -104 206t-176 69q-123 0 -185.5 -94.5t-62.5 -278.5q0 -189 67 -285t199 -96q86 0 156 43t127 131l34 -24q-58 -105 -143 -157t-199 -52q-167 0 -285 123t-118 297q0 186 116 312t285 126q74 0 148 -34t82 -34q27 0 42 14.5t21 47.5z
M844 1303q-123 0 -237.5 -48.5t-200.5 -136.5q-88 -89 -134.5 -202.5t-46.5 -237.5q0 -125 47 -238.5t136 -201.5q88 -89 198.5 -135t235.5 -46q126 0 236.5 46t197.5 135q88 90 135 203t47 237t-47.5 240.5t-132.5 201.5q-86 87 -200.5 135t-233.5 48zM844 1382
q137 0 266.5 -53.5t226.5 -150.5q98 -97 152.5 -228.5t54.5 -271.5t-53 -268t-154 -230q-98 -100 -225 -152.5t-270 -52.5t-269 52.5t-227 152.5t-154 227t-53 271q0 140 53 268.5t152 229.5q98 99 228 152.5t272 53.5z" />
    <glyph glyph-name="trademark" unicode="&#x2122;" horiz-adv-x="1683" 
d="M788 1438h183l141 -400l148 400h174v-25l-30 -2q-22 -2 -34 -15.5t-12 -37.5v-373q0 -24 12 -37.5t34 -15.5l30 -2v-27h-236v27l31 2q21 2 33 16t12 37v395l-178 -479h-15l-174 479v-395q0 -23 12.5 -37t34.5 -16l31 -2v-27h-197v27l34 2q21 2 32.5 16t11.5 37v371
q0 23 -12.5 37t-34.5 16l-31 2v27zM256 1438h440l11 -178h-25q-8 79 -40.5 115t-96.5 36h-21v-426q0 -23 12 -37t33 -16l31 -2v-27h-248v27l31 2q21 1 33 15.5t12 37.5v426h-20q-64 0 -97 -36t-41 -115h-26z" />
    <glyph glyph-name="acute" unicode="&#xb4;" horiz-adv-x="1024" 
d="M559 1036h-57l262 301q28 32 45.5 44t34.5 12q19 0 33 -16t14 -38q0 -30 -60 -80l-1 -1z" />
    <glyph glyph-name="dieresis" unicode="&#xa8;" horiz-adv-x="1024" 
d="M379 1188q0 33 26.5 59.5t59.5 26.5q36 0 62 -25.5t26 -60.5q0 -38 -25.5 -64t-62.5 -26q-35 0 -60.5 26.5t-25.5 63.5zM762 1188q0 33 26.5 59.5t59.5 26.5q35 0 60.5 -25.5t25.5 -60.5q0 -39 -24.5 -64.5t-61.5 -25.5q-35 0 -60.5 26.5t-25.5 63.5z" />
    <glyph glyph-name="notequal" unicode="&#x2260;" horiz-adv-x="1706" 
d="M1210 1180l88 -70l-196 -250h350v-115h-424l-211 -270h635v-115h-709l-251 -319l-89 70l197 249h-346v115h420l211 270h-631v115h704z" />
    <glyph glyph-name="AE" unicode="&#xc6;" horiz-adv-x="1835" 
d="M504 735h287l141 490q1 2 1.5 5t0.5 9q0 7 -2.5 11.5t-7.5 4.5q-4 0 -9.5 -5t-15.5 -17zM774 688h-305l-307 -387q-79 -99 -102 -137.5t-23 -63.5q0 -26 16.5 -40t53.5 -19l30 -3q53 -5 53 -24q0 -10 -7.5 -15t-24.5 -5q-4 0 -64.5 5t-116.5 5q-49 0 -102.5 -5t-56.5 -5
q-15 0 -23 5.5t-8 16.5q0 14 28.5 18.5t39.5 8.5q22 9 44.5 30t61.5 70l797 998q24 30 37.5 62t13.5 59q0 32 -21 48t-71 21q-4 1 -8.5 1.5t-12.5 0.5q-31 2 -40 6.5t-9 14.5q0 9 12 14.5t31 5.5q5 0 30 -1q201 -13 433 -13q233 0 387 2.5t176 5.5v-18q0 -82 10.5 -166
t10.5 -86q0 -19 -5 -30t-14 -11q-19 0 -34.5 53t-28.5 78q-37 71 -98.5 98t-260.5 27h-143q-17 -47 -32 -94.5t-27 -94.5l-111 -389h104q107 0 156.5 18.5t83.5 65.5q25 35 46.5 91.5t37.5 56.5q8 0 12 -7.5t4 -21.5q0 -8 -24 -93t-37 -163q-9 -53 -21 -133
q-16 -117 -36 -117q-11 0 -17 5t-6 14q0 6 1 22t1 25q0 113 -38.5 151.5t-149.5 38.5h-129l-113 -436q-7 -26 -10.5 -52t-3.5 -55q0 -56 43.5 -78t177.5 -22q190 0 272 28.5t144 96.5q45 50 74.5 116t46.5 66q8 0 14 -6.5t6 -17.5q0 -8 -31.5 -117.5t-56.5 -214.5
q-132 0 -403 5t-408 5q-127 0 -239 -11q-14 -1 -17 -1q-19 0 -30 5.5t-11 14.5q0 20 48 27h3q19 2 36.5 5.5t32.5 8.5q36 13 56.5 41.5t44.5 114.5z" />
    <glyph glyph-name="Oslash" unicode="&#xd8;" horiz-adv-x="1460" 
d="M371 109l659 1216q-24 17 -54 25t-71 8q-107 0 -200 -57t-177 -173q-54 -74 -97 -167.5t-79 -212.5q-30 -102 -44.5 -191t-14.5 -166q0 -99 19 -168.5t59 -113.5zM426 51q30 -20 66 -29.5t83 -9.5q111 0 209 62.5t168 177.5q110 177 168 359t58 347q0 107 -23 185.5
t-68 128.5zM250 -276h-88l164 303q-124 74 -181 182t-57 270q0 205 72 380.5t215 320.5q107 109 236.5 167t265.5 58q45 0 90 -7.5t92 -23.5l131 240h86l-148 -271q118 -64 177 -183t59 -294q0 -168 -63 -331.5t-185 -311.5q-102 -122 -246 -189t-303 -67q-43 0 -86 6.5
t-86 18.5z" />
    <glyph glyph-name="infinity" unicode="&#x221e;" horiz-adv-x="1706" 
d="M905 559q51 -95 119 -141.5t156 -46.5q102 0 168.5 71t66.5 181q0 108 -61 179.5t-152 71.5q-85 0 -153.5 -72.5t-143.5 -242.5zM803 666q-51 95 -119 142.5t-154 47.5q-105 0 -171 -71t-66 -183q0 -108 61 -179t152 -71q85 0 152 69t145 245zM866 494
q-71 -138 -148 -201.5t-173 -63.5q-134 0 -226 109t-92 272q0 172 82.5 277.5t214.5 105.5q97 0 172 -63t144 -203q67 138 146 204t175 66q134 0 226 -108.5t92 -272.5q0 -171 -82 -277t-213 -106q-96 0 -169 60t-149 201z" />
    <glyph glyph-name="plusminus" unicode="&#xb1;" horiz-adv-x="1706" 
d="M254 158h1198v-117h-1198v117zM795 1180h118v-344h539v-117h-539v-344h-118v344h-541v117h541v344z" />
    <glyph glyph-name="greaterequal" unicode="&#x2265;" horiz-adv-x="1706" 
d="M262 150h1182v-117h-1182v117zM262 1192l1182 -397v-101l-1182 -399v125l979 323l-979 324v125z" />
    <glyph glyph-name="lessequal" unicode="&#x2264;" horiz-adv-x="1706" 
d="M262 150h1182v-117h-1182v117zM1444 1192v-125l-977 -324l977 -323v-125l-1182 399v101z" />
    <glyph glyph-name="yen" unicode="&#xa5;" horiz-adv-x="1165" 
d="M602 584h469l-14 -58h-469l-84 -305q-9 -31 -14 -57t-5 -41q0 -29 15 -48.5t43 -25.5q32 -8 81 -12q52 -5 52 -25q0 -6 -10 -13t-21 -7q-4 0 -24 2q-111 12 -224 12q-112 0 -225 -12q-20 -2 -25 -2q-21 0 -34 6t-13 16q0 20 52 27h4h4q49 5 78 14q39 14 59.5 40t44.5 116
l86 315h-432l16 58h432l-41 188h-340l17 57h305l-104 401q-10 35 -24 55.5t-34 29.5q-18 8 -55 12h-2q-26 3 -33.5 8t-7.5 15q0 9 14 14.5t39 5.5q26 0 40.5 -0.5t27.5 -1.5q11 -1 32 -2q59 -4 93 -4q69 0 158 7q16 1 21 1q7 1 13 1.5t12 0.5q18 0 26.5 -5t8.5 -15
q0 -18 -48 -24q-2 -1 -3 -1q-12 0 -24.5 -1.5t-26.5 -4.5q-32 -8 -44.5 -23t-12.5 -45q0 -15 3.5 -37.5t10.5 -48.5l135 -512l115 131q175 200 254.5 313t79.5 163q0 25 -17 40t-55 23q-3 1 -7.5 1.5t-13.5 0.5h-18q-19 0 -29 5t-10 16t8.5 17.5t24.5 6.5q1 0 9 -1t15 -1
q26 -4 61 -6t77 -2q48 0 87 1t62 3q3 1 7 2q9 2 12 2q15 0 24.5 -6t9.5 -16q0 -15 -36 -23q-19 -4 -31 -8q-33 -10 -110 -107l-29 -36l-283 -345h334l-17 -57h-362z" />
    <glyph glyph-name="mu" unicode="&#xb5;" horiz-adv-x="1120" 
d="M164 193q-27 -136 -52 -339q-34 -272 -112 -272q-37 0 -58.5 23.5t-21.5 64.5q0 40 64.5 273.5t105.5 427.5l109 514h147l-104 -492q-6 -30 -9.5 -58.5t-3.5 -53.5q0 -83 42 -129t118 -46q98 0 163.5 68.5t94.5 200.5l111 510h149l-114 -531q-13 -59 -17 -87.5t-4 -49.5
q0 -48 26 -78t66 -30q35 0 65.5 18t51.5 51t41 93.5t39 60.5q12 0 19 -10t7 -27q0 -25 -11 -66.5t-29 -83.5q-38 -82 -95 -122.5t-135 -40.5q-68 0 -108.5 51t-40.5 139v23q-46 -110 -116 -164t-165 -54q-96 0 -152.5 54.5t-70.5 161.5z" />
    <glyph glyph-name="partialdiff" unicode="&#x2202;" horiz-adv-x="1044" 
d="M754 604q13 81 19.5 161.5t6.5 158.5q0 140 -39.5 216.5t-111.5 76.5q-53 0 -117 -63.5t-109 -63.5q-29 0 -51 21.5t-22 51.5q0 59 68 105.5t163 46.5q171 0 273 -152.5t102 -412.5q0 -335 -139 -555t-344 -220q-147 0 -241.5 106.5t-94.5 272.5q0 189 108.5 316
t266.5 127q99 0 162.5 -47t99.5 -146zM709 483q0 117 -45 180.5t-127 63.5q-113 0 -184.5 -127.5t-71.5 -333.5q0 -117 44 -178t128 -61q111 0 183.5 128t72.5 328z" />
    <glyph glyph-name="summation" unicode="&#x2211;" horiz-adv-x="1434" 
d="M12 1473h1135l98 -340h-74l-67 219q-8 27 -32 39t-73 12h-741l864 -850v-37l-858 -756h893q60 0 77.5 13t29.5 51l71 229h74l-135 -446h-1260v28l959 838l-961 950v50z" />
    <glyph glyph-name="product" unicode="&#x220f;" horiz-adv-x="1595" 
d="M57 1473h1479v-70h-186v-1727h186v-69h-555v69h197v1727h-762v-1727h196v-69h-555v69h187v1727h-187v70z" />
    <glyph glyph-name="pi" unicode="&#x3c0;" horiz-adv-x="1028" 
d="M-23 0l220 730q6 20 10 39t4 30q0 29 -21.5 40t-99.5 16l12 46h629q74 0 96.5 -12.5t22.5 -44.5q0 -24 -19 -86q-4 -13 -6 -19l-174 -583q-9 -33 -13.5 -53t-4.5 -31q0 -23 11.5 -38.5t27.5 -15.5q52 0 110 71.5t119 211.5l33 -18l-39 -88q-50 -112 -117 -171t-143 -59
q-60 0 -96.5 38.5t-36.5 102.5q0 55 37 174q4 11 6 17l139 459q4 10 6 21.5t2 21.5q0 28 -17.5 38.5t-86.5 10.5h-133q-42 0 -56 -10.5t-24 -44.5l-242 -793h-156z" />
    <glyph glyph-name="integral" unicode="&#x222b;" horiz-adv-x="1020" 
d="M301 -268q103 0 116 664q3 141 5 216q12 503 102 719.5t281 216.5q76 0 122 -39t46 -104q0 -48 -31 -77.5t-82 -29.5q-53 0 -85 35t-32 92q0 8 -6 15.5t-14 7.5q-105 0 -119 -634q-3 -157 -6 -245q-10 -308 -31.5 -461t-62.5 -247q-49 -114 -123 -173t-168 -59
q-73 0 -119.5 38t-46.5 97q0 53 31.5 84t83.5 31q47 0 79.5 -29t32.5 -67q0 -24 7.5 -37.5t19.5 -13.5z" />
    <glyph glyph-name="ordfeminine" unicode="&#xaa;" horiz-adv-x="758" 
d="M80 588h596l-14 -92h-596zM666 1325l12 47q3 11 11.5 16t25.5 5q29 0 46 -8t17 -21q0 -6 -1 -14t-3 -19l-121 -418q-8 -27 -12 -52.5t-4 -49.5q0 -17 8 -26t23 -9q33 0 67.5 55t65.5 158l41 -14q-37 -130 -90.5 -194t-124.5 -64q-51 0 -78 25t-27 71q0 11 1.5 22.5
t4.5 24.5q-36 -68 -95 -105.5t-130 -37.5q-81 0 -128.5 53t-47.5 143q0 67 32.5 147.5t90.5 156.5q64 83 145.5 132.5t151.5 49.5q42 0 74 -20t45 -54zM551 1356q-46 0 -94 -44t-95 -128q-55 -100 -82.5 -180t-27.5 -140q0 -47 23 -73.5t65 -26.5q47 0 93 49t102 158
q42 87 67 168t25 131q0 39 -21 62.5t-55 23.5z" />
    <glyph glyph-name="ordmasculine" unicode="&#xba;" horiz-adv-x="672" 
d="M387 762q42 0 78 28.5t59 79.5q40 85 63 180t23 175q0 64 -24 98.5t-70 34.5q-34 0 -66 -23.5t-59 -68.5q-47 -78 -77.5 -186t-30.5 -191q0 -60 27.5 -93.5t76.5 -33.5zM84 588h467l-19 -92h-464zM524 1401q96 0 152.5 -69.5t56.5 -186.5q0 -79 -29.5 -159t-85.5 -148
q-45 -58 -107.5 -88.5t-135.5 -30.5q-103 0 -159 60.5t-56 170.5q0 76 28.5 155.5t79.5 147.5q53 70 121 109t135 39z" />
    <glyph glyph-name="Omega" unicode="&#x2126;" horiz-adv-x="1567" 
d="M1100 188v-26h313l66 203h61l-108 -365h-500q134 233 202 451t68 413q0 271 -107.5 416t-308.5 145t-309 -145t-108 -416q0 -195 68 -411t204 -453h-500l-110 365h61l68 -203h311v26q-165 203 -234 361.5t-69 327.5q0 272 174.5 446t443.5 174t443 -174.5t174 -445.5
q0 -169 -69 -327.5t-234 -361.5z" />
    <glyph glyph-name="ae" unicode="&#xe6;" horiz-adv-x="1221" 
d="M465 147q-73 -89 -146 -132.5t-149 -43.5q-85 0 -136.5 59.5t-51.5 157.5q0 195 128 362.5t347 256.5q60 24 127.5 41t188.5 35q8 1 17 2t28 4q18 3 79 19t100 16q70 0 108 -35t38 -98q0 -129 -131 -244t-369 -195q-18 -55 -27.5 -104.5t-9.5 -87.5q0 -69 27.5 -103
t83.5 -34q72 0 151.5 65t147.5 182l28 -20q-63 -131 -159 -205t-201 -74q-82 0 -140 46.5t-79 129.5zM460 204q10 183 96 341t253 299q-119 -6 -229 -51.5t-199 -124.5q-110 -98 -182 -242.5t-72 -261.5q0 -60 23 -92.5t65 -32.5q53 0 111.5 39.5t133.5 125.5zM655 393
q170 69 274.5 183.5t104.5 224.5q0 38 -19.5 59t-56.5 21q-77 0 -156.5 -128t-146.5 -360z" />
    <glyph glyph-name="oslash" unicode="&#xf8;" horiz-adv-x="895" 
d="M616 790l-413 -741q23 -20 47 -29.5t51 -9.5q62 0 114.5 43t90.5 125q57 119 91 260t34 248q0 24 -3.5 49.5t-11.5 54.5zM170 102l414 744q-19 19 -40 28t-46 9q-61 0 -116.5 -54.5t-107.5 -164.5q-51 -115 -83.5 -249.5t-32.5 -226.5q0 -20 3 -41.5t9 -44.5zM127 20
q-50 41 -77 107t-27 147q0 119 37.5 232.5t111.5 214.5q71 97 158.5 151t175.5 54q26 0 52 -6t54 -19l125 223h62l-137 -254q51 -48 77.5 -122t26.5 -168q0 -112 -41 -226t-117 -215q-62 -82 -144 -125t-179 -43q-27 0 -54.5 6t-54.5 17l-133 -234h-63z" />
    <glyph glyph-name="questiondown" unicode="&#xbf;" horiz-adv-x="1006" 
d="M741 1294q0 -46 -31 -77t-77 -31q-45 0 -76 31.5t-31 76.5q0 46 31 77.5t76 31.5q46 0 77 -31.5t31 -77.5zM565 618l-168 -149q-70 -63 -101.5 -122t-31.5 -130q0 -86 55.5 -140t143.5 -54q97 0 157 51.5t60 134.5q0 54 -33 87.5t-86 33.5q-27 0 -43 -7.5t-16 -19.5
q0 -1 25.5 -25.5t25.5 -56.5q0 -29 -21 -48t-53 -19q-38 0 -60 24t-22 66q0 60 43 97.5t113 37.5q80 0 129 -48t49 -126q0 -101 -76.5 -167.5t-195.5 -66.5q-144 0 -233 87.5t-89 228.5q0 87 39.5 157t136.5 150l152 125q68 55 94.5 92t26.5 72q0 29 -21.5 47t-56.5 18
q-32 0 -66.5 -17.5t-58.5 -47.5l-29 26q39 45 83 67.5t93 22.5q73 0 120.5 -46t47.5 -117q0 -52 -29.5 -101.5t-103.5 -116.5z" />
    <glyph glyph-name="exclamdown" unicode="&#xa1;" horiz-adv-x="616" 
d="M262 152q-19 -110 -43.5 -144.5t-71.5 -34.5q-43 0 -70.5 28t-27.5 73q0 20 6 45t27 80l264 725l1 2q12 30 30 30q11 0 16.5 -5.5t5.5 -16.5q0 -10 -0.5 -15.5t-1.5 -9.5zM588 1294q0 -46 -30.5 -76t-76.5 -30q-45 0 -76.5 30.5t-31.5 75.5t32 77t76 32q45 0 76 -31.5
t31 -77.5z" />
    <glyph glyph-name="logicalnot" unicode="&#xac;" horiz-adv-x="1706" 
d="M254 858h1198v-502h-115v385h-1083v117z" />
    <glyph glyph-name="radical" unicode="&#x221a;" horiz-adv-x="1288" 
d="M1106 1647h182v-82h-119l-594 -1606h-53l-323 893l-119 -43l-23 68l262 92l265 -729z" />
    <glyph glyph-name="florin" unicode="&#x192;" horiz-adv-x="1118" 
d="M455 774h-185l19 51h178q65 286 186.5 433t290.5 147q80 0 135.5 -39.5t55.5 -95.5q0 -37 -21.5 -58.5t-56.5 -21.5q-25 0 -50 17.5t-42 47.5q-7 12 -15 32q-25 61 -71 61q-69 0 -118.5 -106t-115.5 -417h219l-14 -51h-215l-62 -282q-129 -606 -252 -821.5t-315 -215.5
q-88 0 -143.5 38.5t-55.5 98.5q0 39 23 62.5t61 23.5q25 0 47 -19.5t29 -47.5q1 -3 3 -10q21 -88 83 -88q85 0 139.5 111.5t137.5 527.5z" />
    <glyph glyph-name="approxequal" unicode="&#x2248;" horiz-adv-x="1706" 
d="M1530 584v-131q-107 -75 -202 -110.5t-187 -35.5q-98 0 -288 69.5t-290 69.5q-82 0 -169.5 -35.5t-215.5 -123.5v131q108 74 203.5 110.5t183.5 36.5q111 0 301.5 -69.5t276.5 -69.5q85 0 173.5 35.5t213.5 122.5zM1530 934v-131q-104 -73 -200 -108.5t-187 -35.5
q-100 0 -290 69t-290 69q-83 0 -171.5 -36t-213.5 -122v131q106 73 202 109t185 36q111 0 300.5 -68.5t277.5 -68.5q87 0 175 35t212 121z" />
    <glyph glyph-name="Delta" unicode="&#x2206;" horiz-adv-x="1208" 
d="M555 1212l-389 -1042h768zM596 1497h29l555 -1497h-1151z" />
    <glyph glyph-name="guillemotleft" unicode="&#xab;" horiz-adv-x="848" 
d="M340 436q121 90 238.5 193.5t128.5 103.5q4 0 6.5 -2t3.5 -6q0 -25 -46.5 -81.5t-203.5 -215.5q75 -130 104 -191t29 -85q0 -10 -2 -13.5t-8 -3.5q-13 0 -90 105t-160 196zM61 436q121 90 238.5 193.5t128.5 103.5q4 0 6 -2t2 -6q0 -25 -46 -81.5t-204 -215.5
q75 -130 104 -191t29 -85q0 -10 -2 -13.5t-8 -3.5q-12 0 -88 104.5t-160 196.5z" />
    <glyph glyph-name="guillemotright" unicode="&#xbb;" horiz-adv-x="848" 
d="M686 432q-121 -90 -238.5 -193.5t-128.5 -103.5q-3 0 -6.5 3t-3.5 5q0 25 46.5 81.5t203.5 215.5q-75 130 -104 191t-29 86q0 9 2 12.5t8 3.5q13 0 90 -104.5t160 -196.5zM406 432q-122 -90 -239.5 -193.5t-127.5 -103.5q-4 0 -6 2.5t-2 5.5q0 25 46 81.5t204 215.5
q-81 141 -108.5 197.5t-27.5 79.5q0 8 3 12t10 4q12 0 88 -104.5t160 -196.5z" />
    <glyph glyph-name="ellipsis" unicode="&#x2026;" 
d="M161 84q0 46 31.5 77.5t77.5 31.5q45 0 75.5 -31.5t30.5 -77.5q0 -45 -31 -76t-77 -31q-45 0 -76 31t-31 76zM843 84q0 46 31.5 77.5t77.5 31.5q45 0 75.5 -31.5t30.5 -77.5q0 -45 -31 -76t-77 -31q-45 0 -76 31t-31 76zM1527 84q0 46 31.5 77.5t77.5 31.5
q45 0 75.5 -31.5t30.5 -77.5q0 -45 -31 -76t-77 -31q-45 0 -76 31t-31 76z" />
    <glyph glyph-name="Agrave" unicode="&#xc0;" horiz-adv-x="1341" 
d="M827 563h-413q-184 -266 -232.5 -349.5t-48.5 -117.5q0 -29 36 -46t99 -17q9 0 16 -6t7 -13q0 -10 -7.5 -15t-21.5 -5q-6 0 -74 6t-129 6q-52 0 -111.5 -7t-66.5 -7q-10 0 -18 6t-8 14q0 12 33 23h1q58 14 99 44t75 79l789 1114l25 37q66 98 145 98q6 0 11 -10t5 -27v-10
l-49 -1172v-24q0 -55 16.5 -80t59.5 -37q17 -5 48 -9q44 -6 44 -22q0 -11 -8 -15.5t-29 -4.5q-4 0 -21 1q-102 9 -204 9q-72 0 -150.5 -6t-85.5 -6q-18 0 -26 4t-8 14q0 11 8 15.5t39 7.5l18 3q39 6 61 13q56 18 62 135v9zM457 627h372l25 553zM1124 1515h-55l-225 221
l-15 15q-45 43 -45 69q0 22 14.5 36t38.5 14q19 0 33.5 -10t30.5 -31z" />
    <glyph glyph-name="Atilde" unicode="&#xc3;" horiz-adv-x="1341" 
d="M827 563h-413q-184 -266 -232.5 -349.5t-48.5 -117.5q0 -29 36 -46t99 -17q9 0 16 -6t7 -13q0 -10 -7.5 -15t-21.5 -5q-6 0 -74 6t-129 6q-52 0 -111.5 -7t-66.5 -7q-10 0 -18 6t-8 14q0 12 33 23h1q58 14 99 44t75 79l789 1114l25 37q66 98 145 98q6 0 11 -10t5 -27v-10
l-49 -1172v-24q0 -55 16.5 -80t59.5 -37q17 -5 48 -9q44 -6 44 -22q0 -11 -8 -15.5t-29 -4.5q-4 0 -21 1q-102 9 -204 9q-72 0 -150.5 -6t-85.5 -6q-18 0 -26 4t-8 14q0 11 8 15.5t39 7.5l18 3q39 6 61 13q56 18 62 135v9zM457 627h372l25 553zM1296 1782
q-23 -93 -63.5 -137t-102.5 -44q-16 0 -32 2t-31 6l-131 35q-33 8 -49 10.5t-27 2.5q-38 0 -61 -19t-35 -61h-41q18 89 58 131.5t106 42.5q16 0 35 -3t42 -9l138 -35q13 -4 26.5 -6t26.5 -2q39 0 64.5 21.5t37.5 64.5h39z" />
    <glyph glyph-name="Otilde" unicode="&#xd5;" horiz-adv-x="1460" 
d="M283 401q0 -187 75.5 -290t212.5 -103q133 0 244 96t207 293q73 149 112.5 305.5t39.5 294.5q0 169 -83 268t-223 99q-96 0 -184 -58t-170 -176q-105 -150 -168 -350t-63 -379zM578 -33q-232 0 -362 139t-130 390q0 198 75.5 376t221.5 324q99 101 226.5 155t264.5 54
q228 0 360 -144t132 -393q0 -185 -75.5 -364t-213.5 -320q-100 -103 -231.5 -160t-267.5 -57zM1239 1782q-23 -93 -63.5 -137t-102.5 -44q-16 0 -32 2t-31 6l-131 35q-33 8 -49 10.5t-27 2.5q-38 0 -61 -19t-35 -61h-41q18 89 58 131.5t106 42.5q16 0 35 -3t42 -9l138 -35
q13 -4 26.5 -6t26.5 -2q39 0 64.5 21.5t37.5 64.5h39z" />
    <glyph glyph-name="OE" unicode="&#x152;" horiz-adv-x="2144" 
d="M1180 252q-8 -25 -11.5 -51.5t-3.5 -55.5q0 -56 43.5 -78t177.5 -22q190 0 272.5 28.5t143.5 96.5q45 50 76 116t47 66q8 0 13 -6t6 -18q0 -8 -32 -117.5t-57 -214.5q-172 0 -414.5 5t-312.5 5q-69 0 -138.5 -2.5t-141.5 -7.5q-25 -1 -92.5 -3.5t-104.5 -2.5
q-268 0 -408.5 130.5t-140.5 379.5q0 161 64.5 318.5t181.5 285.5q123 133 276.5 202.5t325.5 69.5q12 0 64 -2q274 -14 547 -14q202 0 350.5 3t148.5 5h-4h-18v-18q0 -81 11 -165.5t11 -86.5q0 -19 -5 -30t-13 -11q-20 0 -35.5 53t-28.5 78q-37 70 -98.5 97.5t-261.5 27.5
h-143l-23 -71.5l-35 -117.5l-104 -364h104q107 0 156.5 18.5t83.5 65.5q25 34 46.5 90.5t37.5 56.5q7 0 10.5 -7t3.5 -21q0 -9 -23 -94t-36 -162q-10 -55 -21 -135q-17 -117 -37 -117q-10 0 -16 5.5t-6 14.5q0 7 1 22t1 23q0 113 -38.5 152t-149.5 39h-130zM1008 330
l198 722q7 25 11 56.5t4 60.5q0 78 -59 122t-163 44q-124 0 -230 -48t-189 -142q-124 -139 -193.5 -321.5t-69.5 -368.5q0 -204 97.5 -314t277.5 -110q130 0 200.5 66t115.5 233z" />
    <glyph glyph-name="oe" unicode="&#x153;" horiz-adv-x="1343" 
d="M573 147q-56 -88 -122.5 -132t-145.5 -44q-119 0 -192.5 92.5t-73.5 245.5q0 104 36 207t105 197q76 100 167 156.5t177 56.5q76 0 137.5 -40.5t108.5 -121.5q105 89 176.5 125.5t136.5 36.5q75 0 116.5 -38.5t41.5 -107.5q0 -123 -125.5 -230.5t-376.5 -199.5
q-15 -59 -22.5 -106t-7.5 -80q0 -67 26.5 -102t77.5 -35q72 0 153.5 64.5t149.5 178.5l33 -24q-77 -135 -170 -205t-197 -70q-84 0 -133.5 42t-75.5 134zM530 883q-66 0 -123.5 -50t-107.5 -151q-53 -108 -84 -239t-31 -242q0 -93 35.5 -141t104.5 -48q73 0 133 61t108 183
q46 115 73.5 241.5t27.5 219.5q0 81 -34.5 123.5t-101.5 42.5zM756 397q167 67 276 183t109 215q0 40 -22 64t-60 24q-90 0 -169 -126t-134 -360z" />
    <glyph glyph-name="endash" unicode="&#x2013;" horiz-adv-x="1024" 
d="M-66 399l27 97h1024l-24 -97h-1027z" />
    <glyph glyph-name="emdash" unicode="&#x2014;" 
d="M2009 496l-27 -97h-2048l27 97h2048z" />
    <glyph glyph-name="quotedblleft" unicode="&#x201c;" horiz-adv-x="881" 
d="M733 1194q10 3 18.5 4.5t18.5 1.5q47 0 73.5 -25t26.5 -69q0 -42 -29 -72t-69 -30q-64 0 -99.5 38.5t-35.5 108.5q0 108 77.5 202.5t203.5 135.5l18 -31q-96 -53 -151.5 -116t-55.5 -117q0 -12 1 -19t3 -12zM317 1194q10 3 19 4.5t18 1.5q47 0 74 -25t27 -69
q0 -42 -29.5 -72t-69.5 -30q-64 0 -99.5 38.5t-35.5 108.5q0 108 77 202.5t202 135.5l20 -31q-96 -53 -152.5 -116.5t-56.5 -116.5q0 -7 1.5 -15t4.5 -16z" />
    <glyph glyph-name="quotedblright" unicode="&#x201d;" horiz-adv-x="881" 
d="M368 1247q-9 -3 -18.5 -4.5t-17.5 -1.5q-47 0 -74 25.5t-27 68.5q0 42 29.5 72.5t69.5 30.5q64 0 99.5 -39t35.5 -109q0 -108 -77 -202.5t-202 -135.5l-20 31q96 53 152.5 117.5t56.5 118.5q0 6 -1.5 13t-5.5 15zM786 1247q-9 -3 -18.5 -4.5t-17.5 -1.5q-47 0 -74 25.5
t-27 68.5q0 42 29.5 72.5t69.5 30.5q63 0 99 -39t36 -109q0 -108 -78 -202t-203 -136l-18 31q95 53 151 117t56 119q-1 12 -1.5 17t-3.5 11z" />
    <glyph glyph-name="quoteleft" unicode="&#x2018;" horiz-adv-x="440" 
d="M317 1194q10 3 19 4.5t18 1.5q47 0 74 -25t27 -69q0 -42 -29.5 -72t-69.5 -30q-64 0 -99.5 38.5t-35.5 108.5q0 108 77 202.5t202 135.5l20 -31q-96 -53 -152.5 -116.5t-56.5 -116.5q0 -7 1.5 -15t4.5 -16z" />
    <glyph glyph-name="quoteright" unicode="&#x2019;" horiz-adv-x="440" 
d="M338 1247q-10 -3 -19 -4.5t-18 -1.5q-47 0 -74.5 25.5t-27.5 68.5q0 42 30 72.5t70 30.5q64 0 99.5 -39t35.5 -109q0 -108 -77.5 -202t-202.5 -136l-19 31q96 53 151.5 117t55.5 119q0 11 -1 17t-3 11z" />
    <glyph glyph-name="divide" unicode="&#xf7;" horiz-adv-x="1706" 
d="M854 365q47 0 81 -34t34 -81t-33.5 -81t-81.5 -34t-81.5 33.5t-33.5 81.5t34 81.5t81 33.5zM254 670h1198v-117h-1198v117zM854 1085q48 0 81.5 -33.5t33.5 -80.5q0 -48 -33.5 -81.5t-81.5 -33.5q-49 0 -82 33.5t-33 81.5q0 47 34 80.5t81 33.5z" />
    <glyph glyph-name="lozenge" unicode="&#x25ca;" horiz-adv-x="1012" 
d="M506 1409l-385 -817l385 -825l385 825zM506 1653l500 -1061l-500 -1069l-500 1069z" />
    <glyph glyph-name="ydieresis" unicode="&#xff;" horiz-adv-x="786" 
d="M-2 528q0 11 -1 31t-1 29q0 160 44 249t124 89q106 0 182.5 -238.5t87.5 -625.5q84 155 128 292t44 244q0 67 -12.5 106.5t-52.5 83.5q-23 25 -32 42t-9 32q0 26 20 45t49 19q50 0 72.5 -48t22.5 -163q0 -234 -100 -495t-281 -499q-101 -130 -206 -207t-179 -77
q-46 0 -66 17t-20 54q0 34 25 53t71 19h13q6 -1 16.5 -1.5t37.5 -0.5q71 0 115 19t96 75q74 77 103.5 151.5t29.5 180.5q0 152 -27 310.5t-79 308.5q-37 108 -61 147t-50 39q-32 0 -45.5 -56.5t-17.5 -223.5zM260 1188q0 33 26.5 59.5t59.5 26.5q36 0 62 -25.5t26 -60.5
q0 -38 -25.5 -64t-62.5 -26q-35 0 -60.5 26.5t-25.5 63.5zM643 1188q0 33 26.5 59.5t59.5 26.5q35 0 60.5 -25.5t25.5 -60.5q0 -39 -24.5 -64.5t-61.5 -25.5q-35 0 -60.5 26.5t-25.5 63.5z" />
    <glyph glyph-name="Ydieresis" unicode="&#x178;" horiz-adv-x="1110" 
d="M514 221q-8 -28 -12 -54t-4 -44q0 -30 14 -49t41 -25q32 -8 81 -12q52 -5 52 -25q0 -6 -9.5 -13t-21.5 -7q-3 0 -23 2q-127 12 -265 12q-103 0 -212 -12q-24 -2 -30 -2q-22 0 -34.5 6t-12.5 16q0 20 49 26q3 1 4 1h4q49 5 78 14q41 14 62 41.5t44 114.5l105 389l-166 631
q-9 33 -23 54t-35 30q-18 8 -58 12.5t-40 22.5q0 10 14.5 16t39.5 6q7 0 29 -1t36 -1q38 -4 71.5 -6t65.5 -2q80 0 173 7q15 1 19 1q7 1 13 1.5t12 0.5q18 0 26.5 -5t8.5 -15q0 -19 -51 -24q-33 -3 -51 -7q-32 -8 -44.5 -23t-12.5 -45q0 -15 3.5 -37.5t10.5 -48.5l135 -512
l115 131q175 200 254.5 313t79.5 163q0 25 -17 40t-55 23q-15 3 -38 4q-40 4 -40 19q0 11 8.5 17.5t24.5 6.5q6 0 11.5 -0.5t11.5 -1.5q25 -4 63.5 -6t85.5 -2q48 0 87 1t63 3q4 1 8 1.5t10 0.5q16 0 25.5 -5.5t9.5 -14.5q0 -15 -37 -23q-19 -4 -31 -8q-32 -10 -110 -107
l-29 -36l-488 -594zM524 1667q0 33 26.5 59.5t59.5 26.5q36 0 62 -25.5t26 -60.5q0 -38 -25.5 -64t-62.5 -26q-35 0 -60.5 26.5t-25.5 63.5zM907 1667q0 33 26.5 59.5t59.5 26.5q35 0 60.5 -25.5t25.5 -60.5q0 -39 -24.5 -64.5t-61.5 -25.5q-35 0 -60.5 26.5t-25.5 63.5z
" />
    <glyph glyph-name="fraction" unicode="&#x2044;" horiz-adv-x="342" 
d="M-342 -33l940 1436h84l-938 -1436h-86z" />
    <glyph glyph-name="currency" unicode="&#xa4;" horiz-adv-x="1241" 
d="M623 1200q-130 0 -222 -92t-92 -221q0 -131 91.5 -223.5t222.5 -92.5q129 0 221 93t92 223q0 129 -91.5 221t-221.5 92zM158 1419l207 -207q60 46 122.5 68.5t133.5 22.5t135.5 -22.5t124.5 -68.5l204 207l72 -73l-205 -205q43 -57 64.5 -121t21.5 -135t-21.5 -135.5
t-64.5 -120.5l205 -205l-72 -74l-204 207q-57 -44 -121.5 -66t-138.5 -22t-136.5 21.5t-119.5 66.5l-207 -207l-72 74l207 205q-44 58 -66 122t-22 134q0 69 22 133.5t66 122.5l-207 205z" />
    <glyph glyph-name="guilsinglleft" unicode="&#x2039;" horiz-adv-x="569" 
d="M61 436q121 90 238.5 193.5t128.5 103.5q4 0 6 -2t2 -6q0 -25 -46 -81.5t-204 -215.5q75 -130 104 -191t29 -85q0 -10 -2 -13.5t-8 -3.5q-12 0 -88 104.5t-160 196.5z" />
    <glyph glyph-name="guilsinglright" unicode="&#x203a;" horiz-adv-x="569" 
d="M406 432q-122 -90 -239.5 -193.5t-127.5 -103.5q-4 0 -6 2.5t-2 5.5q0 25 46 81.5t204 215.5q-81 141 -108.5 197.5t-27.5 79.5q0 8 3 12t10 4q12 0 88 -104.5t160 -196.5z" />
    <glyph glyph-name="fi" unicode="&#xfb01;" horiz-adv-x="1104" 
d="M195 23q-84 -357 -165 -472.5t-223 -115.5q-75 0 -117 31t-42 85q0 27 12.5 41.5t36.5 14.5q22 0 38.5 -13t24.5 -36q2 -6 6 -19q19 -65 70 -65q53 0 86.5 58t85.5 288l223 979h-190l10 53h195l28 104q65 244 192 373t302 129q96 0 162.5 -37.5t66.5 -89.5
q0 -21 -15.5 -37t-37.5 -16q-27 0 -44 19.5t-17 50.5q0 33 -34.5 53t-92.5 20q-112 0 -198.5 -106.5t-129.5 -298.5l-37 -164h520l-133 -502q-24 -90 -36.5 -156.5t-12.5 -107.5q0 -22 8 -34.5t23 -12.5q36 0 79.5 54.5t108.5 180.5l33 -18q-60 -141 -129.5 -213t-144.5 -72
q-56 0 -84.5 34.5t-28.5 103.5q0 35 9.5 88.5t27.5 121.5l129 480h-383z" />
    <glyph glyph-name="fl" unicode="&#xfb02;" horiz-adv-x="1110" 
d="M195 23q-80 -348 -162.5 -468t-225.5 -120q-75 0 -117 31t-42 85q0 27 12.5 41.5t36.5 14.5q22 0 38.5 -13t24.5 -36q2 -6 6 -19q19 -65 70 -65q54 0 87.5 58.5t84.5 287.5l223 987h-192l10 49h195l30 113q62 229 178.5 357t264.5 128q79 0 158.5 -34t89.5 -34
q18 0 43.5 8.5t58.5 24.5l-309 -1124q-24 -89 -32.5 -132t-8.5 -73q0 -22 11 -36.5t28 -14.5q41 0 88.5 64t93.5 182l35 -15q-48 -143 -115 -218t-147 -75q-58 0 -92.5 38t-34.5 102q0 45 29 153l8 30l137 507h-385zM385 856h383l123 438q-14 10 -52 65.5t-102 55.5
q-115 0 -185.5 -94.5t-143.5 -382.5z" />
    <glyph glyph-name="daggerdbl" unicode="&#x2021;" horiz-adv-x="1024" 
d="M369 551q58 71 98 163.5t63 210.5q-73 -2 -168.5 -36.5t-125.5 -34.5q-43 0 -68 22.5t-25 61.5q0 40 25.5 65t67.5 25q25 0 119.5 -35t168.5 -35l13 1q11 39 16.5 81.5t5.5 89.5q0 50 -9 110.5t-9 70.5q0 43 24 68.5t66 25.5t68 -25t26 -65q0 -36 -38 -90q-6 -8 -9 -13
q-37 -53 -61 -111.5t-42 -139.5h25q63 0 147.5 32.5t114.5 32.5q44 0 71.5 -24.5t27.5 -63.5q0 -35 -26.5 -58.5t-66.5 -23.5q-22 0 -111 35t-167 35h-23q-12 -64 -17 -107.5t-5 -75.5q0 -50 7.5 -97.5t22.5 -92.5q-59 -78 -98.5 -169.5t-62.5 -206.5q72 1 167 36t126 35
q42 0 67 -22.5t25 -61.5q0 -41 -26 -66.5t-66 -25.5q-26 0 -119.5 35.5t-169.5 35.5h-10q-13 -43 -19 -86t-6 -86q0 -49 10 -109.5t10 -70.5q0 -43 -25 -68.5t-67 -25.5q-43 0 -68.5 24t-25.5 64q0 36 38 90q7 9 9 12q37 54 61 112.5t42 141.5h-23q-64 0 -149 -33.5
t-115 -33.5q-43 0 -69.5 24t-26.5 64q0 36 26 60t66 24q22 0 111 -36t167 -36h23q10 51 15 97.5t5 86.5q0 54 -7 100.5t-21 92.5z" />
    <glyph glyph-name="periodcentered" unicode="&#xb7;" horiz-adv-x="559" 
d="M172 723q0 46 31 76t78 30q45 0 75.5 -30.5t30.5 -75.5t-31.5 -77t-76.5 -32t-76 31.5t-31 77.5z" />
    <glyph glyph-name="quotesinglbase" unicode="&#x201a;" horiz-adv-x="440" 
d="M205 4q-9 -3 -18.5 -4.5t-18.5 -1.5q-47 0 -73.5 25t-26.5 69q0 41 29 71t69 30q64 0 99.5 -39t35.5 -109q0 -108 -78 -202.5t-203 -135.5l-18 33q96 53 151.5 116t55.5 117q0 13 -1 19.5t-3 11.5z" />
    <glyph glyph-name="quotedblbase" unicode="&#x201e;" horiz-adv-x="881" 
d="M512 4q-9 -3 -18.5 -4.5t-18.5 -1.5q-47 0 -73.5 25t-26.5 69q0 41 29 71t69 30q64 0 99.5 -39t35.5 -109q0 -108 -77 -202.5t-201 -135.5l-21 33q97 53 153 116.5t56 116.5q0 8 -1.5 15.5t-4.5 15.5zM94 4q-9 -3 -18.5 -4.5t-18.5 -1.5q-46 0 -73 25t-27 69q0 41 29 71
t69 30q64 0 99.5 -39t35.5 -109q0 -108 -77.5 -202.5t-202.5 -135.5l-19 33q96 53 151.5 116t55.5 117q0 14 -1 20t-3 11z" />
    <glyph glyph-name="perthousand" unicode="&#x2030;" horiz-adv-x="2542" 
d="M1909 229q0 -104 41.5 -156.5t126.5 -52.5q121 0 214 138.5t93 333.5q0 105 -45.5 168t-118.5 63q-61 0 -113.5 -40.5t-99.5 -123.5q-45 -81 -71.5 -171.5t-26.5 -158.5zM2066 -35q-138 0 -222.5 88t-84.5 234q0 197 131 340t308 143q108 0 166.5 -75t58.5 -214
q0 -207 -109.5 -361.5t-247.5 -154.5zM1130 229q0 -104 42 -156.5t126 -52.5q122 0 214 138.5t92 333.5q0 105 -45.5 168t-118.5 63q-61 0 -113.5 -40.5t-99.5 -123.5q-44 -79 -70.5 -169.5t-26.5 -160.5zM1286 -35q-138 0 -222.5 88t-84.5 234q0 197 131 340t307 143
q109 0 168.5 -75t59.5 -214q0 -207 -110.5 -361.5t-248.5 -154.5zM268 836q0 -79 45.5 -129t116.5 -50q121 0 214 138t93 325q0 104 -45.5 170t-113.5 66q-51 0 -99 -29.5t-84 -83.5q-61 -94 -94 -198.5t-33 -208.5zM461 -102h-88l811 1386q-54 -35 -114.5 -52.5
t-131.5 -17.5q-49 0 -93 10t-85 29q10 -36 15 -71.5t5 -69.5q0 -66 -17 -137t-48 -131q-59 -118 -137 -176t-179 -58q-123 0 -201.5 87.5t-78.5 226.5q0 96 37.5 187t105.5 161q63 64 139 98.5t154 34.5q48 0 87 -14.5t87 -53.5q50 -40 97.5 -56.5t107.5 -16.5
q116 0 217 56.5t154 152.5h73z" />
    <glyph glyph-name="Acircumflex" unicode="&#xc2;" horiz-adv-x="1341" 
d="M827 563h-413q-184 -266 -232.5 -349.5t-48.5 -117.5q0 -29 36 -46t99 -17q9 0 16 -6t7 -13q0 -10 -7.5 -15t-21.5 -5q-6 0 -74 6t-129 6q-52 0 -111.5 -7t-66.5 -7q-10 0 -18 6t-8 14q0 12 33 23h1q58 14 99 44t75 79l789 1114l25 37q66 98 145 98q6 0 11 -10t5 -27v-10
l-49 -1172v-24q0 -55 16.5 -80t59.5 -37q17 -5 48 -9q44 -6 44 -22q0 -11 -8 -15.5t-29 -4.5q-4 0 -21 1q-102 9 -204 9q-72 0 -150.5 -6t-85.5 -6q-18 0 -26 4t-8 14q0 11 8 15.5t39 7.5l18 3q39 6 61 13q56 18 62 135v9zM457 627h372l25 553zM1247 1515h-45l-174 244
l-270 -244h-54l283 348h104z" />
    <glyph glyph-name="Ecircumflex" unicode="&#xca;" horiz-adv-x="1360" 
d="M408 1133q14 53 19 77.5t5 42.5q0 37 -21 55t-71 23q-4 1 -8.5 1.5t-12.5 0.5q-32 2 -41.5 6.5t-9.5 14.5q0 8 13 14t32 6q14 0 119 -7t195 -7q231 0 373 2t223 6v-18q0 -81 11 -165.5t11 -86.5q0 -19 -5 -30t-13 -11q-20 0 -35.5 53t-28.5 78q-37 70 -98.5 97.5
t-261.5 27.5h-144l-22 -71.5l-35 -117.5l-104 -364h104q107 0 156.5 18.5t83.5 65.5q25 34 46.5 90.5t37.5 56.5q7 0 10.5 -7t3.5 -21q0 -9 -23.5 -94.5t-35.5 -161.5q-10 -55 -21 -135q-17 -117 -37 -117q-10 0 -16 5.5t-6 14.5q0 7 1 22t1 23q0 113 -38.5 152t-150.5 39
h-129l-121 -460q-7 -24 -10.5 -50.5t-3.5 -55.5q0 -56 43.5 -78t177.5 -22q190 0 272.5 28.5t143.5 96.5q45 50 76 116t47 66q8 0 13 -6t5 -18q0 -9 -30.5 -119t-55.5 -213q-133 0 -403.5 5t-407.5 5q-126 0 -237 -12q-15 -2 -19 -2q-18 0 -29.5 6t-11.5 16q0 20 49 27h3
q19 2 36.5 5.5t32.5 8.5q35 13 54.5 41t44.5 115zM1098 1515h-45l-174 244l-270 -244h-54l283 348h104z" />
    <glyph glyph-name="Aacute" unicode="&#xc1;" horiz-adv-x="1341" 
d="M827 563h-413q-184 -266 -232.5 -349.5t-48.5 -117.5q0 -29 36 -46t99 -17q9 0 16 -6t7 -13q0 -10 -7.5 -15t-21.5 -5q-6 0 -74 6t-129 6q-52 0 -111.5 -7t-66.5 -7q-10 0 -18 6t-8 14q0 12 33 23h1q58 14 99 44t75 79l789 1114l25 37q66 98 145 98q6 0 11 -10t5 -27v-10
l-49 -1172v-24q0 -55 16.5 -80t59.5 -37q17 -5 48 -9q44 -6 44 -22q0 -11 -8 -15.5t-29 -4.5q-4 0 -21 1q-102 9 -204 9q-72 0 -150.5 -6t-85.5 -6q-18 0 -26 4t-8 14q0 11 8 15.5t39 7.5l18 3q39 6 61 13q56 18 62 135v9zM457 627h372l25 553zM909 1515h-57l262 301
q28 32 45.5 44t34.5 12q19 0 33 -16t14 -38q0 -30 -60 -80l-1 -1z" />
    <glyph glyph-name="Edieresis" unicode="&#xcb;" horiz-adv-x="1360" 
d="M408 1133q14 53 19 77.5t5 42.5q0 37 -21 55t-71 23q-4 1 -8.5 1.5t-12.5 0.5q-32 2 -41.5 6.5t-9.5 14.5q0 8 13 14t32 6q14 0 119 -7t195 -7q231 0 373 2t223 6v-18q0 -81 11 -165.5t11 -86.5q0 -19 -5 -30t-13 -11q-20 0 -35.5 53t-28.5 78q-37 70 -98.5 97.5
t-261.5 27.5h-144l-22 -71.5l-35 -117.5l-104 -364h104q107 0 156.5 18.5t83.5 65.5q25 34 46.5 90.5t37.5 56.5q7 0 10.5 -7t3.5 -21q0 -9 -23.5 -94.5t-35.5 -161.5q-10 -55 -21 -135q-17 -117 -37 -117q-10 0 -16 5.5t-6 14.5q0 7 1 22t1 23q0 113 -38.5 152t-150.5 39
h-129l-121 -460q-7 -24 -10.5 -50.5t-3.5 -55.5q0 -56 43.5 -78t177.5 -22q190 0 272.5 28.5t143.5 96.5q45 50 76 116t47 66q8 0 13 -6t5 -18q0 -9 -30.5 -119t-55.5 -213q-133 0 -403.5 5t-407.5 5q-126 0 -237 -12q-15 -2 -19 -2q-18 0 -29.5 6t-11.5 16q0 20 49 27h3
q19 2 36.5 5.5t32.5 8.5q35 13 54.5 41t44.5 115zM580 1667q0 33 26.5 59.5t59.5 26.5q36 0 62 -25.5t26 -60.5q0 -38 -25.5 -64t-62.5 -26q-35 0 -60.5 26.5t-25.5 63.5zM963 1667q0 33 26.5 59.5t59.5 26.5q35 0 60.5 -25.5t25.5 -60.5q0 -39 -24.5 -64.5t-61.5 -25.5
q-35 0 -60.5 26.5t-25.5 63.5z" />
    <glyph glyph-name="Egrave" unicode="&#xc8;" horiz-adv-x="1360" 
d="M408 1133q14 53 19 77.5t5 42.5q0 37 -21 55t-71 23q-4 1 -8.5 1.5t-12.5 0.5q-32 2 -41.5 6.5t-9.5 14.5q0 8 13 14t32 6q14 0 119 -7t195 -7q231 0 373 2t223 6v-18q0 -81 11 -165.5t11 -86.5q0 -19 -5 -30t-13 -11q-20 0 -35.5 53t-28.5 78q-37 70 -98.5 97.5
t-261.5 27.5h-144l-22 -71.5l-35 -117.5l-104 -364h104q107 0 156.5 18.5t83.5 65.5q25 34 46.5 90.5t37.5 56.5q7 0 10.5 -7t3.5 -21q0 -9 -23.5 -94.5t-35.5 -161.5q-10 -55 -21 -135q-17 -117 -37 -117q-10 0 -16 5.5t-6 14.5q0 7 1 22t1 23q0 113 -38.5 152t-150.5 39
h-129l-121 -460q-7 -24 -10.5 -50.5t-3.5 -55.5q0 -56 43.5 -78t177.5 -22q190 0 272.5 28.5t143.5 96.5q45 50 76 116t47 66q8 0 13 -6t5 -18q0 -9 -30.5 -119t-55.5 -213q-133 0 -403.5 5t-407.5 5q-126 0 -237 -12q-15 -2 -19 -2q-18 0 -29.5 6t-11.5 16q0 20 49 27h3
q19 2 36.5 5.5t32.5 8.5q35 13 54.5 41t44.5 115zM975 1515h-55l-225 221l-15 15q-45 43 -45 69q0 22 14.5 36t38.5 14q19 0 33.5 -10t30.5 -31z" />
    <glyph glyph-name="Iacute" unicode="&#xcd;" horiz-adv-x="782" 
d="M373 219q-8 -27 -12.5 -53t-4.5 -45q0 -29 12 -47.5t35 -24.5q28 -8 68 -13q43 -5 43 -24q0 -6 -8 -13t-17 -7q-3 0 -24 2q-124 12 -252 12q-89 0 -186 -12q-21 -2 -27 -2q-19 0 -30 6t-11 16q0 20 46 26q2 1 3 1q19 2 36.5 5.5t32.5 8.5q37 14 57.5 43t43.5 113l254 922
q15 53 20 77.5t5 42.5q0 37 -21 55t-71 23q-8 1 -22 2q-50 4 -50 21q0 8 12.5 14t32.5 6q4 0 21 -1q104 -7 210 -7q109 0 220 9q19 1 24 1q17 0 28 -6t11 -14q0 -20 -47 -23t-74 -14q-31 -12 -49 -35t-35 -82zM541 1515h-57l262 301q28 32 45.5 44t34.5 12q19 0 33 -16
t14 -38q0 -30 -60 -80l-1 -1z" />
    <glyph glyph-name="Icircumflex" unicode="&#xce;" horiz-adv-x="782" 
d="M373 219q-8 -27 -12.5 -53t-4.5 -45q0 -29 12 -47.5t35 -24.5q28 -8 68 -13q43 -5 43 -24q0 -6 -8 -13t-17 -7q-3 0 -24 2q-124 12 -252 12q-89 0 -186 -12q-21 -2 -27 -2q-19 0 -30 6t-11 16q0 20 46 26q2 1 3 1q19 2 36.5 5.5t32.5 8.5q37 14 57.5 43t43.5 113l254 922
q15 53 20 77.5t5 42.5q0 37 -21 55t-71 23q-8 1 -22 2q-50 4 -50 21q0 8 12.5 14t32.5 6q4 0 21 -1q104 -7 210 -7q109 0 220 9q19 1 24 1q17 0 28 -6t11 -14q0 -20 -47 -23t-74 -14q-31 -12 -49 -35t-35 -82zM879 1515h-45l-174 244l-270 -244h-54l283 348h104z" />
    <glyph glyph-name="Idieresis" unicode="&#xcf;" horiz-adv-x="782" 
d="M373 219q-8 -27 -12.5 -53t-4.5 -45q0 -29 12 -47.5t35 -24.5q28 -8 68 -13q43 -5 43 -24q0 -6 -8 -13t-17 -7q-3 0 -24 2q-124 12 -252 12q-89 0 -186 -12q-21 -2 -27 -2q-19 0 -30 6t-11 16q0 20 46 26q2 1 3 1q19 2 36.5 5.5t32.5 8.5q37 14 57.5 43t43.5 113l254 922
q15 53 20 77.5t5 42.5q0 37 -21 55t-71 23q-8 1 -22 2q-50 4 -50 21q0 8 12.5 14t32.5 6q4 0 21 -1q104 -7 210 -7q109 0 220 9q19 1 24 1q17 0 28 -6t11 -14q0 -20 -47 -23t-74 -14q-31 -12 -49 -35t-35 -82zM361 1667q0 33 26.5 59.5t59.5 26.5q36 0 62 -25.5t26 -60.5
q0 -38 -25.5 -64t-62.5 -26q-35 0 -60.5 26.5t-25.5 63.5zM744 1667q0 33 26.5 59.5t59.5 26.5q35 0 60.5 -25.5t25.5 -60.5q0 -39 -24.5 -64.5t-61.5 -25.5q-35 0 -60.5 26.5t-25.5 63.5z" />
    <glyph glyph-name="Igrave" unicode="&#xcc;" horiz-adv-x="782" 
d="M373 219q-8 -27 -12.5 -53t-4.5 -45q0 -29 12 -47.5t35 -24.5q28 -8 68 -13q43 -5 43 -24q0 -6 -8 -13t-17 -7q-3 0 -24 2q-124 12 -252 12q-89 0 -186 -12q-21 -2 -27 -2q-19 0 -30 6t-11 16q0 20 46 26q2 1 3 1q19 2 36.5 5.5t32.5 8.5q37 14 57.5 43t43.5 113l254 922
q15 53 20 77.5t5 42.5q0 37 -21 55t-71 23q-8 1 -22 2q-50 4 -50 21q0 8 12.5 14t32.5 6q4 0 21 -1q104 -7 210 -7q109 0 220 9q19 1 24 1q17 0 28 -6t11 -14q0 -20 -47 -23t-74 -14q-31 -12 -49 -35t-35 -82zM756 1515h-55l-225 221l-15 15q-45 43 -45 69q0 22 14.5 36
t38.5 14q19 0 33.5 -10t30.5 -31z" />
    <glyph glyph-name="Oacute" unicode="&#xd3;" horiz-adv-x="1460" 
d="M283 401q0 -187 75.5 -290t212.5 -103q133 0 244 96t207 293q73 149 112.5 305.5t39.5 294.5q0 169 -83 268t-223 99q-96 0 -184 -58t-170 -176q-105 -150 -168 -350t-63 -379zM578 -33q-232 0 -362 139t-130 390q0 198 75.5 376t221.5 324q99 101 226.5 155t264.5 54
q228 0 360 -144t132 -393q0 -185 -75.5 -364t-213.5 -320q-100 -103 -231.5 -160t-267.5 -57zM852 1515h-57l262 301q28 32 45.5 44t34.5 12q19 0 33 -16t14 -38q0 -30 -60 -80l-1 -1z" />
    <glyph glyph-name="Ocircumflex" unicode="&#xd4;" horiz-adv-x="1460" 
d="M283 401q0 -187 75.5 -290t212.5 -103q133 0 244 96t207 293q73 149 112.5 305.5t39.5 294.5q0 169 -83 268t-223 99q-96 0 -184 -58t-170 -176q-105 -150 -168 -350t-63 -379zM578 -33q-232 0 -362 139t-130 390q0 198 75.5 376t221.5 324q99 101 226.5 155t264.5 54
q228 0 360 -144t132 -393q0 -185 -75.5 -364t-213.5 -320q-100 -103 -231.5 -160t-267.5 -57zM1190 1515h-45l-174 244l-270 -244h-54l283 348h104z" />
    <glyph glyph-name="Ograve" unicode="&#xd2;" horiz-adv-x="1460" 
d="M283 401q0 -187 75.5 -290t212.5 -103q133 0 244 96t207 293q73 149 112.5 305.5t39.5 294.5q0 169 -83 268t-223 99q-96 0 -184 -58t-170 -176q-105 -150 -168 -350t-63 -379zM578 -33q-232 0 -362 139t-130 390q0 198 75.5 376t221.5 324q99 101 226.5 155t264.5 54
q228 0 360 -144t132 -393q0 -185 -75.5 -364t-213.5 -320q-100 -103 -231.5 -160t-267.5 -57zM1067 1515h-55l-225 221l-15 15q-45 43 -45 69q0 22 14.5 36t38.5 14q19 0 33.5 -10t30.5 -31z" />
    <glyph glyph-name="Uacute" unicode="&#xda;" horiz-adv-x="1577" 
d="M233 535l146 530q16 60 24.5 105.5t8.5 68.5q0 36 -12 53.5t-44 28.5q-21 7 -65.5 12t-44.5 21q0 9 11.5 15.5t29.5 6.5q3 0 20 -1q121 -9 250 -9q100 0 197 9q16 1 20 1q16 0 25.5 -5.5t9.5 -14.5q0 -20 -46 -26q-2 -1 -3 -1q-23 0 -40 -3.5t-32 -10.5q-31 -14 -54 -56
t-50 -137l-176 -633q-15 -54 -22 -99.5t-7 -82.5q0 -133 81.5 -204.5t233.5 -71.5q175 0 279 100.5t184 355.5t127 460.5t47 285.5q0 36 -17 59t-48 29q-14 3 -37 7q-4 1 -6 1q-33 4 -41 8.5t-8 14.5q0 11 9.5 17.5t26.5 6.5q2 0 14 -1t21 -1q32 -4 71.5 -6t84.5 -2
q73 0 155 8q20 2 25 2q15 0 25 -6.5t10 -15.5q0 -10 -8 -15.5t-33 -9.5q-4 -1 -11 -3q-41 -12 -67 -26q-31 -16 -55 -54.5t-41 -96.5l-144 -516q-60 -215 -110 -333t-103 -175q-76 -81 -173.5 -119.5t-229.5 -38.5q-213 0 -326.5 91t-113.5 261q0 49 8 103.5t24 112.5z
M940 1515h-57l262 301q28 32 45.5 44t34.5 12q19 0 33 -16t14 -38q0 -30 -60 -80l-1 -1z" />
    <glyph glyph-name="Ucircumflex" unicode="&#xdb;" horiz-adv-x="1577" 
d="M233 535l146 530q16 60 24.5 105.5t8.5 68.5q0 36 -12 53.5t-44 28.5q-21 7 -65.5 12t-44.5 21q0 9 11.5 15.5t29.5 6.5q3 0 20 -1q121 -9 250 -9q100 0 197 9q16 1 20 1q16 0 25.5 -5.5t9.5 -14.5q0 -20 -46 -26q-2 -1 -3 -1q-23 0 -40 -3.5t-32 -10.5q-31 -14 -54 -56
t-50 -137l-176 -633q-15 -54 -22 -99.5t-7 -82.5q0 -133 81.5 -204.5t233.5 -71.5q175 0 279 100.5t184 355.5t127 460.5t47 285.5q0 36 -17 59t-48 29q-14 3 -37 7q-4 1 -6 1q-33 4 -41 8.5t-8 14.5q0 11 9.5 17.5t26.5 6.5q2 0 14 -1t21 -1q32 -4 71.5 -6t84.5 -2
q73 0 155 8q20 2 25 2q15 0 25 -6.5t10 -15.5q0 -10 -8 -15.5t-33 -9.5q-4 -1 -11 -3q-41 -12 -67 -26q-31 -16 -55 -54.5t-41 -96.5l-144 -516q-60 -215 -110 -333t-103 -175q-76 -81 -173.5 -119.5t-229.5 -38.5q-213 0 -326.5 91t-113.5 261q0 49 8 103.5t24 112.5z
M1278 1515h-45l-174 244l-270 -244h-54l283 348h104z" />
    <glyph glyph-name="Ugrave" unicode="&#xd9;" horiz-adv-x="1577" 
d="M233 535l146 530q16 60 24.5 105.5t8.5 68.5q0 36 -12 53.5t-44 28.5q-21 7 -65.5 12t-44.5 21q0 9 11.5 15.5t29.5 6.5q3 0 20 -1q121 -9 250 -9q100 0 197 9q16 1 20 1q16 0 25.5 -5.5t9.5 -14.5q0 -20 -46 -26q-2 -1 -3 -1q-23 0 -40 -3.5t-32 -10.5q-31 -14 -54 -56
t-50 -137l-176 -633q-15 -54 -22 -99.5t-7 -82.5q0 -133 81.5 -204.5t233.5 -71.5q175 0 279 100.5t184 355.5t127 460.5t47 285.5q0 36 -17 59t-48 29q-14 3 -37 7q-4 1 -6 1q-33 4 -41 8.5t-8 14.5q0 11 9.5 17.5t26.5 6.5q2 0 14 -1t21 -1q32 -4 71.5 -6t84.5 -2
q73 0 155 8q20 2 25 2q15 0 25 -6.5t10 -15.5q0 -10 -8 -15.5t-33 -9.5q-4 -1 -11 -3q-41 -12 -67 -26q-31 -16 -55 -54.5t-41 -96.5l-144 -516q-60 -215 -110 -333t-103 -175q-76 -81 -173.5 -119.5t-229.5 -38.5q-213 0 -326.5 91t-113.5 261q0 49 8 103.5t24 112.5z
M1155 1515h-55l-225 221l-15 15q-45 43 -45 69q0 22 14.5 36t38.5 14q19 0 33.5 -10t30.5 -31z" />
    <glyph glyph-name="dotlessi" unicode="&#x131;" horiz-adv-x="559" 
d="M125 399l76 197q33 82 49 136.5t16 84.5q0 22 -10 35.5t-27 13.5q-40 0 -94 -67.5t-108 -186.5l-35 15q64 148 131 222.5t137 74.5q58 0 92.5 -40t34.5 -108q0 -48 -18 -117t-62 -186l-59 -158q-40 -106 -57 -161t-17 -78q0 -20 11 -32.5t28 -12.5q46 0 97 60.5
t128 209.5l29 -18q-69 -158 -140 -233t-151 -75q-59 0 -92 37t-33 103q0 51 17 117t57 167z" />
    <glyph glyph-name="circumflex" unicode="&#x2c6;" horiz-adv-x="1024" 
d="M897 1036h-45l-174 244l-270 -244h-54l283 348h104z" />
    <glyph glyph-name="tilde" unicode="&#x2dc;" horiz-adv-x="1024" 
d="M946 1303q-23 -93 -63.5 -137t-102.5 -44q-16 0 -32 2t-31 6l-131 35q-33 8 -49 10.5t-27 2.5q-38 0 -61 -19t-35 -61h-41q18 89 58 131.5t106 42.5q16 0 35 -3t42 -9l138 -35q13 -4 26.5 -6t26.5 -2q39 0 64.5 21.5t37.5 64.5h39z" />
    <glyph glyph-name="macron" unicode="&#x2c9;" horiz-adv-x="1024" 
d="M389 1133l23 106h512l-23 -106h-512z" />
    <glyph glyph-name="breve" unicode="&#x2d8;" horiz-adv-x="1024" 
d="M406 1343h47q11 -82 51.5 -120.5t116.5 -38.5q91 0 165 39t138 120h49q-79 -137 -166 -202.5t-191 -65.5q-105 0 -156 65t-54 203z" />
    <glyph glyph-name="dotaccent" unicode="&#x2d9;" horiz-adv-x="1024" 
d="M565 1188q0 35 28.5 63.5t63.5 28.5q37 0 65 -28t28 -64q0 -40 -26.5 -67t-66.5 -27q-37 0 -64.5 28t-27.5 66z" />
    <glyph glyph-name="ring" unicode="&#x2da;" horiz-adv-x="1024" 
d="M512 1249q0 -66 45 -110.5t113 -44.5q67 0 112 44.5t45 110.5q0 67 -45.5 112.5t-111.5 45.5q-68 0 -113 -45t-45 -113zM436 1249q0 98 68.5 166t167.5 68q98 0 165.5 -67.5t67.5 -166.5q0 -98 -67.5 -165.5t-165.5 -67.5q-99 0 -167.5 67.5t-68.5 165.5z" />
    <glyph glyph-name="cedilla" unicode="&#xb8;" horiz-adv-x="1024" 
d="M59 -371l27 64q65 -32 123 -50t98 -18q64 0 95.5 25t31.5 76q0 44 -31.5 68t-91.5 24q-21 0 -41 -2t-41 -6l97 190h55l-62 -121q2 0 6 1q30 3 46 3q79 0 125.5 -43t46.5 -116t-58.5 -118.5t-152.5 -45.5q-50 0 -112.5 15.5t-160.5 53.5z" />
    <glyph glyph-name="hungarumlaut" unicode="&#x2dd;" horiz-adv-x="1024" 
d="M862 1325q20 37 36 53.5t32 16.5q21 0 35 -15.5t14 -38.5q0 -12 -8.5 -27.5t-34.5 -47.5l-186 -230h-52zM614 1321q19 41 35 57.5t35 16.5q18 0 32.5 -15.5t14.5 -33.5q0 -16 -8.5 -35t-28.5 -45l-166 -230h-49z" />
    <glyph glyph-name="ogonek" unicode="&#x2db;" horiz-adv-x="1024" 
d="M520 31q-96 -73 -141 -140t-45 -137q0 -53 29.5 -86t76.5 -33q35 0 65.5 19t59.5 59l25 -14q-32 -66 -85.5 -102.5t-119.5 -36.5q-67 0 -109.5 41.5t-42.5 107.5q0 82 63.5 165.5t180.5 156.5h43z" />
    <glyph glyph-name="caron" unicode="&#x2c7;" horiz-adv-x="1024" 
d="M418 1384h43l174 -243l270 243h53l-280 -348h-107z" />
    <glyph glyph-name="Lslash" unicode="&#x141;" horiz-adv-x="1237" 
d="M371 220q-9 -30 -14 -57t-5 -42q0 -45 32 -60.5t163 -15.5q197 0 306 25.5t165 83.5q43 43 80 117.5t55 74.5q9 0 15 -8t6 -21q0 -1 -33.5 -106.5t-57.5 -216.5q-70 1 -190 4q-269 6 -307 6h-295q-90 0 -124.5 -0.5t-56.5 -1.5q-26 -2 -64.5 -6t-49.5 -4q-19 0 -30 6
t-11 16q0 20 48 27h3q19 2 36.5 5.5t32.5 8.5q35 13 54.5 40.5t44.5 115.5l107 387l-338 -192l18 69l338 195l129 463q15 53 20 77.5t5 42.5q0 37 -21 55t-71 23q-8 1 -22 2q-50 4 -50 21q0 8 12.5 14t32.5 6q4 0 21 -1q106 -7 212 -7q109 0 218 9q19 1 24 1q17 0 28 -6
t11 -14q0 -20 -47 -23t-74 -14q-31 -12 -49 -35t-35 -82l-115 -416l441 254l-23 -73l-438 -254z" />
    <glyph glyph-name="lslash" unicode="&#x142;" horiz-adv-x="569" 
d="M152 653l-250 -147l16 63l252 146l162 580q5 18 6.5 27.5t1.5 18.5q0 27 -20 38.5t-70 11.5q-12 0 -44 -4q-3 0 -5 -1l12 50l315 39l-186 -670l256 147l-18 -63l-256 -144l-144 -516q-11 -39 -16.5 -73.5t-5.5 -59.5q0 -36 12.5 -53.5t38.5 -17.5q47 0 104.5 72
t112.5 202l35 -16q-59 -159 -132 -235.5t-165 -76.5q-70 0 -107 37.5t-37 108.5q0 34 7.5 78.5t21.5 95.5z" />
    <glyph glyph-name="Scaron" unicode="&#x160;" horiz-adv-x="1124" 
d="M74 37q-10 0 -16.5 6t-6.5 14q0 12 11.5 69t17.5 100q7 46 12 114q6 82 31 82q19 0 26 -66q5 -46 11 -76q23 -119 113 -194.5t210 -75.5q118 0 191.5 73.5t73.5 190.5q0 75 -37.5 148t-110.5 143l-25 24q-309 295 -309 472q0 145 105.5 243.5t263.5 98.5q103 0 203.5 -49
t103.5 -49q15 0 34.5 23.5t31.5 23.5q10 0 16 -6.5t6 -16.5q0 -2 -16 -57.5t-27 -114.5q-8 -39 -15 -95q-8 -67 -28 -67q-10 1 -15 11t-5 30v23q0 137 -75 218t-200 81q-101 0 -166 -62t-65 -157q0 -63 41 -132.5t121 -140.5q210 -186 271.5 -285t61.5 -204
q0 -195 -110 -303.5t-309 -108.5q-67 0 -126.5 14t-109.5 41q-34 18 -74.5 44t-48.5 26q-12 0 -29 -26.5t-32 -26.5zM570 1863h43l174 -243l270 243h53l-280 -348h-107z" />
    <glyph glyph-name="scaron" unicode="&#x161;" horiz-adv-x="676" 
d="M168 -29q-105 0 -168 42.5t-63 111.5q0 32 18.5 55t44.5 23t41.5 -20t15.5 -52q0 -8 -3 -30t-3 -35q0 -24 35.5 -40t89.5 -16q89 0 141 43t52 115q0 50 -21 97t-92 136l-20 26q-125 159 -125 255q0 102 78 173t192 71q80 0 133 -36t53 -85q0 -30 -15 -46t-42 -16
q-24 0 -38.5 15t-14.5 39q0 7 2 20t2 19q0 22 -25 36.5t-65 14.5q-67 0 -109.5 -38t-42.5 -97q0 -57 92 -174l31 -39q81 -102 111 -168t30 -129q0 -119 -87.5 -195t-227.5 -76zM244 1384h43l174 -243l270 243h53l-280 -348h-107z" />
    <glyph glyph-name="Zcaron" unicode="&#x17d;" horiz-adv-x="1229" 
d="M13 48l937 1277h-235q-101 0 -170.5 -16t-116.5 -49q-65 -46 -122.5 -117.5t-69.5 -71.5q-9 0 -13 6t-4 21q0 12 44.5 100t76.5 164q5 3 13.5 4.5t27.5 1.5h774q20 0 26.5 -4t6.5 -14q0 -4 -1.5 -9t-4.5 -9l-942 -1283h272q188 0 289.5 39.5t179.5 138.5q22 27 47.5 71
t40.5 44q8 0 13 -4.5t5 -11.5q0 -11 -43.5 -120.5l-77.5 -199.5q-13 -3 -24 -4.5t-18 -1.5h-871q-32 0 -42.5 4t-10.5 14q0 3 4 12.5t9 17.5zM623 1863h43l174 -243l270 243h53l-280 -348h-107z" />
    <glyph glyph-name="zcaron" unicode="&#x17e;" horiz-adv-x="786" 
d="M16 84l500 692q-39 -14 -72.5 -21t-64.5 -7q-45 0 -103 19t-75 19q-37 0 -53.5 -25t-18.5 -83l-35 -2q-6 19 -9 35t-3 30q0 73 50 121.5t124 48.5q53 0 132 -52t120 -52q34 0 52 14.5t26 48.5q0 3 2 10q11 50 45 50q13 0 23 -10.5t10 -24.5q0 -26 -34 -61
q-14 -15 -19 -22l-471 -656q32 7 61.5 10.5t56.5 3.5q70 0 163.5 -22.5t119.5 -22.5q55 0 80.5 30t25.5 95v8h35q3 -31 4.5 -53t1.5 -37q0 -87 -52 -135.5t-146 -48.5q-91 0 -180 62q-8 6 -13 9q-52 35 -85.5 48.5t-63.5 13.5q-36 0 -60.5 -19.5t-34.5 -54.5q-2 -7 -4 -19
q-11 -47 -41 -47q-18 0 -25.5 8t-7.5 27q0 24 28 57q7 9 11 15zM299 1384h43l174 -243l270 243h53l-280 -348h-107z" />
    <glyph glyph-name="brokenbar" unicode="&#xa6;" horiz-adv-x="1024" 
d="M449 408h126v-758h-126v758zM449 1432h126v-758h-126v758z" />
    <glyph glyph-name="Eth" unicode="&#xd0;" horiz-adv-x="1475" 
d="M637 1188l-125 -455h330l-17 -51h-329l-115 -410q-8 -29 -12 -59t-4 -59q0 -58 42 -80.5t162 -22.5q154 0 272.5 69t190.5 199q71 127 110.5 278.5t39.5 297.5q0 199 -107.5 311.5t-298.5 112.5q-60 0 -87.5 -22.5t-51.5 -108.5zM424 1122q1 4 3 11q17 62 17 94
q0 36 -16 54t-52 22q-6 0 -19 1q-84 7 -85 27q0 23 97.5 33t326.5 10q334 0 512 -148t178 -423q0 -155 -54 -296t-156 -255q-121 -134 -269 -193t-366 -59q-56 0 -153 4t-136 4q-113 0 -228 -13q-24 -3 -30 -3q-19 0 -30 6t-11 16q0 20 48 27h3q19 2 36.5 5.5t32.5 8.5
q35 13 55 41t44 115l129 471h-309l18 51h309z" />
    <glyph glyph-name="eth" unicode="&#xf0;" horiz-adv-x="838" 
d="M549 809q-15 78 -45.5 154.5t-75.5 150.5l-293 -143l-24 49l284 141q-69 97 -157 178.5t-88 96.5q0 5 3.5 8.5t8.5 3.5q36 0 117.5 -69.5t181.5 -186.5l301 145l24 -47l-290 -145q100 -139 148 -280.5t48 -297.5q0 -254 -123.5 -425t-302.5 -171q-117 0 -180 73.5
t-63 209.5q0 99 34.5 199t100.5 192q62 86 140 134t153 48q20 0 44.5 -4.5t53.5 -13.5zM143 168q0 -78 34.5 -121t96.5 -43q67 0 117.5 54t95.5 173q39 103 60.5 205t21.5 180q0 83 -31 127.5t-87 44.5q-57 0 -108 -49.5t-95 -146.5q-47 -103 -76 -222.5t-29 -201.5z" />
    <glyph glyph-name="Yacute" unicode="&#xdd;" horiz-adv-x="1110" 
d="M514 221q-8 -28 -12 -54t-4 -44q0 -30 14 -49t41 -25q32 -8 81 -12q52 -5 52 -25q0 -6 -9.5 -13t-21.5 -7q-3 0 -23 2q-127 12 -265 12q-103 0 -212 -12q-24 -2 -30 -2q-22 0 -34.5 6t-12.5 16q0 20 49 26q3 1 4 1h4q49 5 78 14q41 14 62 41.5t44 114.5l105 389l-166 631
q-9 33 -23 54t-35 30q-18 8 -58 12.5t-40 22.5q0 10 14.5 16t39.5 6q7 0 29 -1t36 -1q38 -4 71.5 -6t65.5 -2q80 0 173 7q15 1 19 1q7 1 13 1.5t12 0.5q18 0 26.5 -5t8.5 -15q0 -19 -51 -24q-33 -3 -51 -7q-32 -8 -44.5 -23t-12.5 -45q0 -15 3.5 -37.5t10.5 -48.5l135 -512
l115 131q175 200 254.5 313t79.5 163q0 25 -17 40t-55 23q-15 3 -38 4q-40 4 -40 19q0 11 8.5 17.5t24.5 6.5q6 0 11.5 -0.5t11.5 -1.5q25 -4 63.5 -6t85.5 -2q48 0 87 1t63 3q4 1 8 1.5t10 0.5q16 0 25.5 -5.5t9.5 -14.5q0 -15 -37 -23q-19 -4 -31 -8q-32 -10 -110 -107
l-29 -36l-488 -594zM704 1515h-57l262 301q28 32 45.5 44t34.5 12q19 0 33 -16t14 -38q0 -30 -60 -80l-1 -1z" />
    <glyph glyph-name="yacute" unicode="&#xfd;" horiz-adv-x="786" 
d="M-2 528q0 11 -1 31t-1 29q0 160 44 249t124 89q106 0 182.5 -238.5t87.5 -625.5q84 155 128 292t44 244q0 67 -12.5 106.5t-52.5 83.5q-23 25 -32 42t-9 32q0 26 20 45t49 19q50 0 72.5 -48t22.5 -163q0 -234 -100 -495t-281 -499q-101 -130 -206 -207t-179 -77
q-46 0 -66 17t-20 54q0 34 25 53t71 19h13q6 -1 16.5 -1.5t37.5 -0.5q71 0 115 19t96 75q74 77 103.5 151.5t29.5 180.5q0 152 -27 310.5t-79 308.5q-37 108 -61 147t-50 39q-32 0 -45.5 -56.5t-17.5 -223.5zM440 1036h-57l262 301q28 32 45.5 44t34.5 12q19 0 33 -16
t14 -38q0 -30 -60 -80l-1 -1z" />
    <glyph glyph-name="Thorn" unicode="&#xde;" horiz-adv-x="1262" 
d="M627 1157l-25 -96h78q278 0 399 -72.5t121 -236.5q0 -196 -155.5 -307t-432.5 -111q-43 0 -96.5 3t-114.5 9l-34 -126q-8 -30 -12.5 -56.5t-4.5 -42.5q0 -29 12 -47.5t35 -24.5q28 -8 68 -13q43 -5 43 -24q0 -6 -8 -13t-17 -7q-4 0 -24 2q-122 12 -252 12q-89 0 -185 -11
q-22 -3 -28 -3q-19 0 -30 6t-11 16q0 20 46 26q2 1 3 1q19 2 36.5 5.5t32.5 8.5q37 14 57.5 43t43.5 113l254 922q15 53 20 77.5t5 42.5q0 37 -21.5 55t-70.5 23q-8 1 -22 2q-50 4 -50 21q0 8 12.5 14t32.5 6q5 0 30 -1q146 -9 289 -9q43 0 94 6t60 6q18 0 29.5 -6t11.5 -16
q0 -20 -48 -26t-73 -15q-37 -13 -57.5 -44t-40.5 -112zM414 392q51 -4 89.5 -5.5t65.5 -1.5q200 0 316 106.5t116 286.5q0 113 -71 177.5t-197 64.5q-97 0 -126.5 -25.5t-57.5 -122.5z" />
    <glyph glyph-name="thorn" unicode="&#xfe;" horiz-adv-x="1010" 
d="M268 170q0 -73 29.5 -114.5t81.5 -41.5q59 0 118 52t111 151q30 56 56.5 125.5t48.5 151.5q19 69 29 126t10 99q0 74 -29 113.5t-82 39.5q-51 0 -104 -46t-111 -142q-73 -123 -115.5 -261.5t-42.5 -252.5zM133 -326q-12 -47 -18 -79t-6 -48q0 -37 28 -52.5t112 -20.5
l-13 -37h-451l8 34q84 2 121.5 37t77.5 187l416 1599q4 14 6 25.5t2 21.5q0 27 -20 38.5t-70 11.5q-13 0 -44 -4q-3 0 -6 -1l13 50l315 39l-190 -738q64 96 127.5 141.5t132.5 45.5q100 0 160.5 -78.5t60.5 -210.5q0 -112 -46.5 -239.5t-127.5 -235.5q-72 -95 -154 -143
t-172 -48q-57 0 -96.5 26.5t-60.5 78.5z" />
    <glyph glyph-name="minus" unicode="&#x2212;" horiz-adv-x="1706" 
d="M254 670h1198v-119h-1198v119z" />
    <glyph glyph-name="multiply" unicode="&#xd7;" horiz-adv-x="1706" 
d="M381 1169l477 -477l475 477l82 -82l-475 -477l475 -475l-82 -82l-475 475l-477 -475l-80 82l475 475l-475 477z" />
    <glyph glyph-name="onesuperior" unicode="&#xb9;" horiz-adv-x="739" 
d="M246 701l153 525q5 18 7 27t2 15q0 24 -18.5 33.5t-74.5 9.5q-9 0 -21 -1t-13 -1q-10 0 -14.5 3.5t-4.5 10.5q0 6 6 9t19 3q121 0 240 54q18 8 20 8q4 0 8 -3t4 -5t-4.5 -15t-7.5 -26l-195 -664q-6 -23 -10 -43t-4 -29q0 -17 12.5 -25t59.5 -14q8 0 22 -1q37 -3 37 -19
q0 -3 -5 -5.5t-13 -2.5q-5 0 -25 1q-89 5 -172 5t-161 -5q-11 -1 -13 -1q-10 0 -14 2.5t-5 9.5q0 11 44 16q26 2 43 5q65 9 91 100q4 14 7 23z" />
    <glyph glyph-name="twosuperior" unicode="&#xb2;" horiz-adv-x="737" 
d="M35 547q-7 0 -17 -1t-14 -1q-12 0 -18 3t-6 9t4 12.5t14 14.5l317 272q140 117 184 180t44 127q0 70 -43 109t-121 39q-85 0 -138 -47.5t-53 -122.5q0 -14 2.5 -30t2.5 -19q-1 -11 -3 -13.5t-10 -3.5q-14 0 -22 26t-8 75q0 92 72.5 152.5t187.5 60.5q113 0 182.5 -59.5
t69.5 -155.5q0 -70 -45.5 -132.5t-161.5 -146.5l-89 -63q-176 -122 -272 -201h45h70q124 0 198 3t99 9q26 9 54 52.5t40 43.5q5 0 8.5 -3.5t3.5 -8.5t-23 -47t-38 -82q-3 -7 -7 -18q-14 -35 -34 -35q-7 0 -24.5 1t-26.5 1h-424z" />
    <glyph glyph-name="threesuperior" unicode="&#xb3;" horiz-adv-x="737" 
d="M432 1042q62 -10 97.5 -49t35.5 -96q0 -71 -44 -139.5t-122 -116.5q-37 -24 -80 -42t-112 -38q-57 -16 -113.5 -25.5t-91.5 -9.5q-18 0 -27.5 3t-9.5 10q0 8 9 12t46 8h2q77 11 134 27q136 37 215.5 116t79.5 177q0 58 -38.5 88t-113.5 30q-29 0 -67 -10t-46 -10
q-11 0 -17.5 4.5t-6.5 11.5q0 17 59 24q57 6 94 15q110 26 167 71t57 105q0 42 -33.5 65t-93.5 23q-70 0 -151 -26q-19 -6 -23 -6q-6 0 -9.5 2t-3.5 6q0 25 8 51t15 31q11 11 65 24t111 13q94 0 149.5 -39.5t55.5 -106.5q0 -59 -47 -107.5t-150 -95.5z" />
    <glyph glyph-name="onehalf" unicode="&#xbd;" horiz-adv-x="1751" 
d="M1079 0q-5 0 -15 -1t-13 -1q-12 0 -17.5 3t-5.5 9q0 4 4 10t12 15l304 254q134 109 175.5 167.5t41.5 118.5q0 65 -41.5 101.5t-114.5 36.5q-81 0 -131.5 -44t-50.5 -114q0 -13 2 -28.5t2 -18.5q0 -8 -2.5 -11t-9.5 -3q-15 0 -22 23t-7 69q0 87 69.5 143.5t178.5 56.5
q108 0 173.5 -55t65.5 -145q0 -66 -42 -123.5t-154 -136.5l-92 -64q-164 -113 -252 -182h43h65q137 0 201 2.5t84 7.5q25 8 51.5 48t38.5 40q5 0 7.5 -2.5t2.5 -7.5t-22 -44t-37 -77q-2 -5 -5 -14q-13 -35 -32 -35q-7 0 -24 1t-25 1h-406zM362 -33l941 1436h83l-937 -1436
h-87zM236 746l147 491q3 9 4.5 18.5t1.5 18.5q0 23 -17.5 32t-70.5 9q-8 0 -19.5 -1t-13.5 -1q-9 0 -13.5 3t-4.5 9t6 9t18 3q117 0 229 52q17 8 19 8q6 0 9.5 -2.5t3.5 -5.5q0 -2 -4.5 -14.5t-8.5 -25.5l-184 -618q-7 -25 -10.5 -42.5t-3.5 -24.5q0 -17 11.5 -24.5
t55.5 -12.5q9 -1 23 -2q34 -2 35 -17q0 -3 -5.5 -5.5t-13.5 -2.5q-4 0 -24 1q-84 5 -162 5q-79 0 -153 -5q-13 -1 -15 -1q-8 0 -12.5 3t-4.5 7q0 12 52 18q20 1 33 3q58 7 84 91z" />
    <glyph glyph-name="onequarter" unicode="&#xbc;" horiz-adv-x="1751" 
d="M1325 -8l86 280h-297q-34 0 -42.5 2t-8.5 7q0 6 2.5 10t7.5 8l551 473q15 15 20.5 19t10.5 4q6 0 10 -3t4 -8q0 -12 -19 -64.5t-30 -90.5l-94 -316h49q24 0 51.5 5.5t28.5 5.5q3 -1 3.5 -2t0.5 -7q0 -20 -9.5 -32.5t-25.5 -12.5h-113l-75 -270zM1139 313h286l101 330
q-165 -129 -258.5 -209t-128.5 -121zM362 -33l941 1436h83l-937 -1436h-87zM236 746l147 491q3 9 4.5 18.5t1.5 18.5q0 23 -17.5 32t-70.5 9q-8 0 -19.5 -1t-13.5 -1q-9 0 -13.5 3t-4.5 9t6 9t18 3q117 0 229 52q17 8 19 8q6 0 9.5 -2.5t3.5 -5.5q0 -2 -4.5 -14.5
t-8.5 -25.5l-184 -618q-7 -25 -10.5 -42.5t-3.5 -24.5q0 -17 11.5 -24.5t55.5 -12.5q9 -1 23 -2q34 -2 35 -17q0 -3 -5.5 -5.5t-13.5 -2.5q-4 0 -24 1q-84 5 -162 5q-79 0 -153 -5q-13 -1 -15 -1q-8 0 -12.5 3t-4.5 7q0 12 52 18q20 1 33 3q58 7 84 91z" />
    <glyph glyph-name="threequarters" unicode="&#xbe;" horiz-adv-x="1751" 
d="M1325 -8l86 280h-297q-34 0 -42.5 2t-8.5 7q0 6 2.5 10t7.5 8l551 473q15 15 20.5 19t10.5 4q6 0 10 -3t4 -8q0 -12 -19 -64.5t-30 -90.5l-94 -316h49q24 0 51.5 5.5t28.5 5.5q3 -1 3.5 -2t0.5 -7q0 -20 -9.5 -32.5t-25.5 -12.5h-113l-75 -270zM1139 313h286l101 330
q-165 -129 -258.5 -209t-128.5 -121zM362 -33l941 1436h83l-937 -1436h-87zM414 1065q58 -10 91.5 -46t33.5 -89q0 -67 -42 -130.5t-116 -109.5q-32 -21 -71 -37.5t-113 -38.5q-56 -15 -109.5 -23.5t-85.5 -8.5q-17 0 -26 3.5t-9 10.5t8 10.5t43 7.5q28 2 61 8t68 15
q131 36 207 110t76 164q0 55 -37 83t-108 28q-28 0 -63.5 -9t-43.5 -9q-12 0 -18 3.5t-6 10.5q0 17 58 23q55 6 89 14q104 24 158.5 65.5t54.5 98.5q0 39 -32 61.5t-89 22.5q-66 0 -145 -27q-19 -6 -23 -6t-7 3t-3 5q0 23 7.5 47.5t13.5 30.5q12 10 63.5 21.5t106.5 11.5
q90 0 142 -36t52 -98q0 -56 -44.5 -101.5t-141.5 -88.5z" />
    <glyph glyph-name="franc" unicode="&#x20a3;" horiz-adv-x="2015" 
d="M373 219q-8 -28 -12.5 -53t-4.5 -45q0 -30 14 -50t40 -26q28 -7 73 -9q49 -3 49 -24q0 -7 -10 -13.5t-24 -6.5q-4 0 -25 2q-127 12 -260 12q-93 0 -189 -12q-19 -2 -24 -2q-19 0 -30 6t-11 16q0 20 46 26q2 1 3 1q19 2 36.5 5.5t32.5 8.5q37 14 57.5 43t43.5 113l254 922
q15 53 20 77.5t5 42.5q0 37 -21 55t-71 23q-4 1 -8.5 1.5t-12.5 0.5q-33 2 -42 6.5t-9 14.5q0 8 12.5 14t32.5 6q6 0 37 -2q180 -12 366 -12q178 0 296 2t196 6v-18q0 -82 10 -166t10 -86q0 -19 -5 -30t-13 -11q-20 0 -35 53t-29 78q-37 71 -98 98t-260 27h-129l-23 -71.5
t-34 -117.5l-105 -364h105q106 0 156 18.5t83 65.5q26 35 46 91t36 56q8 0 12.5 -7.5t4.5 -20.5q0 -9 -23 -94t-37 -163q-9 -53 -20 -133q-17 -118 -37 -118q-11 0 -18 5.5t-7 14.5q0 7 2 22t2 23q0 113 -38.5 152t-149.5 39h-129zM1454 0h-147q97 266 141.5 453.5
t44.5 326.5q0 39 -12 60.5t-33 21.5q-37 0 -86.5 -67.5t-108.5 -200.5l-36 12q71 168 135.5 244t136.5 76q60 0 91.5 -47t31.5 -136q0 -38 -6 -90t-19 -118q84 208 160 299.5t164 91.5q44 0 70 -26t26 -71q0 -33 -20 -56t-49 -23q-34 0 -50 15.5t-16 49.5q0 2 1 8t1 8
q0 17 -6 22t-23 5q-51 0 -121 -126t-147 -357z" />
    <glyph glyph-name="Gbreve" unicode="&#x11e;" horiz-adv-x="1460" 
d="M1174 80q-6 0 -15.5 1t-13.5 1q-44 0 -91 -9.5t-112 -31.5q-15 -5 -47 -17q-155 -57 -279 -57q-250 0 -391 139.5t-141 385.5q0 167 65 335t183 303q117 136 255.5 205.5t289.5 69.5q155 0 306 -93q39 -24 50 -24q13 0 32.5 27.5t32.5 27.5q9 0 15 -6t6 -16
q0 -16 -18.5 -83t-26.5 -119q-5 -30 -11 -77q-9 -75 -34 -75q-12 0 -18.5 10t-6.5 29q0 3 1 14t1 20q0 153 -82 237.5t-231 84.5q-96 0 -183.5 -49.5t-166.5 -149.5q-114 -143 -183 -346.5t-69 -396.5q0 -200 88.5 -307t253.5 -107q187 0 289 102.5t102 290.5q0 55 -12.5 73
t-53.5 26q-19 3 -52 5q-54 3 -54 25q0 11 10.5 16t32.5 5q21 0 122.5 -8.5t182.5 -8.5q55 0 112 5.5t58 5.5q17 0 26 -6t9 -17q0 -17 -41 -19q-22 -2 -32 -3q-47 -7 -70 -28t-31 -64zM725 1822h47q11 -82 51.5 -120.5t116.5 -38.5q91 0 165 39t138 120h49
q-79 -137 -166 -202.5t-191 -65.5q-105 0 -156 65t-54 203z" />
    <glyph glyph-name="gbreve" unicode="&#x11f;" horiz-adv-x="1006" 
d="M236 276q-71 40 -103.5 96t-32.5 138q0 174 112 294t273 120q67 0 120.5 -24t92.5 -71q57 45 95 62.5t73 17.5q49 0 79 -29.5t30 -78.5q0 -36 -17.5 -57t-48.5 -21q-26 0 -42.5 16t-16.5 41v8q0 25 -9 38.5t-26 13.5t-36 -9.5t-60 -39.5q10 -30 15 -60t5 -61
q0 -159 -90.5 -278.5t-230.5 -143.5q-24 -5 -52 -7.5t-60 -2.5q-40 -3 -59 -5t-35 -6q-47 -12 -73 -35.5t-26 -54.5q0 -35 38.5 -60.5t112.5 -39.5l182 -33q156 -27 217.5 -83t61.5 -165q0 -152 -114 -236.5t-320 -84.5q-183 0 -296.5 78.5t-113.5 201.5q0 67 42.5 112.5
t105.5 45.5q18 0 36 -4.5t37 -13.5q-50 -35 -74 -72t-24 -80q0 -94 88 -158.5t221 -64.5q137 0 221 60.5t84 156.5q0 62 -34 96t-113 49l-240 45q-122 24 -178.5 66t-56.5 108q0 83 60 137t180 78zM233 440q0 -73 34.5 -117t90.5 -44q101 0 173.5 129.5t72.5 318.5
q0 76 -31 114t-92 38q-44 0 -83 -25.5t-66 -71.5q-45 -77 -72 -171t-27 -171zM398 1343h47q11 -82 51.5 -120.5t116.5 -38.5q91 0 165 39t138 120h49q-79 -137 -166 -202.5t-191 -65.5q-105 0 -156 65t-54 203z" />
    <glyph glyph-name="Idotaccent" unicode="&#x130;" horiz-adv-x="782" 
d="M373 219q-8 -27 -12.5 -53t-4.5 -45q0 -29 12 -47.5t35 -24.5q28 -8 68 -13q43 -5 43 -24q0 -6 -8 -13t-17 -7q-3 0 -24 2q-124 12 -252 12q-89 0 -186 -12q-21 -2 -27 -2q-19 0 -30 6t-11 16q0 20 46 26q2 1 3 1q19 2 36.5 5.5t32.5 8.5q37 14 57.5 43t43.5 113l254 922
q15 53 20 77.5t5 42.5q0 37 -21 55t-71 23q-8 1 -22 2q-50 4 -50 21q0 8 12.5 14t32.5 6q4 0 21 -1q104 -7 210 -7q109 0 220 9q19 1 24 1q17 0 28 -6t11 -14q0 -20 -47 -23t-74 -14q-31 -12 -49 -35t-35 -82zM547 1667q0 35 28.5 63.5t63.5 28.5q37 0 65 -28t28 -64
q0 -40 -26.5 -67t-66.5 -27q-37 0 -64.5 28t-27.5 66z" />
    <glyph glyph-name="Scedilla" unicode="&#x15e;" horiz-adv-x="1124" 
d="M74 37q-10 0 -16.5 6t-6.5 14q0 12 11.5 69t17.5 100q7 46 12 114q6 82 31 82q19 0 26 -66q5 -46 11 -76q23 -119 113 -194.5t210 -75.5q118 0 191.5 73.5t73.5 190.5q0 75 -37.5 148t-110.5 143l-25 24q-309 295 -309 472q0 145 105.5 243.5t263.5 98.5q103 0 203.5 -49
t103.5 -49q15 0 34.5 23.5t31.5 23.5q10 0 16 -6.5t6 -16.5q0 -2 -16 -57.5t-27 -114.5q-8 -39 -15 -95q-8 -67 -28 -67q-10 1 -15 11t-5 30v23q0 137 -75 218t-200 81q-101 0 -166 -62t-65 -157q0 -63 41 -132.5t121 -140.5q210 -186 271.5 -285t61.5 -204
q0 -195 -110 -303.5t-309 -108.5q-67 0 -126.5 14t-109.5 41q-34 18 -74.5 44t-48.5 26q-12 0 -29 -26.5t-32 -26.5zM110 -371l27 64q65 -32 123 -50t98 -18q64 0 95.5 25t31.5 76q0 44 -31.5 68t-91.5 24q-21 0 -41 -2t-41 -6l97 190h55l-62 -121q2 0 6 1q30 3 46 3
q79 0 125.5 -43t46.5 -116t-58.5 -118.5t-152.5 -45.5q-50 0 -112.5 15.5t-160.5 53.5z" />
    <glyph glyph-name="scedilla" unicode="&#x15f;" horiz-adv-x="676" 
d="M168 -29q-105 0 -168 42.5t-63 111.5q0 32 18.5 55t44.5 23t41.5 -20t15.5 -52q0 -8 -3 -30t-3 -35q0 -24 35.5 -40t89.5 -16q89 0 141 43t52 115q0 50 -21 97t-92 136l-20 26q-125 159 -125 255q0 102 78 173t192 71q80 0 133 -36t53 -85q0 -30 -15 -46t-42 -16
q-24 0 -38.5 15t-14.5 39q0 7 2 20t2 19q0 22 -25 36.5t-65 14.5q-67 0 -109.5 -38t-42.5 -97q0 -57 92 -174l31 -39q81 -102 111 -168t30 -129q0 -119 -87.5 -195t-227.5 -76zM-115 -371l27 64q65 -32 123 -50t98 -18q64 0 95.5 25t31.5 76q0 44 -31.5 68t-91.5 24
q-21 0 -41 -2t-41 -6l97 190h55l-62 -121q2 0 6 1q30 3 46 3q79 0 125.5 -43t46.5 -116t-58.5 -118.5t-152.5 -45.5q-50 0 -112.5 15.5t-160.5 53.5z" />
    <glyph glyph-name="Cacute" unicode="&#x106;" horiz-adv-x="1341" 
d="M1077 36q-4 -16 -14 -27t-21 -11q-13 0 -22.5 32.5t-32.5 32.5l-123 -49t-256 -49q-245 0 -382.5 142.5t-137.5 396.5q0 172 72.5 345t206.5 322q98 110 234.5 171t281.5 61q134 0 272 -75q34 -19 43 -19q11 0 30 23.5t32 23.5q10 0 16 -7t6 -20q0 -2 -1 -6t-1 -6
l-57 -297q-1 -3 -3 -11q-7 -32 -24 -32q-11 0 -16.5 9t-5.5 26q0 5 1 13.5t1 12.5q0 157 -73 242.5t-208 85.5q-105 0 -202 -64t-187 -192q-98 -140 -154.5 -323t-56.5 -355q0 -212 84 -317t254 -105q141 0 249 74t187 223q11 22 27 58q28 65 51 65q9 0 15.5 -6.5t6.5 -15.5
t-3 -23t-13 -51zM844 1515h-57l262 301q28 32 45.5 44t34.5 12q19 0 33 -16t14 -38q0 -30 -60 -80l-1 -1z" />
    <glyph glyph-name="cacute" unicode="&#x107;" horiz-adv-x="786" 
d="M608 268q-64 -147 -154 -221t-204 -74q-124 0 -187 71t-63 210q0 99 34.5 202.5t100.5 200.5q86 127 188 199t193 72q74 0 121 -36t47 -91q0 -32 -20.5 -56t-47.5 -24q-33 0 -52 16t-19 43q0 28 14 51.5t14 26.5q0 11 -17 19t-42 8q-50 0 -94 -33.5t-84 -101.5
q-85 -144 -135.5 -301.5t-50.5 -268.5q0 -76 32.5 -118t91.5 -42q84 0 158.5 66t142.5 201zM440 1036h-57l262 301q28 32 45.5 44t34.5 12q19 0 33 -16t14 -38q0 -30 -60 -80l-1 -1z" />
    <glyph glyph-name="Ccaron" unicode="&#x10c;" horiz-adv-x="1341" 
d="M1077 36q-4 -16 -14 -27t-21 -11q-13 0 -22.5 32.5t-32.5 32.5l-123 -49t-256 -49q-245 0 -382.5 142.5t-137.5 396.5q0 172 72.5 345t206.5 322q98 110 234.5 171t281.5 61q134 0 272 -75q34 -19 43 -19q11 0 30 23.5t32 23.5q10 0 16 -7t6 -20q0 -2 -1 -6t-1 -6
l-57 -297q-1 -3 -3 -11q-7 -32 -24 -32q-11 0 -16.5 9t-5.5 26q0 5 1 13.5t1 12.5q0 157 -73 242.5t-208 85.5q-105 0 -202 -64t-187 -192q-98 -140 -154.5 -323t-56.5 -355q0 -212 84 -317t254 -105q141 0 249 74t187 223q11 22 27 58q28 65 51 65q9 0 15.5 -6.5t6.5 -15.5
t-3 -23t-13 -51zM703 1863h43l174 -243l270 243h53l-280 -348h-107z" />
    <glyph glyph-name="ccaron" unicode="&#x10d;" horiz-adv-x="786" 
d="M608 268q-64 -147 -154 -221t-204 -74q-124 0 -187 71t-63 210q0 99 34.5 202.5t100.5 200.5q86 127 188 199t193 72q74 0 121 -36t47 -91q0 -32 -20.5 -56t-47.5 -24q-33 0 -52 16t-19 43q0 28 14 51.5t14 26.5q0 11 -17 19t-42 8q-50 0 -94 -33.5t-84 -101.5
q-85 -144 -135.5 -301.5t-50.5 -268.5q0 -76 32.5 -118t91.5 -42q84 0 158.5 66t142.5 201zM299 1384h43l174 -243l270 243h53l-280 -348h-107z" />
    <glyph glyph-name="dcroat" unicode="&#x111;" horiz-adv-x="1024" 
d="M541 301q-62 -167 -143.5 -247.5t-188.5 -80.5q-106 0 -165.5 72t-59.5 201q0 94 38.5 202.5t108.5 213.5q84 123 182 192.5t187 69.5q52 0 89.5 -28.5t65.5 -90.5l72 309h-233l12 45h233l33 135q3 15 4.5 27t1.5 20q0 28 -19 39t-69 11q-12 0 -43 -4q-4 0 -6 -1l12 50
l316 39l-84 -316h209l-11 -45h-209l-139 -534q-43 -168 -68.5 -300.5t-25.5 -177.5q0 -30 11 -48.5t28 -18.5q42 0 92 71t109 218l32 -15q-50 -165 -123 -250.5t-165 -85.5q-48 0 -79.5 35.5t-31.5 89.5q0 45 21 171q4 22 6 32zM123 174q0 -73 31 -114.5t86 -41.5
q63 0 124.5 65t127.5 202q62 130 95.5 247t33.5 203q0 68 -27.5 106t-75.5 38q-61 0 -120 -56t-126 -178q-71 -131 -110 -255.5t-39 -215.5z" />
    <glyph glyph-name="overscore" unicode="&#xaf;" horiz-adv-x="1024" 
d="M0 1565h1024v-119h-1024v119z" />
    <glyph glyph-name="periodcenter" unicode="&#x2219;" horiz-adv-x="559" 
d="M172 723q0 46 31 76t78 30q45 0 75.5 -30.5t30.5 -75.5t-31.5 -77t-76.5 -32t-76 31.5t-31 77.5z" />
    <glyph glyph-name="Abreve" unicode="&#x102;" horiz-adv-x="1341" 
d="M827 563h-413q-184 -266 -232.5 -349.5t-48.5 -117.5q0 -29 36 -46t99 -17q9 0 16 -6t7 -13q0 -10 -7.5 -15t-21.5 -5q-6 0 -74 6t-129 6q-52 0 -111.5 -7t-66.5 -7q-10 0 -18 6t-8 14q0 12 33 23h1q58 14 99 44t75 79l789 1114l25 37q66 98 145 98q6 0 11 -10t5 -27v-10
l-49 -1172v-24q0 -55 16.5 -80t59.5 -37q17 -5 48 -9q44 -6 44 -22q0 -11 -8 -15.5t-29 -4.5q-4 0 -21 1q-102 9 -204 9q-72 0 -150.5 -6t-85.5 -6q-18 0 -26 4t-8 14q0 11 8 15.5t39 7.5l18 3q39 6 61 13q56 18 62 135v9zM457 627h372l25 553zM756 1822h47
q11 -82 51.5 -120.5t116.5 -38.5q91 0 165 39t138 120h49q-79 -137 -166 -202.5t-191 -65.5q-105 0 -156 65t-54 203z" />
    <glyph glyph-name="abreve" unicode="&#x103;" horiz-adv-x="1010" 
d="M115 160q0 -65 33 -105.5t85 -40.5q64 0 121 51.5t121 167.5q82 148 130 293.5t48 235.5q0 55 -29 88t-77 33q-68 0 -136.5 -64.5t-138.5 -191.5q-77 -141 -117 -261t-40 -206zM530 256q-60 -145 -142 -215t-189 -70q-103 0 -162.5 70.5t-59.5 191.5q0 96 45 211.5
t125 225.5q87 117 192 185.5t193 68.5q61 0 103 -36t57 -100l31 109q3 9 9 12.5t18 3.5q39 0 60 -8.5t21 -25.5q0 -9 -1.5 -20.5t-4.5 -21.5l-172 -595q-12 -45 -19 -88t-7 -74q0 -23 13 -37t34 -14q42 0 93 78t105 227l33 -12q-47 -171 -118 -261t-160 -90q-61 0 -93 31.5
t-32 91.5q0 26 7 67.5t21 94.5zM388 1343h47q11 -82 51.5 -120.5t116.5 -38.5q91 0 165 39t138 120h49q-79 -137 -166 -202.5t-191 -65.5q-105 0 -156 65t-54 203z" />
    <glyph glyph-name="Aogonek" unicode="&#x104;" horiz-adv-x="1341" 
d="M827 563h-413q-184 -266 -232.5 -349.5t-48.5 -117.5q0 -30 36 -46.5t99 -16.5q9 0 16 -6t7 -13q0 -10 -7.5 -15t-21.5 -5q-6 0 -73.5 6t-129.5 6q-52 0 -111.5 -7t-66.5 -7q-10 0 -18 6t-8 14t6.5 12.5t27.5 10.5q60 15 100 45t74 78l789 1114q11 15 28 41q64 94 142 94
q6 0 11 -10t5 -27v-10l-49 -1172v-24q0 -55 16.5 -80t59.5 -37q15 -4 44 -8q48 -6 48 -23q0 -11 -8 -15.5t-29 -4.5q-8 0 -38.5 3l-51.5 5q-75 -55 -114 -119.5t-39 -130.5q0 -53 29 -86t77 -33q35 0 63.5 18t59.5 60l24 -14q-31 -67 -84 -103t-118 -36q-67 0 -110.5 42
t-43.5 107q0 75 52.5 151t152.5 146h-70q-80 0 -163 -6t-87 -6q-21 0 -27.5 4t-6.5 14q0 11 8 16t37 7q8 2 30.5 5.5t36.5 6.5q38 10 56 34.5t18 68.5v6q2 21 2 39zM457 627h372l25 553z" />
    <glyph glyph-name="aogonek" unicode="&#x105;" horiz-adv-x="1010" 
d="M115 160q0 -66 32.5 -106t85.5 -40q70 0 131.5 60t133.5 200q72 141 113.5 274t41.5 214q0 55 -29 88t-77 33q-68 0 -136.5 -64.5t-138.5 -191.5q-76 -142 -116.5 -262t-40.5 -205zM530 256q-61 -146 -142 -215.5t-189 -69.5q-103 0 -162.5 70.5t-59.5 191.5
q0 107 54.5 236.5t146.5 241.5q82 97 179 155t175 58q60 0 102.5 -36t57.5 -100l31 109q3 9 9 12.5t18 3.5q39 0 60 -8.5t21 -25.5q0 -9 -1.5 -20.5t-4.5 -21.5l-172 -595q-12 -44 -19 -88t-7 -74q0 -22 13.5 -36.5t33.5 -14.5q42 0 93 78t105 227l33 -12
q-21 -90 -59.5 -167t-83.5 -124q-15 -16 -50 -46q-137 -117 -137 -231q0 -53 29.5 -86t77.5 -33q34 0 62.5 18t60.5 60l24 -14q-31 -67 -84 -103t-118 -36q-67 0 -110.5 42t-43.5 107q0 67 44.5 137.5t121.5 122.5h-6q-65 0 -98 32t-33 93q0 27 7 68.5t21 93.5z" />
    <glyph glyph-name="Dcaron" unicode="&#x10e;" horiz-adv-x="1470" 
d="M420 1123q1 4 4 15q16 61 16 89q0 36 -16 54t-52 22q-6 0 -20 1q-86 8 -86 27q0 23 97 33t327 10q334 0 512 -148t178 -423q0 -155 -54 -296t-157 -255q-120 -134 -268 -193t-366 -59q-57 0 -152.5 4t-134.5 4q-113 0 -228 -13q-24 -3 -30 -3q-19 0 -30 6t-11 16
q0 20 46 26q2 1 3 1q19 2 36.5 5.5t32.5 8.5q36 14 56.5 42.5t44.5 113.5zM633 1188l-258 -916q-8 -29 -12.5 -59t-4.5 -59q0 -58 43 -80.5t164 -22.5q153 0 271 68.5t190 199.5q72 129 112 280.5t40 295.5q0 199 -107.5 311.5t-298.5 112.5q-59 0 -86.5 -22.5t-52.5 -108.5
zM744 1863h43l174 -243l270 243h53l-280 -348h-107z" />
    <glyph glyph-name="dcaron" unicode="&#x10f;" horiz-adv-x="1294" 
d="M537 301q-63 -166 -144.5 -247t-187.5 -81q-107 0 -166 71.5t-59 201.5q0 96 37.5 205t107.5 211q85 124 182 193t187 69q52 0 90.5 -29t66.5 -90l115 489l3 15q5 24 5 32q0 27 -19.5 38.5t-70.5 11.5q-11 0 -37 -3q-6 -1 -10 -2l12 50l316 39l-234 -895
q-43 -164 -68.5 -297.5t-25.5 -180.5q0 -31 10.5 -49t28.5 -18q42 0 90.5 70t107.5 219l35 -15q-52 -166 -124.5 -251t-163.5 -85q-48 0 -79.5 35.5t-31.5 89.5q0 29 6 74t21 129zM117 174q0 -73 31.5 -114.5t87.5 -41.5q59 0 115 55t118 175q69 133 108 263t39 224
q0 68 -27.5 106t-76.5 38q-56 0 -110 -46.5t-113 -146.5q-81 -136 -126.5 -273.5t-45.5 -238.5zM1321 1264q-6 -2 -12 -3t-15 -1q-47 0 -72.5 22t-25.5 64q0 39 27 66.5t67 27.5q57 0 89 -37.5t32 -104.5q0 -95 -75 -185.5t-183 -121.5l-18 31q92 53 142 108t50 103
q0 6 -2.5 17t-3.5 14z" />
    <glyph glyph-name="Dslash" unicode="&#x110;" horiz-adv-x="1475" 
d="M637 1188l-125 -455h330l-17 -51h-329l-115 -410q-8 -29 -12 -59t-4 -59q0 -58 42 -80.5t162 -22.5q154 0 272.5 69t190.5 199q71 127 110.5 278.5t39.5 297.5q0 199 -107.5 311.5t-298.5 112.5q-60 0 -87.5 -22.5t-51.5 -108.5zM424 1122q1 4 3 11q17 62 17 94
q0 36 -16 54t-52 22q-6 0 -19 1q-84 7 -85 27q0 23 97.5 33t326.5 10q334 0 512 -148t178 -423q0 -155 -54 -296t-156 -255q-121 -134 -269 -193t-366 -59q-56 0 -153 4t-136 4q-113 0 -228 -13q-24 -3 -30 -3q-19 0 -30 6t-11 16q0 20 48 27h3q19 2 36.5 5.5t32.5 8.5
q35 13 55 41t44 115l129 471h-309l18 51h309z" />
    <glyph glyph-name="Eogonek" unicode="&#x118;" horiz-adv-x="1360" 
d="M408 1133q14 49 19 75t5 45q0 33 -19 52.5t-57 23.5q-5 1 -16 2t-16 2q-35 2 -45.5 7t-10.5 14q0 8 13 14t32 6q16 0 121 -7t193 -7q235 0 377 2t219 6q0 -9 1 -29.5t1 -31.5q0 -52 10 -122.5t10 -86.5q0 -19 -5 -30t-13 -11q-19 0 -35.5 53.5t-28.5 77.5
q-34 70 -96.5 97.5t-263.5 27.5h-144l-22 -71.5l-35 -117.5l-104 -364h104q99 0 149.5 16t79.5 53q30 38 54 100t41 62q7 0 10.5 -7t3.5 -21q0 -9 -23.5 -94.5t-35.5 -161.5q-9 -53 -20 -130q-17 -122 -38 -122q-10 0 -16 5.5t-6 14.5q0 7 1 22t1 23q0 113 -38.5 152
t-150.5 39h-129l-121 -460q-7 -26 -10.5 -51.5t-3.5 -54.5q0 -55 43.5 -77.5t177.5 -22.5q184 0 261.5 24.5t136.5 82.5q57 54 91 127t50 73q8 0 13 -7t5 -17q0 -9 -31 -118.5t-55 -213.5h-104q-70 -54 -107.5 -116.5t-37.5 -125.5q0 -53 29 -86t77 -33q36 0 65.5 18.5
t59.5 59.5l25 -14q-32 -66 -86 -102.5t-119 -36.5q-67 0 -109.5 42t-42.5 107q0 73 51 149t141 138q-200 5 -370.5 7.5t-282.5 2.5q-132 0 -238 -12q-14 -2 -18 -2q-18 0 -29.5 6t-11.5 16q0 20 48 27h2q19 2 36.5 5.5t34.5 8.5q34 11 54 40t45 116z" />
    <glyph glyph-name="eogonek" unicode="&#x119;" horiz-adv-x="784" 
d="M596 252q-56 -102 -177 -214l-3 -3q-78 -72 -106.5 -123.5t-28.5 -110.5q0 -53 29 -85.5t77 -32.5q35 0 64.5 18.5t60.5 60.5l25 -16q-32 -66 -86 -102.5t-119 -36.5q-67 0 -109.5 42t-42.5 107q0 55 30 112.5t86 112.5q-26 -5 -46.5 -7.5t-36.5 -2.5q-99 0 -155 64.5
t-56 177.5q0 103 39 215.5t111 214.5q92 133 193.5 208t186.5 75q68 0 110 -41.5t42 -108.5q0 -124 -126 -232.5t-376 -199.5l-16 -69q-9 -35 -13.5 -67t-5.5 -61q0 -66 27.5 -96.5t87.5 -30.5q65 0 141.5 65t157.5 187zM197 393q160 64 271.5 187t111.5 217q0 42 -19 66
t-53 24q-79 0 -167 -137t-144 -357z" />
    <glyph glyph-name="Ecaron" unicode="&#x11a;" horiz-adv-x="1360" 
d="M408 1133q14 53 19 77.5t5 42.5q0 37 -21 55t-71 23q-4 1 -8.5 1.5t-12.5 0.5q-32 2 -41.5 6.5t-9.5 14.5q0 8 13 14t32 6q14 0 119 -7t195 -7q231 0 373 2t223 6v-18q0 -81 11 -165.5t11 -86.5q0 -19 -5 -30t-13 -11q-20 0 -35.5 53t-28.5 78q-37 70 -98.5 97.5
t-261.5 27.5h-144l-22 -71.5l-35 -117.5l-104 -364h104q107 0 156.5 18.5t83.5 65.5q25 34 46.5 90.5t37.5 56.5q7 0 10.5 -7t3.5 -21q0 -9 -23.5 -94.5t-35.5 -161.5q-10 -55 -21 -135q-17 -117 -37 -117q-10 0 -16 5.5t-6 14.5q0 7 1 22t1 23q0 113 -38.5 152t-150.5 39
h-129l-121 -460q-7 -24 -10.5 -50.5t-3.5 -55.5q0 -56 43.5 -78t177.5 -22q190 0 272.5 28.5t143.5 96.5q45 50 76 116t47 66q8 0 13 -6t5 -18q0 -9 -30.5 -119t-55.5 -213q-133 0 -403.5 5t-407.5 5q-126 0 -237 -12q-15 -2 -19 -2q-18 0 -29.5 6t-11.5 16q0 20 49 27h3
q19 2 36.5 5.5t32.5 8.5q35 13 54.5 41t44.5 115zM619 1863h43l174 -243l270 243h53l-280 -348h-107z" />
    <glyph glyph-name="ecaron" unicode="&#x11b;" horiz-adv-x="784" 
d="M596 252q-83 -144 -176.5 -212.5t-206.5 -68.5q-99 0 -155 64.5t-56 177.5q0 91 31 191.5t88 191.5q93 151 206 240.5t205 89.5q68 0 110 -41.5t42 -108.5q0 -125 -125 -233t-377 -199l-16 -69q-10 -39 -14.5 -70t-4.5 -58q0 -66 27.5 -96.5t87.5 -30.5q64 0 140 64
t159 188zM197 393q164 67 273.5 187t109.5 217q0 42 -19 66t-53 24q-80 0 -167 -136t-144 -358zM320 1384h43l174 -243l270 243h53l-280 -348h-107z" />
    <glyph glyph-name="Lacute" unicode="&#x139;" horiz-adv-x="1233" 
d="M365 219q-8 -27 -12.5 -53t-4.5 -45q0 -45 32 -60.5t163 -15.5q197 0 306 25.5t165 83.5q43 43 79.5 117.5t55.5 74.5q9 0 14.5 -8t5.5 -21q0 -1 -33 -106.5t-57 -216.5q-70 1 -190 4q-269 6 -307 6h-297q-90 0 -124.5 -0.5t-56.5 -1.5q-26 -2 -64 -6t-48 -4q-19 0 -30 6
t-11 16q0 20 46 26q2 1 3 1q19 2 36.5 5.5t32.5 8.5q37 14 57.5 43t43.5 113l254 922q15 53 20 77.5t5 42.5q0 37 -21.5 55t-70.5 23q-9 1 -22 2q-50 4 -50 21q0 8 12.5 14t32.5 6q4 0 21 -1q103 -7 210 -7q109 0 220 9q19 1 24 1q17 0 28 -6t11 -14q0 -20 -47 -23t-74 -14
q-31 -12 -49 -35t-35 -82zM536 1515h-57l262 301q28 32 45.5 44t34.5 12q19 0 33 -16t14 -38q0 -30 -60 -80l-1 -1z" />
    <glyph glyph-name="lacute" unicode="&#x13a;" horiz-adv-x="559" 
d="M328 1295q5 18 6.5 27.5t1.5 18.5q0 27 -20 38.5t-70 11.5q-12 0 -44 -4q-3 0 -5 -1l12 50l315 39l-348 -1246q-11 -39 -16.5 -73.5t-5.5 -59.5q0 -36 12.5 -53.5t38.5 -17.5q47 0 104.5 72t112.5 202l35 -16q-60 -159 -132.5 -235.5t-164.5 -76.5q-70 0 -107 37.5
t-37 108.5q0 33 7.5 78.5t21.5 95.5zM362 1587h-57l262 301q28 32 45.5 44t34.5 12q19 0 33 -16t14 -38q0 -30 -60 -80l-1 -1z" />
    <glyph glyph-name="Lcaron" unicode="&#x13d;" horiz-adv-x="1233" 
d="M1190 1216q-10 -3 -16.5 -4.5t-10.5 -1.5q-47 0 -72.5 22.5t-25.5 63.5q0 40 27 67.5t67 27.5q57 0 89 -37.5t32 -104.5q0 -96 -74 -185t-182 -120l-18 29q91 52 140.5 107t49.5 104q0 7 -4 23q-1 6 -2 9zM365 219q-8 -28 -12.5 -54.5t-4.5 -43.5q0 -46 33 -61t162 -15
q198 0 306 25.5t165 83.5q43 43 79.5 117.5t55.5 74.5q8 0 14 -8.5t6 -20.5q0 -1 -33.5 -106.5t-56.5 -216.5l-215 5q-248 5 -282 5h-334q-131 0 -240 -11q-13 -1 -16 -1q-19 0 -30 6t-11 16q0 20 47 27h2q18 2 35 5.5t34 8.5q36 12 56.5 42t44.5 114l254 922q14 49 19.5 75
t5.5 45q0 33 -19.5 52.5t-56.5 23.5q-13 2 -34 3q-54 4 -54 22q0 8 12.5 14t32.5 6q3 0 18 -1q103 -7 213 -7q109 0 220 9q19 1 24 1q17 0 28 -6t11 -14q0 -20 -48 -24t-73 -13q-31 -12 -49.5 -35.5t-34.5 -81.5z" />
    <glyph glyph-name="lcaron" unicode="&#x13e;" horiz-adv-x="834" 
d="M328 1295q5 18 6.5 27.5t1.5 18.5q0 27 -20 38.5t-70 11.5q-12 0 -44 -4q-3 0 -5 -1l12 50l315 39l-348 -1246q-11 -39 -16.5 -73.5t-5.5 -59.5q0 -36 12.5 -53.5t38.5 -17.5q47 0 104.5 72t112.5 202l35 -16q-60 -159 -132.5 -235.5t-164.5 -76.5q-70 0 -107 37.5
t-37 108.5q0 33 7.5 78.5t21.5 95.5zM860 1264q-6 -2 -12 -3t-15 -1q-47 0 -72.5 22t-25.5 64q0 39 27 66.5t67 27.5q57 0 89 -37.5t32 -104.5q0 -95 -75 -185.5t-183 -121.5l-18 31q92 53 142 108t50 103q0 6 -2.5 17t-3.5 14z" />
    <glyph glyph-name="Ldot" unicode="&#x13f;" horiz-adv-x="1792" 
d="M365 219q-8 -27 -12.5 -53t-4.5 -45q0 -45 32 -60.5t163 -15.5q197 0 306 25.5t165 83.5q43 43 79.5 117.5t55.5 74.5q9 0 14.5 -8t5.5 -21q0 -1 -33 -106.5t-57 -216.5q-70 1 -190 4q-269 6 -307 6h-297q-90 0 -124.5 -0.5t-56.5 -1.5q-26 -2 -64 -6t-48 -4q-19 0 -30 6
t-11 16q0 20 46 26q2 1 3 1q19 2 36.5 5.5t32.5 8.5q37 14 57.5 43t43.5 113l254 922q15 53 20 77.5t5 42.5q0 37 -21.5 55t-70.5 23q-9 1 -22 2q-50 4 -50 21q0 8 12.5 14t32.5 6q4 0 21 -1q103 -7 210 -7q109 0 220 9q19 1 24 1q17 0 28 -6t11 -14q0 -20 -47 -23t-74 -14
q-31 -12 -49 -35t-35 -82zM1405 723q0 46 31 76t78 30q45 0 75.5 -30.5t30.5 -75.5t-31.5 -77t-76.5 -32t-76 31.5t-31 77.5z" />
    <glyph glyph-name="ldot" unicode="&#x140;" horiz-adv-x="1118" 
d="M328 1295q5 18 6.5 27.5t1.5 18.5q0 27 -20 38.5t-70 11.5q-12 0 -44 -4q-3 0 -5 -1l12 50l315 39l-348 -1246q-11 -39 -16.5 -73.5t-5.5 -59.5q0 -36 12.5 -53.5t38.5 -17.5q47 0 104.5 72t112.5 202l35 -16q-60 -159 -132.5 -235.5t-164.5 -76.5q-70 0 -107 37.5
t-37 108.5q0 33 7.5 78.5t21.5 95.5zM731 723q0 46 31 76t78 30q45 0 75.5 -30.5t30.5 -75.5t-31.5 -77t-76.5 -32t-76 31.5t-31 77.5z" />
    <glyph glyph-name="Nacute" unicode="&#x143;" horiz-adv-x="1569" 
d="M270 330q-15 -60 -22.5 -104.5t-7.5 -73.5q0 -40 15 -62.5t51 -34.5q14 -5 29 -8.5t32 -5.5h2q45 -7 45 -25q-1 -11 -9.5 -16.5t-23.5 -5.5q-6 0 -27 2q-87 10 -166 10q-89 0 -187 -11q-25 -3 -32 -3q-17 0 -27 6t-10 16q0 11 10.5 17t43.5 10q45 8 69 18.5t41 26.5
q29 29 72.5 147t91.5 299l158 595q4 13 7.5 33t4.5 44q-18 49 -37.5 74t-46.5 35q-30 9 -77.5 13t-47.5 24q0 8 9.5 14t23.5 6q3 0 44.5 -4t80.5 -4q30 0 76 3t61 3q23 0 33 -7t24 -36l529 -1094l203 809q17 70 23.5 111t6.5 70q0 39 -15.5 61.5t-49.5 34.5q-23 8 -65 14
t-42 23q0 11 8 16.5t23 5.5q6 0 27 -2q89 -10 168 -10q80 0 177 11q8 1 11 1q8 0 18.5 1t12.5 1q16 0 25 -5.5t9 -16.5t-10 -17t-43 -10q-2 0 -7 -1q-73 -14 -103 -42q-29 -28 -73 -149t-91 -299l-211 -807q-8 -32 -20 -49t-27 -17t-29 12.5t-24 34.5l-533 1118zM860 1515
h-57l262 301q28 32 45.5 44t34.5 12q19 0 33 -16t14 -38q0 -30 -60 -80l-1 -1z" />
    <glyph glyph-name="nacute" unicode="&#x144;" horiz-adv-x="1124" 
d="M215 0h-145l110 367q39 131 61.5 250.5t22.5 183.5q0 31 -9.5 45t-31.5 14q-47 0 -97 -68t-116 -225l-37 13q65 179 137.5 262.5t161.5 83.5q56 0 85.5 -41.5t29.5 -120.5q0 -43 -9 -103t-28 -137q94 194 195 298t196 104q75 0 118.5 -52t43.5 -141q0 -34 -6.5 -72
t-19.5 -79l-136 -420q-8 -26 -13 -49.5t-5 -36.5q0 -24 11.5 -37.5t31.5 -13.5q48 0 102.5 68t122.5 212l33 -18l-39 -88q-52 -114 -117.5 -171t-144.5 -57q-62 0 -95.5 38t-33.5 108q0 31 7.5 67.5t33.5 116.5l110 326q18 48 26.5 88.5t8.5 70.5q0 40 -17.5 61t-49.5 21
q-41 0 -87.5 -33t-97.5 -100q-141 -183 -244 -516q-9 -30 -14 -45zM547 1036h-57l262 301q28 32 45.5 44t34.5 12q19 0 33 -16t14 -38q0 -30 -60 -80l-1 -1z" />
    <glyph glyph-name="Ncaron" unicode="&#x147;" horiz-adv-x="1569" 
d="M270 330q-15 -60 -22.5 -104.5t-7.5 -73.5q0 -40 15 -62.5t51 -34.5q14 -5 29 -8.5t32 -5.5h2q45 -7 45 -25q-1 -11 -9.5 -16.5t-23.5 -5.5q-6 0 -27 2q-87 10 -166 10q-89 0 -187 -11q-25 -3 -32 -3q-17 0 -27 6t-10 16q0 11 10.5 17t43.5 10q45 8 69 18.5t41 26.5
q29 29 72.5 147t91.5 299l158 595q4 13 7.5 33t4.5 44q-18 49 -37.5 74t-46.5 35q-30 9 -77.5 13t-47.5 24q0 8 9.5 14t23.5 6q3 0 44.5 -4t80.5 -4q30 0 76 3t61 3q23 0 33 -7t24 -36l529 -1094l203 809q17 70 23.5 111t6.5 70q0 39 -15.5 61.5t-49.5 34.5q-23 8 -65 14
t-42 23q0 11 8 16.5t23 5.5q6 0 27 -2q89 -10 168 -10q80 0 177 11q8 1 11 1q8 0 18.5 1t12.5 1q16 0 25 -5.5t9 -16.5t-10 -17t-43 -10q-2 0 -7 -1q-73 -14 -103 -42q-29 -28 -73 -149t-91 -299l-211 -807q-8 -32 -20 -49t-27 -17t-29 12.5t-24 34.5l-533 1118zM719 1863
h43l174 -243l270 243h53l-280 -348h-107z" />
    <glyph glyph-name="ncaron" unicode="&#x148;" horiz-adv-x="1124" 
d="M215 0h-145l110 367q39 131 61.5 250.5t22.5 183.5q0 31 -9.5 45t-31.5 14q-47 0 -97 -68t-116 -225l-37 13q65 179 137.5 262.5t161.5 83.5q56 0 85.5 -41.5t29.5 -120.5q0 -43 -9 -103t-28 -137q94 194 195 298t196 104q75 0 118.5 -52t43.5 -141q0 -34 -6.5 -72
t-19.5 -79l-136 -420q-8 -26 -13 -49.5t-5 -36.5q0 -24 11.5 -37.5t31.5 -13.5q48 0 102.5 68t122.5 212l33 -18l-39 -88q-52 -114 -117.5 -171t-144.5 -57q-62 0 -95.5 38t-33.5 108q0 31 7.5 67.5t33.5 116.5l110 326q18 48 26.5 88.5t8.5 70.5q0 40 -17.5 61t-49.5 21
q-41 0 -87.5 -33t-97.5 -100q-141 -183 -244 -516q-9 -30 -14 -45zM406 1384h43l174 -243l270 243h53l-280 -348h-107z" />
    <glyph glyph-name="Odblacute" unicode="&#x150;" horiz-adv-x="1460" 
d="M283 401q0 -187 75.5 -290t212.5 -103q133 0 244 96t207 293q73 149 112.5 305.5t39.5 294.5q0 169 -83 268t-223 99q-96 0 -184 -58t-170 -176q-105 -150 -168 -350t-63 -379zM578 -33q-232 0 -362 139t-130 390q0 198 75.5 376t221.5 324q99 101 226.5 155t264.5 54
q228 0 360 -144t132 -393q0 -185 -75.5 -364t-213.5 -320q-100 -103 -231.5 -160t-267.5 -57zM1155 1804q20 37 36 53.5t32 16.5q21 0 35 -15.5t14 -38.5q0 -12 -8.5 -27.5t-34.5 -47.5l-186 -230h-52zM907 1800q19 41 35 57.5t35 16.5q18 0 32.5 -15.5t14.5 -33.5
q0 -16 -8.5 -35t-28.5 -45l-166 -230h-49z" />
    <glyph glyph-name="odblacute" unicode="&#x151;" horiz-adv-x="895" 
d="M295 -29q-129 0 -200.5 80t-71.5 223q0 118 38 232t111 215q71 97 158.5 151t175.5 54q117 0 188.5 -92t71.5 -242q0 -122 -40 -236t-118 -217q-62 -80 -143.5 -124t-169.5 -44zM158 190q0 -84 38.5 -132t106.5 -48q60 0 112.5 43.5t90.5 124.5q57 121 91 260t34 244
q0 99 -33 150t-98 51q-62 0 -119.5 -56t-106.5 -163q-52 -118 -84 -250t-32 -224zM799 1325q20 37 36 53.5t32 16.5q21 0 35 -15.5t14 -38.5q0 -12 -8.5 -27.5t-34.5 -47.5l-186 -230h-52zM551 1321q19 41 35 57.5t35 16.5q18 0 32.5 -15.5t14.5 -33.5q0 -16 -8.5 -35
t-28.5 -45l-166 -230h-49z" />
    <glyph glyph-name="Racute" unicode="&#x154;" horiz-adv-x="1460" 
d="M510 729h123q224 0 356.5 99.5t132.5 265.5q0 110 -76 171.5t-212 61.5q-98 0 -135.5 -24t-55.5 -89zM367 220q-9 -31 -14 -57.5t-5 -41.5q0 -29 13 -47.5t36 -24.5q28 -8 67 -13q42 -5 42 -24q0 -6 -8 -13t-17 -7q-4 0 -24 2q-124 12 -252 12q-89 0 -183 -11
q-22 -3 -28 -3q-19 0 -30 6t-11 16q0 20 46 26q2 1 3 1q19 2 36.5 5.5t32.5 8.5q37 14 57.5 43t43.5 113l254 922q15 53 20 77.5t5 42.5q0 37 -21.5 55t-70.5 23q-4 1 -8.5 1.5t-12.5 0.5q-33 2 -42 6.5t-9 14.5q0 9 10 15.5t27 6.5l73 -7t144 -7q36 0 149.5 4t192.5 4
q216 0 325 -69t109 -207q0 -171 -138.5 -270t-410.5 -122q156 -40 222.5 -114t72.5 -217l6 -151q3 -84 29.5 -122.5t81.5 -38.5q54 0 102.5 34l48.5 34q8 0 11.5 -3.5t3.5 -10.5q0 -42 -75 -86.5t-169 -44.5q-120 0 -176 59.5t-56 187.5q0 7 1 19t1 18l9 144q1 15 1.5 27.5
t0.5 19.5q0 125 -57 174t-205 49q-40 0 -69 -0.5t-58 -1.5zM878 1515h-57l262 301q28 32 45.5 44t34.5 12q19 0 33 -16t14 -38q0 -30 -60 -80l-1 -1z" />
    <glyph glyph-name="racute" unicode="&#x155;" horiz-adv-x="782" 
d="M221 0h-147q97 266 141.5 453.5t44.5 326.5q0 39 -12 60.5t-33 21.5q-37 0 -86.5 -67.5t-108.5 -200.5l-36 12q71 168 135.5 244t136.5 76q60 0 91.5 -47t31.5 -136q0 -38 -6 -90t-19 -118q84 208 160 299.5t164 91.5q44 0 70 -26t26 -71q0 -33 -20 -56t-49 -23
q-34 0 -50 15.5t-16 49.5q0 2 1 8t1 8q0 17 -6 22t-23 5q-51 0 -121 -126t-147 -357zM438 1036h-57l262 301q28 32 45.5 44t34.5 12q19 0 33 -16t14 -38q0 -30 -60 -80l-1 -1z" />
    <glyph glyph-name="Rcaron" unicode="&#x158;" horiz-adv-x="1460" 
d="M510 729h123q224 0 356.5 99.5t132.5 265.5q0 110 -76 171.5t-212 61.5q-98 0 -135.5 -24t-55.5 -89zM367 220q-9 -31 -14 -57.5t-5 -41.5q0 -29 13 -47.5t36 -24.5q28 -8 67 -13q42 -5 42 -24q0 -6 -8 -13t-17 -7q-4 0 -24 2q-124 12 -252 12q-89 0 -183 -11
q-22 -3 -28 -3q-19 0 -30 6t-11 16q0 20 46 26q2 1 3 1q19 2 36.5 5.5t32.5 8.5q37 14 57.5 43t43.5 113l254 922q15 53 20 77.5t5 42.5q0 37 -21.5 55t-70.5 23q-4 1 -8.5 1.5t-12.5 0.5q-33 2 -42 6.5t-9 14.5q0 9 10 15.5t27 6.5l73 -7t144 -7q36 0 149.5 4t192.5 4
q216 0 325 -69t109 -207q0 -171 -138.5 -270t-410.5 -122q156 -40 222.5 -114t72.5 -217l6 -151q3 -84 29.5 -122.5t81.5 -38.5q54 0 102.5 34l48.5 34q8 0 11.5 -3.5t3.5 -10.5q0 -42 -75 -86.5t-169 -44.5q-120 0 -176 59.5t-56 187.5q0 7 1 19t1 18l9 144q1 15 1.5 27.5
t0.5 19.5q0 125 -57 174t-205 49q-40 0 -69 -0.5t-58 -1.5zM737 1863h43l174 -243l270 243h53l-280 -348h-107z" />
    <glyph glyph-name="rcaron" unicode="&#x159;" horiz-adv-x="782" 
d="M221 0h-147q97 266 141.5 453.5t44.5 326.5q0 39 -12 60.5t-33 21.5q-37 0 -86.5 -67.5t-108.5 -200.5l-36 12q71 168 135.5 244t136.5 76q60 0 91.5 -47t31.5 -136q0 -38 -6 -90t-19 -118q84 208 160 299.5t164 91.5q44 0 70 -26t26 -71q0 -33 -20 -56t-49 -23
q-34 0 -50 15.5t-16 49.5q0 2 1 8t1 8q0 17 -6 22t-23 5q-51 0 -121 -126t-147 -357zM297 1384h43l174 -243l270 243h53l-280 -348h-107z" />
    <glyph glyph-name="Sacute" unicode="&#x15a;" horiz-adv-x="1124" 
d="M74 37q-10 0 -16.5 6t-6.5 14q0 12 11.5 69t17.5 100q7 46 12 114q6 82 31 82q19 0 26 -66q5 -46 11 -76q23 -119 113 -194.5t210 -75.5q118 0 191.5 73.5t73.5 190.5q0 75 -37.5 148t-110.5 143l-25 24q-309 295 -309 472q0 145 105.5 243.5t263.5 98.5q103 0 203.5 -49
t103.5 -49q15 0 34.5 23.5t31.5 23.5q10 0 16 -6.5t6 -16.5q0 -2 -16 -57.5t-27 -114.5q-8 -39 -15 -95q-8 -67 -28 -67q-10 1 -15 11t-5 30v23q0 137 -75 218t-200 81q-101 0 -166 -62t-65 -157q0 -63 41 -132.5t121 -140.5q210 -186 271.5 -285t61.5 -204
q0 -195 -110 -303.5t-309 -108.5q-67 0 -126.5 14t-109.5 41q-34 18 -74.5 44t-48.5 26q-12 0 -29 -26.5t-32 -26.5zM711 1515h-57l262 301q28 32 45.5 44t34.5 12q19 0 33 -16t14 -38q0 -30 -60 -80l-1 -1z" />
    <glyph glyph-name="sacute" unicode="&#x15b;" horiz-adv-x="676" 
d="M168 -29q-105 0 -168 42.5t-63 111.5q0 32 18.5 55t44.5 23t41.5 -20t15.5 -52q0 -8 -3 -30t-3 -35q0 -24 35.5 -40t89.5 -16q89 0 141 43t52 115q0 50 -21 97t-92 136l-20 26q-125 159 -125 255q0 102 78 173t192 71q80 0 133 -36t53 -85q0 -30 -15 -46t-42 -16
q-24 0 -38.5 15t-14.5 39q0 7 2 20t2 19q0 22 -25 36.5t-65 14.5q-67 0 -109.5 -38t-42.5 -97q0 -57 92 -174l31 -39q81 -102 111 -168t30 -129q0 -119 -87.5 -195t-227.5 -76zM385 1036h-57l262 301q28 32 45.5 44t34.5 12q19 0 33 -16t14 -38q0 -30 -60 -80l-1 -1z" />
    <glyph glyph-name="Tcedilla" unicode="&#x162;" horiz-adv-x="1341" 
d="M616 221q-8 -30 -13 -57t-5 -41q0 -30 14 -49t41 -25q33 -8 81 -12q52 -5 52 -25q0 -7 -10.5 -13.5t-23.5 -6.5q-5 0 -28 2q-130 12 -263 12q-99 0 -206 -12q-24 -2 -30 -2q-21 0 -34 6t-13 16q0 20 49 26q3 1 4 1h5q49 5 77 14q41 14 62 41.5t45 114.5l305 1114h-150
q-121 0 -209.5 -32.5t-144.5 -98.5q-24 -28 -47.5 -85.5t-42.5 -57.5q-6 0 -11 7t-5 17q0 4 0.5 6.5t1.5 4.5l76 278q28 3 42 3.5t27 0.5h1022q29 0 52.5 -1t47.5 -3l7 -307q-1 -12 -6 -18.5t-13 -6.5q-23 0 -32.5 67.5t-32.5 104.5q-36 58 -112.5 89.5t-180.5 31.5h-99z
M492 -314q-9 -2 -16.5 -3.5t-12.5 -1.5q-47 0 -72.5 23t-25.5 65q0 39 26.5 65.5t67.5 26.5q57 0 89 -37.5t32 -104.5q0 -96 -74 -185t-182 -120l-19 29q92 52 141.5 108t49.5 105q0 5 -1 11.5t-3 18.5z" />
    <glyph glyph-name="tcedilla" unicode="&#x163;" horiz-adv-x="559" 
d="M207 856h-156v45h170l80 266q9 29 21.5 41.5t33.5 12.5q45 0 60.5 -7t15.5 -26q0 -7 -1 -15.5t-3 -19.5l-68 -252h158v-45h-170l-162 -573q-21 -78 -28.5 -116t-7.5 -61q0 -30 14 -46.5t41 -16.5q47 0 94 63t109 211l38 -14q-67 -180 -136 -254t-165 -74q-66 0 -102.5 37
t-36.5 103q0 26 7 64t22 87zM125 -314q-9 -2 -16.5 -3.5t-12.5 -1.5q-47 0 -72.5 23t-25.5 65q0 39 26.5 65.5t67.5 26.5q57 0 89 -37.5t32 -104.5q0 -96 -74 -185t-182 -120l-19 29q92 52 141.5 108t49.5 105q0 5 -1 11.5t-3 18.5z" />
    <glyph glyph-name="Tcaron" unicode="&#x164;" horiz-adv-x="1341" 
d="M616 221q-8 -30 -13 -57t-5 -41q0 -30 14 -49t41 -25q33 -8 81 -12q52 -5 52 -25q0 -7 -10.5 -13.5t-23.5 -6.5q-5 0 -28 2q-130 12 -263 12q-99 0 -206 -12q-24 -2 -30 -2q-21 0 -34 6t-13 16q0 20 49 26q3 1 4 1h5q49 5 77 14q41 14 62 41.5t45 114.5l305 1114h-150
q-121 0 -209.5 -32.5t-144.5 -98.5q-24 -28 -47.5 -85.5t-42.5 -57.5q-6 0 -11 7t-5 17q0 4 0.5 6.5t1.5 4.5l76 278q28 3 42 3.5t27 0.5h1022q29 0 52.5 -1t47.5 -3l7 -307q-1 -12 -6 -18.5t-13 -6.5q-23 0 -32.5 67.5t-32.5 104.5q-36 58 -112.5 89.5t-180.5 31.5h-99z
M678 1863h43l174 -243l270 243h53l-280 -348h-107z" />
    <glyph glyph-name="tcaron" unicode="&#x165;" horiz-adv-x="834" 
d="M207 856h-156v45h170l80 266q9 29 21.5 41.5t33.5 12.5q45 0 60.5 -7t15.5 -26q0 -7 -1 -15.5t-3 -19.5l-68 -252h158v-45h-170l-162 -573q-21 -78 -28.5 -116t-7.5 -61q0 -30 14 -46.5t41 -16.5q47 0 94 63t109 211l38 -14q-67 -180 -136 -254t-165 -74q-66 0 -102.5 37
t-36.5 103q0 26 7 64t22 87zM860 1264q-6 -2 -12 -3t-15 -1q-47 0 -72.5 22t-25.5 64q0 39 27 66.5t67 27.5q57 0 89 -37.5t32 -104.5q0 -95 -75 -185.5t-183 -121.5l-18 31q92 53 142 108t50 103q0 6 -2.5 17t-3.5 14z" />
    <glyph glyph-name="Uring" unicode="&#x16e;" horiz-adv-x="1577" 
d="M233 535l146 530q16 60 24.5 105.5t8.5 68.5q0 36 -12 53.5t-44 28.5q-21 7 -65.5 12t-44.5 21q0 9 11.5 15.5t29.5 6.5q3 0 20 -1q121 -9 250 -9q100 0 197 9q16 1 20 1q16 0 25.5 -5.5t9.5 -14.5q0 -20 -46 -26q-2 -1 -3 -1q-23 0 -40 -3.5t-32 -10.5q-31 -14 -54 -56
t-50 -137l-176 -633q-15 -54 -22 -99.5t-7 -82.5q0 -133 81.5 -204.5t233.5 -71.5q175 0 279 100.5t184 355.5t127 460.5t47 285.5q0 36 -17 59t-48 29q-14 3 -37 7q-4 1 -6 1q-33 4 -41 8.5t-8 14.5q0 11 9.5 17.5t26.5 6.5q2 0 14 -1t21 -1q32 -4 71.5 -6t84.5 -2
q73 0 155 8q20 2 25 2q15 0 25 -6.5t10 -15.5q0 -10 -8 -15.5t-33 -9.5q-4 -1 -11 -3q-41 -12 -67 -26q-31 -16 -55 -54.5t-41 -96.5l-144 -516q-60 -215 -110 -333t-103 -175q-76 -81 -173.5 -119.5t-229.5 -38.5q-213 0 -326.5 91t-113.5 261q0 49 8 103.5t24 112.5z
M893 1728q0 -66 45 -110.5t113 -44.5q67 0 112 44.5t45 110.5q0 67 -45.5 112.5t-111.5 45.5q-68 0 -113 -45t-45 -113zM817 1728q0 98 68.5 166t167.5 68q98 0 165.5 -67.5t67.5 -166.5q0 -98 -67.5 -165.5t-165.5 -67.5q-99 0 -167.5 67.5t-68.5 165.5z" />
    <glyph glyph-name="uring" unicode="&#x16f;" horiz-adv-x="1124" 
d="M797 901h145l-111 -373q-38 -130 -60.5 -249t-22.5 -183q0 -31 10 -46t30 -15q48 0 97.5 68t115.5 227l35 -15q-64 -178 -136.5 -261t-162.5 -83q-55 0 -83.5 40.5t-28.5 119.5q0 47 8.5 109t25.5 133q-94 -194 -195 -298t-196 -104q-74 0 -118 51.5t-44 139.5
q0 32 7.5 70t21.5 83l135 426q9 27 14 49t5 35q0 25 -11.5 39.5t-31.5 14.5q-47 0 -102 -68.5t-124 -214.5l-32 18l39 88q52 114 117.5 171t144.5 57q62 0 95.5 -38t33.5 -108q0 -33 -8 -70.5t-33 -113.5l-111 -330q-17 -53 -26 -92t-9 -67q0 -40 18 -62t50 -22q41 0 87 33
t97 100q142 182 242 514q10 32 14 46zM506 1249q0 -66 45 -110.5t113 -44.5q67 0 112 44.5t45 110.5q0 67 -45.5 112.5t-111.5 45.5q-68 0 -113 -45t-45 -113zM430 1249q0 98 68.5 166t167.5 68q98 0 165.5 -67.5t67.5 -166.5q0 -98 -67.5 -165.5t-165.5 -67.5
q-99 0 -167.5 67.5t-68.5 165.5z" />
    <glyph glyph-name="Udblacute" unicode="&#x170;" horiz-adv-x="1577" 
d="M233 535l146 530q16 60 24.5 105.5t8.5 68.5q0 36 -12 53.5t-44 28.5q-21 7 -65.5 12t-44.5 21q0 9 11.5 15.5t29.5 6.5q3 0 20 -1q121 -9 250 -9q100 0 197 9q16 1 20 1q16 0 25.5 -5.5t9.5 -14.5q0 -20 -46 -26q-2 -1 -3 -1q-23 0 -40 -3.5t-32 -10.5q-31 -14 -54 -56
t-50 -137l-176 -633q-15 -54 -22 -99.5t-7 -82.5q0 -133 81.5 -204.5t233.5 -71.5q175 0 279 100.5t184 355.5t127 460.5t47 285.5q0 36 -17 59t-48 29q-14 3 -37 7q-4 1 -6 1q-33 4 -41 8.5t-8 14.5q0 11 9.5 17.5t26.5 6.5q2 0 14 -1t21 -1q32 -4 71.5 -6t84.5 -2
q73 0 155 8q20 2 25 2q15 0 25 -6.5t10 -15.5q0 -10 -8 -15.5t-33 -9.5q-4 -1 -11 -3q-41 -12 -67 -26q-31 -16 -55 -54.5t-41 -96.5l-144 -516q-60 -215 -110 -333t-103 -175q-76 -81 -173.5 -119.5t-229.5 -38.5q-213 0 -326.5 91t-113.5 261q0 49 8 103.5t24 112.5z
M1243 1804q20 37 36 53.5t32 16.5q21 0 35 -15.5t14 -38.5q0 -12 -8.5 -27.5t-34.5 -47.5l-186 -230h-52zM995 1800q19 41 35 57.5t35 16.5q18 0 32.5 -15.5t14.5 -33.5q0 -16 -8.5 -35t-28.5 -45l-166 -230h-49z" />
    <glyph glyph-name="udblacute" unicode="&#x171;" horiz-adv-x="1124" 
d="M797 901h145l-111 -373q-38 -130 -60.5 -249t-22.5 -183q0 -31 10 -46t30 -15q48 0 97.5 68t115.5 227l35 -15q-64 -178 -136.5 -261t-162.5 -83q-55 0 -83.5 40.5t-28.5 119.5q0 47 8.5 109t25.5 133q-94 -194 -195 -298t-196 -104q-74 0 -118 51.5t-44 139.5
q0 32 7.5 70t21.5 83l135 426q9 27 14 49t5 35q0 25 -11.5 39.5t-31.5 14.5q-47 0 -102 -68.5t-124 -214.5l-32 18l39 88q52 114 117.5 171t144.5 57q62 0 95.5 -38t33.5 -108q0 -33 -8 -70.5t-33 -113.5l-111 -330q-17 -53 -26 -92t-9 -67q0 -40 18 -62t50 -22q41 0 87 33
t97 100q142 182 242 514q10 32 14 46zM856 1325q20 37 36 53.5t32 16.5q21 0 35 -15.5t14 -38.5q0 -12 -8.5 -27.5t-34.5 -47.5l-186 -230h-52zM608 1321q19 41 35 57.5t35 16.5q18 0 32.5 -15.5t14.5 -33.5q0 -16 -8.5 -35t-28.5 -45l-166 -230h-49z" />
    <glyph glyph-name="Zacute" unicode="&#x179;" horiz-adv-x="1229" 
d="M13 48l937 1277h-235q-101 0 -170.5 -16t-116.5 -49q-65 -46 -122.5 -117.5t-69.5 -71.5q-9 0 -13 6t-4 21q0 12 44.5 100t76.5 164q5 3 13.5 4.5t27.5 1.5h774q20 0 26.5 -4t6.5 -14q0 -4 -1.5 -9t-4.5 -9l-942 -1283h272q188 0 289.5 39.5t179.5 138.5q22 27 47.5 71
t40.5 44q8 0 13 -4.5t5 -11.5q0 -11 -43.5 -120.5l-77.5 -199.5q-13 -3 -24 -4.5t-18 -1.5h-871q-32 0 -42.5 4t-10.5 14q0 3 4 12.5t9 17.5zM764 1515h-57l262 301q28 32 45.5 44t34.5 12q19 0 33 -16t14 -38q0 -30 -60 -80l-1 -1z" />
    <glyph glyph-name="zacute" unicode="&#x17a;" horiz-adv-x="786" 
d="M16 84l500 692q-39 -14 -72.5 -21t-64.5 -7q-45 0 -103 19t-75 19q-37 0 -53.5 -25t-18.5 -83l-35 -2q-6 19 -9 35t-3 30q0 73 50 121.5t124 48.5q53 0 132 -52t120 -52q34 0 52 14.5t26 48.5q0 3 2 10q11 50 45 50q13 0 23 -10.5t10 -24.5q0 -26 -34 -61
q-14 -15 -19 -22l-471 -656q32 7 61.5 10.5t56.5 3.5q70 0 163.5 -22.5t119.5 -22.5q55 0 80.5 30t25.5 95v8h35q3 -31 4.5 -53t1.5 -37q0 -87 -52 -135.5t-146 -48.5q-91 0 -180 62q-8 6 -13 9q-52 35 -85.5 48.5t-63.5 13.5q-36 0 -60.5 -19.5t-34.5 -54.5q-2 -7 -4 -19
q-11 -47 -41 -47q-18 0 -25.5 8t-7.5 27q0 24 28 57q7 9 11 15zM440 1036h-57l262 301q28 32 45.5 44t34.5 12q19 0 33 -16t14 -38q0 -30 -60 -80l-1 -1z" />
    <glyph glyph-name="Zdot" unicode="&#x17b;" horiz-adv-x="1229" 
d="M13 48l937 1277h-235q-101 0 -170.5 -16t-116.5 -49q-65 -46 -122.5 -117.5t-69.5 -71.5q-9 0 -13 6t-4 21q0 12 44.5 100t76.5 164q5 3 13.5 4.5t27.5 1.5h774q20 0 26.5 -4t6.5 -14q0 -4 -1.5 -9t-4.5 -9l-942 -1283h272q188 0 289.5 39.5t179.5 138.5q22 27 47.5 71
t40.5 44q8 0 13 -4.5t5 -11.5q0 -11 -43.5 -120.5l-77.5 -199.5q-13 -3 -24 -4.5t-18 -1.5h-871q-32 0 -42.5 4t-10.5 14q0 3 4 12.5t9 17.5zM770 1667q0 35 28.5 63.5t63.5 28.5q37 0 65 -28t28 -64q0 -40 -26.5 -67t-66.5 -27q-37 0 -64.5 28t-27.5 66z" />
    <glyph glyph-name="zdot" unicode="&#x17c;" horiz-adv-x="786" 
d="M16 84l500 692q-39 -14 -72.5 -21t-64.5 -7q-45 0 -103 19t-75 19q-37 0 -53.5 -25t-18.5 -83l-35 -2q-6 19 -9 35t-3 30q0 73 50 121.5t124 48.5q53 0 132 -52t120 -52q34 0 52 14.5t26 48.5q0 3 2 10q11 50 45 50q13 0 23 -10.5t10 -24.5q0 -26 -34 -61
q-14 -15 -19 -22l-471 -656q32 7 61.5 10.5t56.5 3.5q70 0 163.5 -22.5t119.5 -22.5q55 0 80.5 30t25.5 95v8h35q3 -31 4.5 -53t1.5 -37q0 -87 -52 -135.5t-146 -48.5q-91 0 -180 62q-8 6 -13 9q-52 35 -85.5 48.5t-63.5 13.5q-36 0 -60.5 -19.5t-34.5 -54.5q-2 -7 -4 -19
q-11 -47 -41 -47q-18 0 -25.5 8t-7.5 27q0 24 28 57q7 9 11 15zM446 1188q0 35 28.5 63.5t63.5 28.5q37 0 65 -28t28 -64q0 -40 -26.5 -67t-66.5 -27q-37 0 -64.5 28t-27.5 66z" />
    <glyph glyph-name="Gamma" unicode="&#x393;" horiz-adv-x="1204" 
d="M776 1313q-102 0 -144 -155l-9 -33l-248 -905q-9 -31 -14 -57.5t-5 -41.5q0 -32 15.5 -49.5t46.5 -22.5q23 -7 58 -13q38 -6 38 -24q0 -6 -8 -13t-17 -7q-3 0 -21 2q-122 12 -255 12q-90 0 -185 -11q-22 -3 -28 -3q-19 0 -30 6t-11 16q0 20 57 26q41 3 64 9
q35 16 54.5 45t43.5 117l254 922q15 53 20 77.5t5 42.5q0 33 -18.5 50.5t-61.5 25.5q-15 3 -39 4q-45 4 -45 21q0 8 11 12t32 4q4 0 30 -1q260 -9 586 -9q105 0 210 7q19 1 24 1q26 0 41 -7.5t20 -22.5q8 -22 18 -111q0 -4 1 -6q4 -31 11 -79t7 -57q0 -11 -6 -19.5t-14 -8.5
q-20 0 -36 53.5t-28 77.5q-34 70 -97 97.5t-265 27.5h-62z" />
    <glyph glyph-name="Theta" unicode="&#x398;" horiz-adv-x="1460" 
d="M807 764q100 0 144.5 72.5t60.5 72.5q9 0 14.5 -3t5.5 -9q0 -13 -29 -97t-49 -155q-8 -31 -19 -81q-16 -75 -34 -75q-12 0 -17 12t-5 44q0 49 -21.5 69.5t-75.5 20.5h-133q-101 0 -146 -74t-61 -74q-8 0 -13 3.5t-5 9.5q0 15 29.5 97t48.5 151q9 33 19 85q15 76 34 76
t22 -47q1 -22 3 -35q4 -34 25 -48.5t67 -14.5h135zM578 -33q-233 0 -362.5 139t-129.5 390q0 199 75.5 376.5t221.5 323.5q99 100 227 154.5t264 54.5q224 0 358 -142t134 -376q0 -198 -74 -377.5t-215 -325.5q-98 -101 -231 -159t-268 -58zM283 401q0 -188 75 -290.5
t213 -102.5q133 0 246 98t205 291q73 153 112.5 310t39.5 290q0 168 -83.5 267.5t-222.5 99.5q-106 0 -203.5 -72t-185.5 -215t-142 -330.5t-54 -345.5z" />
    <glyph glyph-name="Phi" unicode="&#x3a6;" horiz-adv-x="1395" 
d="M924 1176l-262 -940q92 6 169 45.5t144 115.5q82 95 132 226.5t50 255.5q0 122 -65 204.5t-168 92.5zM475 238l260 938q-200 -11 -346.5 -203t-146.5 -434q0 -121 61.5 -200.5t171.5 -100.5zM928 1219q196 -20 303.5 -126t107.5 -280q0 -256 -197.5 -436.5t-494.5 -186.5
q0 -1 -1 -5q-11 -48 -11 -70q0 -35 14.5 -50t61.5 -24q16 -3 42 -6q42 -4 42 -23q0 -6 -8 -13t-17 -7q-4 0 -22 2q-117 12 -242 12q-86 0 -180 -11q-25 -3 -31 -3q-19 0 -30 6t-11 16q0 20 44 25.5t71 15.5q34 14 55 41.5t43 93.5q-208 41 -308 142.5t-100 271.5
q0 250 198.5 429.5t494.5 185.5q4 9 6 18.5t2 19.5q0 33 -22.5 50t-77.5 24q-9 1 -25 2q-45 3 -45 21q0 9 12 15.5t31 6.5q5 0 26 -2q92 -8 177 -8q119 0 236 9q19 1 24 1q17 0 28 -6t11 -14q0 -19 -48.5 -23.5t-76.5 -13.5q-26 -9 -43.5 -29.5t-38.5 -70.5z" />
    <glyph glyph-name="alpha" unicode="&#x3b1;" horiz-adv-x="1034" 
d="M279 23q58 0 118 56.5t121 170.5q73 137 109.5 246t36.5 194q0 90 -30 136t-87 46q-56 0 -114 -47.5t-111 -136.5q-78 -128 -121 -253.5t-43 -217.5q0 -90 32.5 -142t88.5 -52zM580 178q-80 -107 -154 -156t-154 -49q-112 0 -182 84.5t-70 223.5q0 125 52 250t145 225
q77 81 161.5 124.5t166.5 43.5q98 0 144.5 -62.5t47.5 -195.5l76 143q29 57 46.5 72.5t39.5 15.5q32 0 52 -15.5t20 -39.5q0 -22 -36 -87l-15 -27l-195 -347q-42 -74 -58 -120.5t-16 -88.5q0 -33 14 -51.5t37 -18.5q36 0 71 43t69 127l30 -8q-46 -139 -104.5 -215
t-118.5 -76q-37 0 -57.5 27t-20.5 78q0 20 2.5 45t6.5 55z" />
    <glyph glyph-name="delta" unicode="&#x3b4;" horiz-adv-x="895" 
d="M631 692q0 90 -35.5 140.5t-97.5 50.5t-118.5 -55.5t-105.5 -163.5q-51 -113 -83.5 -249.5t-32.5 -224.5q0 -84 38.5 -132t106.5 -48q74 0 132.5 62t105.5 190q42 118 66 232.5t24 197.5zM535 926q-131 149 -175.5 225.5t-44.5 136.5q0 85 63.5 135t172.5 50
q154 0 250 -62.5t96 -157.5q0 -45 -23 -73.5t-61 -28.5q-36 0 -61 21.5t-25 52.5q0 27 26.5 54t26.5 46q0 38 -49.5 68t-118.5 30q-76 0 -118.5 -41.5t-42.5 -115.5q0 -71 35 -143.5t118 -170.5q96 -112 129 -193t33 -181q0 -110 -41 -224.5t-117 -214.5
q-60 -80 -142.5 -124t-172.5 -44q-128 0 -199 80.5t-71 222.5q0 254 152 453t347 199h13z" />
    <glyph glyph-name="epsilon" unicode="&#x3b5;" horiz-adv-x="793" 
d="M252 494q-55 27 -84 70.5t-29 99.5q0 109 105 184.5t264 75.5q109 0 168 -38.5t59 -109.5q0 -38 -27 -65t-65 -27q-30 0 -50 19.5t-20 48.5q0 23 19.5 48t19.5 38q0 21 -23.5 33t-66.5 12q-97 0 -167 -73.5t-70 -172.5q0 -59 30 -87t93 -28h116l-6 -65h-123
q-119 0 -195.5 -77t-76.5 -192q0 -71 41 -110t115 -39q85 0 171.5 58t143.5 155l35 -16q-60 -119 -173 -192t-233 -73q-115 0 -184.5 62t-69.5 164q0 107 72.5 183.5t210.5 113.5z" />
    <glyph glyph-name="sigma" unicode="&#x3c3;" horiz-adv-x="944" 
d="M698 829q34 -55 51 -115.5t17 -121.5q0 -249 -140.5 -435t-332.5 -186q-128 0 -199 80.5t-71 222.5q0 116 38 230.5t111 216.5q75 102 161 153.5t185 51.5q19 0 99 -8.5t139 -8.5h88q55 0 77.5 -9.5t22.5 -31.5q0 -21 -19 -36t-48 -15q-14 0 -67.5 6t-94.5 6h-17z
M631 692q0 90 -35.5 140.5t-97.5 50.5t-118.5 -55.5t-105.5 -163.5q-51 -113 -83.5 -249.5t-32.5 -224.5q0 -84 38.5 -132t106.5 -48q74 0 132.5 62t105.5 190q42 118 66 232.5t24 197.5z" />
    <glyph glyph-name="tau" unicode="&#x3c4;" horiz-adv-x="743" 
d="M326 848h-82q-64 0 -104 -38t-70 -38t-48 14.5t-18 38.5q0 41 37.5 58.5t130.5 17.5h494q37 0 48 -6t11 -23q0 -14 -13.5 -19t-72.5 -5h-168l-209 -692q-9 -34 -12.5 -50.5t-3.5 -27.5q0 -26 11 -38.5t34 -12.5q52 0 103 62t118 212l33 -18l-39 -88q-50 -112 -117 -171
t-143 -59q-61 0 -97 38.5t-36 102.5q0 55 37 174q4 11 6 17z" />
    <glyph glyph-name="phi" unicode="&#x3c6;" horiz-adv-x="1151" 
d="M219 -563l158 553q-166 24 -249 105.5t-83 217.5q0 111 64 224t213 262l-35 -14q-46 -19 -70 -19q-19 0 -54 14.5t-48 14.5q-19 0 -36 -22.5t-28 -22.5q-9 0 -15.5 7t-6.5 17q0 37 40 88t89 51q23 0 85 -25.5t111 -25.5q52 0 99 32t53 32q16 0 24.5 -8t8.5 -23
q0 -16 -48.5 -44.5t-74.5 -49.5q-105 -84 -163 -202.5t-58 -250.5q0 -122 56.5 -196.5t151.5 -77.5l150 508q50 170 126.5 259t172.5 89q89 0 143 -73.5t54 -197.5q0 -232 -154 -430.5t-377 -238.5l-153 -553h-146zM539 66q188 18 325 199t137 407q0 88 -34 143t-86 55
q-63 0 -104.5 -60t-96.5 -251z" />
    <glyph glyph-name="underscoredbl" unicode="&#x2017;" horiz-adv-x="1024" 
d="M0 -381h1024v-102h-1024v102zM0 -131h1024v-102h-1024v102z" />
    <glyph glyph-name="exclamdbl" unicode="&#x203c;" horiz-adv-x="1233" 
d="M350 1227q19 107 44.5 142.5t72.5 35.5q43 0 70.5 -28.5t27.5 -73.5q0 -33 -29 -110q-4 -11 -6 -16l-262 -722q0 -1 -1 -4q-12 -31 -29 -31q-12 0 -17.5 6t-5.5 18q0 11 0.5 16t1.5 9zM25 82q0 46 31 77t77 31q45 0 77 -31.5t32 -76.5q0 -44 -32 -75.5t-77 -31.5
q-46 0 -77 31t-31 76zM966 1227q19 107 44.5 142.5t72.5 35.5q43 0 70.5 -28.5t27.5 -73.5q0 -33 -29 -110q-4 -11 -6 -16l-262 -722q0 -1 -1 -4q-12 -31 -29 -31q-12 0 -17.5 6t-5.5 18q0 11 0.5 16t1.5 9zM641 82q0 46 31 77t77 31q45 0 77 -31.5t32 -76.5
q0 -44 -32 -75.5t-77 -31.5q-46 0 -77 31t-31 76z" />
    <glyph glyph-name="nsuperior" unicode="&#x207f;" horiz-adv-x="844" 
d="M162 729h-109l82 256q30 93 47 177t17 128q0 21 -7.5 31t-23.5 10q-35 0 -72 -47t-88 -158l-28 9q49 125 103.5 183t121.5 58q42 0 64 -28.5t22 -83.5q0 -29 -7.5 -71t-21.5 -97q72 136 148 208t147 72q56 0 88.5 -36t32.5 -97q0 -25 -5.5 -52t-15.5 -54l-100 -295
q-7 -17 -10.5 -32.5t-3.5 -27.5q0 -17 8.5 -27t23.5 -10q36 0 76.5 47.5t91.5 149.5l25 -12l-29 -62q-40 -80 -89 -119.5t-107 -39.5q-46 0 -71.5 26.5t-25.5 75.5q0 25 7 53.5t24 75.5l82 227q13 36 20 64t7 49q0 28 -13.5 42.5t-37.5 14.5q-31 0 -66 -23.5t-72 -70.5
q-106 -127 -184 -360q-7 -21 -10 -31z" />
    <glyph glyph-name="peseta" unicode="&#x20a7;" horiz-adv-x="1540" 
d="M332 707h106q153 0 230 76.5t77 228.5q0 150 -78 230.5t-223 80.5q-61 0 -86.5 -28t-25.5 -97v-491zM1141 1311h71v-359h246v-80h-244v-698q0 -59 19.5 -86t60.5 -27q65 0 95 56t30 176v80h62v-45q0 -194 -49.5 -273.5t-165.5 -79.5q-97 0 -147 55t-50 163v679h-84v62
q77 28 113 114t43 263zM59 1393h347q259 0 384 -90t125 -275q0 -190 -126.5 -291.5t-364.5 -101.5h-92v-420q0 -84 29.5 -113.5t109.5 -29.5h10v-72h-422v72h9q67 0 90.5 28t23.5 115v995q0 58 -26 84.5t-82 26.5h-15v72z" />
    <glyph glyph-name="arrowleft" unicode="&#x2190;" 
d="M752 965l45 -105l-453 -182h1575v-115h-1575l451 -182l-45 -105l-621 283v123z" />
    <glyph glyph-name="arrowup" unicode="&#x2191;" horiz-adv-x="1024" 
d="M449 1436h122l283 -621l-104 -43l-181 449v-1575h-116v1575l-183 -451l-104 45z" />
    <glyph glyph-name="arrowright" unicode="&#x2192;" 
d="M1298 965l621 -283v-123l-621 -283l-45 105l451 182h-1575v115h1575l-451 182z" />
    <glyph glyph-name="arrowdown" unicode="&#x2193;" horiz-adv-x="1024" 
d="M453 1436h116v-1575l181 448l104 -43l-283 -620h-122l-283 620l104 45l183 -450v1575z" />
    <glyph glyph-name="arrowboth" unicode="&#x2194;" 
d="M752 965l45 -105l-453 -182h1360l-451 182l45 105l621 -283v-123l-621 -283l-45 105l451 182h-1360l451 -182l-45 -105l-621 283v123z" />
    <glyph glyph-name="arrowupdn" unicode="&#x2195;" horiz-adv-x="1024" 
d="M432 1436h162l256 -594l-100 -45l-181 452v-1417l181 451l100 -45l-256 -592h-162l-256 592l100 45l181 -451v1417l-181 -452l-100 45z" />
    <glyph glyph-name="arrowupdnbse" unicode="&#x21a8;" horiz-adv-x="1024" 
d="M137 -344h752v-109h-752v109zM432 1534h162l256 -576l-100 -43l-181 441v-1399l181 442l100 -45l-256 -575h-162l-256 575l100 45l181 -442v1399l-181 -441l-100 43z" />
    <glyph glyph-name="orthogonal" unicode="&#x221f;" horiz-adv-x="1706" 
d="M223 1300h115v-1185h1147v-115h-1262v1300z" />
    <glyph glyph-name="intersection" unicode="&#x2229;" horiz-adv-x="1706" 
d="M1489 0h-119v719q0 250 -136 384t-388 134q-241 0 -374.5 -136t-133.5 -384v-717h-121v719q0 299 168.5 466t468.5 167t467.5 -166.5t167.5 -466.5v-719z" />
    <glyph glyph-name="equivalence" unicode="&#x2261;" horiz-adv-x="1706" 
d="M254 311h1198v-116h-1198v116zM254 668h1198v-117h-1198v117zM254 1026h1198v-115h-1198v115z" />
    <glyph glyph-name="house" unicode="&#x2302;" horiz-adv-x="1778" 
d="M160 98h1460v674l-731 625l-729 -625v-674zM59 0v819l830 703l829 -703v-819h-1659z" />
    <glyph glyph-name="revlogicalnot" unicode="&#x2310;" horiz-adv-x="1706" 
d="M254 858h1198v-117h-1083v-385h-115v502z" />
    <glyph glyph-name="integraltp" unicode="&#x2320;" horiz-adv-x="1192" 
d="M686 -483h-192v250q0 964 106 1373.5t350 409.5q81 0 129.5 -41t48.5 -108q0 -56 -35 -90.5t-92 -34.5q-55 0 -83.5 30.5t-28.5 90.5v20q0 20 -8 30.5t-23 10.5q-91 0 -131.5 -391t-40.5 -1311v-239z" />
    <glyph glyph-name="integralbt" unicode="&#x2321;" horiz-adv-x="1192" 
d="M494 1565h192v-252q0 -965 -106 -1374.5t-351 -409.5q-80 0 -129 42t-49 110q0 53 36 88.5t91 35.5t84 -31t29 -91v-19q0 -21 7.5 -31t23.5 -10q91 0 131.5 390.5t40.5 1309.5v242z" />
    <glyph glyph-name="U2500" unicode="&#x2500;" 
d="M-39 598h2126v-117h-2126v117z" />
    <glyph glyph-name="U2502" unicode="&#x2502;" 
d="M965 1599h118v-2123h-118v2123z" />
    <glyph glyph-name="U250c" unicode="&#x250c;" 
d="M965 598h1122v-117h-1004v-1005h-118v1122z" />
    <glyph glyph-name="U2510" unicode="&#x2510;" 
d="M965 481h-1002v117h1120v-1122h-118v1005z" />
    <glyph glyph-name="U2514" unicode="&#x2514;" 
d="M965 1599h118v-1001h1004v-117h-1122v1118z" />
    <glyph glyph-name="U2518" unicode="&#x2518;" 
d="M-39 598h1004v1001h118v-1118h-1122v117z" />
    <glyph glyph-name="U251c" unicode="&#x251c;" 
d="M965 1599h118v-1001h1004v-117h-1004v-1005h-118v2123z" />
    <glyph glyph-name="U2524" unicode="&#x2524;" 
d="M965 481h-1004v117h1004v1001h118v-2123h-118v1005z" />
    <glyph glyph-name="U252c" unicode="&#x252c;" 
d="M965 481h-1004v117h2126v-117h-1004v-1005h-118v1005z" />
    <glyph glyph-name="U2534" unicode="&#x2534;" 
d="M-39 598h1004v1001h118v-1001h1004v-117h-2126v117z" />
    <glyph glyph-name="U253c" unicode="&#x253c;" 
d="M965 481h-1004v117h1004v1001h118v-1001h1004v-117h-1004v-1005h-118v1005z" />
    <glyph glyph-name="U2550" unicode="&#x2550;" 
d="M-39 422h2126v-117h-2126v117zM-39 774h2126v-115h-2126v115z" />
    <glyph glyph-name="U2551" unicode="&#x2551;" 
d="M1262 1599v-2123h-119v2123h119zM905 1599v-2123h-119v2123h119z" />
    <glyph glyph-name="U2552" unicode="&#x2552;" 
d="M965 774h1122v-115h-1004v-237h1004v-117h-1004v-829h-118v1298z" />
    <glyph glyph-name="U2553" unicode="&#x2553;" 
d="M2087 598v-117h-825v-1005h-119v1005h-238v-1005h-119v1122h1301z" />
    <glyph glyph-name="U2554" unicode="&#x2554;" 
d="M905 659v-1183h-119v1298h1301v-115h-1182zM1143 422h944v-117h-825v-829h-119v946z" />
    <glyph glyph-name="U2555" unicode="&#x2555;" 
d="M965 305h-1004v117h1004v237h-1004v115h1122v-1290h-118v821z" />
    <glyph glyph-name="U2556" unicode="&#x2556;" 
d="M1262 598v-1122h-119v1005h-238v-1005h-119v1005h-825v117h1301z" />
    <glyph glyph-name="U2557" unicode="&#x2557;" 
d="M-39 774h1301v-1298h-119v1183h-1182v115zM786 -524v829h-825v117h944v-946h-119z" />
    <glyph glyph-name="U2558" unicode="&#x2558;" 
d="M965 1599h118v-825h1004v-115h-1004v-237h1004v-117h-1122v1294z" />
    <glyph glyph-name="U2559" unicode="&#x2559;" 
d="M905 1599v-1001h238v1001h119v-1001h825v-117h-1301v1118h119z" />
    <glyph glyph-name="U255a" unicode="&#x255a;" 
d="M1262 1599v-825h825v-115h-944v940h119zM2087 305h-1301v1294h119v-1177h1182v-117z" />
    <glyph glyph-name="U255b" unicode="&#x255b;" 
d="M-39 422h1004v237h-1004v115h1004v825h118v-1294h-1122v117z" />
    <glyph glyph-name="U255c" unicode="&#x255c;" 
d="M786 598v1001h119v-1001h238v1001h119v-1118h-1301v117h825z" />
    <glyph glyph-name="U255d" unicode="&#x255d;" 
d="M1143 422v1177h119v-1294h-1301v117h1182zM905 659h-944v115h825v825h119v-940z" />
    <glyph glyph-name="U255e" unicode="&#x255e;" 
d="M965 1599h118v-825h1004v-115h-1004v-237h1004v-117h-1004v-829h-118v2123z" />
    <glyph glyph-name="U255f" unicode="&#x255f;" 
d="M1262 1599v-1001h825v-117h-825v-1005h-119v2123h119zM786 -524v2123h119v-2123h-119z" />
    <glyph glyph-name="U2560" unicode="&#x2560;" 
d="M1262 1599v-825h825v-115h-944v940h119zM1143 422h944v-117h-825v-829h-119v946zM786 -524v2123h119v-2123h-119z" />
    <glyph glyph-name="U2561" unicode="&#x2561;" 
d="M965 305h-1004v117h1004v237h-1004v115h1004v825h118v-2123h-118v829z" />
    <glyph glyph-name="U2562" unicode="&#x2562;" 
d="M1262 1599v-2123h-119v2123h119zM786 598v1001h119v-2123h-119v1005h-825v117h825z" />
    <glyph glyph-name="U2563" unicode="&#x2563;" 
d="M905 659h-944v115h825v825h119v-940zM786 -524v829h-825v117h944v-946h-119zM1262 1599v-2123h-119v2123h119z" />
    <glyph glyph-name="U2564" unicode="&#x2564;" 
d="M-39 774h2126v-115h-2126v115zM965 305h-1004v117h2126v-117h-1004v-829h-118v829z" />
    <glyph glyph-name="U2565" unicode="&#x2565;" 
d="M2087 598v-117h-825v-1005h-119v1005h-238v-1005h-119v1005h-825v117h2126z" />
    <glyph glyph-name="U2566" unicode="&#x2566;" 
d="M1143 422h944v-117h-825v-829h-119v946zM786 -524v829h-825v117h944v-946h-119zM2087 659h-2126v115h2126v-115z" />
    <glyph glyph-name="U2567" unicode="&#x2567;" 
d="M-39 774h1004v825h118v-825h1004v-115h-2126v115zM2087 305h-2126v117h2126v-117z" />
    <glyph glyph-name="U2568" unicode="&#x2568;" 
d="M786 598v1001h119v-1001h238v1001h119v-1001h825v-117h-2126v117h825z" />
    <glyph glyph-name="U2569" unicode="&#x2569;" 
d="M1262 1599v-825h825v-115h-944v940h119zM905 659h-944v115h825v825h119v-940zM-39 305v117h2126v-117h-2126z" />
    <glyph glyph-name="U256a" unicode="&#x256a;" 
d="M965 305h-1004v117h1004v237h-1004v115h1004v825h118v-825h1004v-115h-1004v-237h1004v-117h-1004v-829h-118v829z" />
    <glyph glyph-name="U256b" unicode="&#x256b;" 
d="M786 598v1004h119v-1004h238v1004h119v-1004h825v-117h-825v-1005h-119v1005h-238v-1005h-119v1005h-825v117h825z" />
    <glyph glyph-name="U256c" unicode="&#x256c;" 
d="M1143 422h944v-117h-825v-829h-119v946zM1262 1599v-825h825v-115h-944v940h119zM905 659h-944v115h825v825h119v-940zM786 -524v829h-825v117h944v-946h-119z" />
    <glyph glyph-name="upblock" unicode="&#x2580;" 
d="M2087 1599v-1058h-2126v1058h2126z" />
    <glyph glyph-name="dnblock" unicode="&#x2584;" 
d="M2087 541v-1065h-2126v1065h2126z" />
    <glyph glyph-name="block" unicode="&#x2588;" 
d="M2087 -524h-2126v2123h2126v-2123z" />
    <glyph glyph-name="lfblock" unicode="&#x258c;" 
d="M1024 1599v-2123h-1063v2123h1063z" />
    <glyph glyph-name="rtblock" unicode="&#x2590;" 
d="M2087 1599v-2123h-1063v2123h1063z" />
    <glyph glyph-name="ltshade" unicode="&#x2591;" 
d="M0 -143v342h340v-342h-340zM682 -143v342h342v-342h-342zM1366 -143v342h340v-342h-340zM1366 541v340h340v-340h-340zM1366 1223v342h340v-342h-340zM682 541v340h342v-340h-342zM0 541v340h340v-340h-340zM682 1223v342h342v-342h-342zM0 1223v342h340v-342h-340z" />
    <glyph glyph-name="shade" unicode="&#x2592;" 
d="M342 -483v340h340v-340h-340zM1024 -483v340h340v-340h-340zM1706 -483v340h342v-340h-342zM1706 199v342h342v-342h-342zM1706 881v342h342v-342h-342zM1366 -143v342h340v-342h-340zM682 -143v342h342v-342h-342zM0 -143v342h340v-342h-340zM1366 541v340h340v-340
h-340zM682 541v340h342v-340h-342zM0 541v340h340v-340h-340zM1366 1223v342h340v-342h-340zM682 1223v342h342v-342h-342zM0 1223v342h340v-342h-340zM1024 199v342h340v-342h-340zM342 199v342h340v-342h-340zM1024 881v342h340v-342h-340zM342 881v342h340v-342h-340z
" />
    <glyph glyph-name="dkshade" unicode="&#x2593;" 
d="M1024 541v-342h342v342h-342zM1024 1223v-342h342v342h-342zM342 1223v-342h340v342h-340zM342 541v-342h340v342h-340zM1366 -143h-342v-381h-342v381h-340v-381h-342v2089h2087v-342h-381v-342h381v-340h-381v-342h381v-342h-381v-381h-340v381z" />
    <glyph glyph-name="filledbox" unicode="&#x25a0;" horiz-adv-x="1536" 
d="M51 1321h1434v-1432h-1434v1432z" />
    <glyph glyph-name="filledrect" unicode="&#x25ac;" horiz-adv-x="1939" 
d="M358 815h1223v-407h-1223v407z" />
    <glyph glyph-name="triagup" unicode="&#x25b2;" horiz-adv-x="1233" 
d="M168 279l448 854l449 -854h-897z" />
    <glyph glyph-name="triagrt" unicode="&#x25ba;" horiz-adv-x="1233" 
d="M190 1133l852 -449l-852 -448v897z" />
    <glyph glyph-name="triagdn" unicode="&#x25bc;" horiz-adv-x="1233" 
d="M168 1087h897l-449 -851z" />
    <glyph glyph-name="triaglf" unicode="&#x25c4;" horiz-adv-x="1233" 
d="M1042 1133v-897l-852 448z" />
    <glyph glyph-name="circle" unicode="&#x25cb;" horiz-adv-x="1606" 
d="M805 1245q-128 0 -247 -50t-212 -142q-90 -90 -139 -209t-49 -246q0 -268 188 -456.5t457 -188.5q267 0 456 189.5t189 455.5q0 268 -188.5 457.5t-454.5 189.5zM72 602q0 145 55 277t158 235q104 105 239 161t281 56q122 0 242.5 -43t218.5 -123q125 -102 196.5 -253
t71.5 -314q0 -145 -56 -280t-159 -238t-236 -158t-280 -55q-165 0 -312 69t-253 197q-82 98 -124 217.5t-42 251.5z" />
    <glyph glyph-name="invbullet" unicode="&#x25d8;" 
d="M0 -483v2048h2048v-2048h-2048zM1026 1051q-212 0 -362 -151t-150 -361q0 -212 148.5 -360t361.5 -148q211 0 360.5 149t149.5 359q0 211 -149.5 361.5t-358.5 150.5z" />
    <glyph glyph-name="invcircle" unicode="&#x25d9;" 
d="M434 541q0 245 173.5 418.5t418.5 173.5q244 0 417 -174t173 -418q0 -243 -173 -417.5t-419 -174.5t-418 172.5t-172 419.5zM1026 1272q-147 0 -282 -56t-238 -159t-158 -236t-55 -278q0 -132 42 -251.5t124 -217.5q106 -128 253 -197.5t312 -69.5q147 0 280 55t236 158
t159 238.5t56 280.5t-57 282.5t-158 237.5t-236.5 156.5t-277.5 56.5zM0 -483v2048h2048v-2048h-2048z" />
    <glyph glyph-name="invsmileface" unicode="&#x263a;" horiz-adv-x="1796" 
d="M897 322q-114 0 -203 52t-157 158q-35 57 -59 121t-29 64q-12 0 -32 -31t-36 -31q-11 0 -17 7t-6 20q0 34 63 111t95 77q12 0 17.5 -3.5t5.5 -10.5q0 -9 -6.5 -35t-6.5 -43q0 -42 20.5 -97.5t55.5 -107.5q58 -84 129.5 -123.5t165.5 -39.5q89 0 156 33t123 104
q42 54 68 119.5t26 111.5q0 17 -7.5 43t-7.5 35q1 7 7 10.5t18 3.5q33 0 95.5 -77.5t62.5 -108.5q0 -15 -5.5 -22t-17.5 -7q-16 0 -36 31t-31 31q-6 0 -30 -64t-61 -121q-68 -106 -157 -158t-203 -52zM981 1022q0 35 12 51.5t37 16.5t36 -16t11 -52q0 -37 -11 -52.5
t-36 -15.5t-37 16.5t-12 51.5zM717 1022q0 35 12 51.5t37 16.5t37 -16.5t12 -51.5q0 -36 -11.5 -52t-37.5 -16q-25 0 -37 16.5t-12 51.5zM899 1343q-130 0 -251 -50.5t-216 -145.5q-93 -93 -142.5 -213.5t-49.5 -251.5q0 -274 191 -465.5t466 -191.5q274 0 466.5 192.5
t192.5 464.5q0 274 -192.5 467.5t-464.5 193.5zM166 686q0 144 56 277.5t159 236.5q104 104 238.5 159.5t281.5 55.5q124 0 244 -42.5t217 -121.5q125 -102 196.5 -253.5t71.5 -315.5q0 -144 -56.5 -279t-160.5 -239t-236 -158.5t-278 -54.5q-165 0 -312 69t-253 197
q-83 100 -125.5 219.5t-42.5 249.5z" />
    <glyph glyph-name="smileface" unicode="&#x263b;" horiz-adv-x="1796" 
d="M436 688q8 0 27 -52.5t43 -94.5q69 -124 166 -185t225 -61q118 0 211 52.5t162 158.5q36 55 59.5 118.5t30.5 63.5q11 0 31.5 -30.5t38.5 -30.5q12 0 22 9.5t10 20.5q0 36 -73 124.5t-111 88.5q-13 0 -17.5 -5t-5.5 -19q0 -12 7.5 -36t7.5 -36q0 -32 -21.5 -85.5
t-58.5 -108.5q-56 -82 -127 -121t-166 -39t-166 39t-127 121q-36 52 -57 106t-21 88q0 12 6.5 36t6.5 36q0 14 -4.5 19t-16.5 5q-38 0 -111 -88.5t-73 -124.5q0 -11 10 -20.5t23 -9.5q17 0 37.5 30.5t31.5 30.5zM1044 1110q-33 0 -48 -20.5t-15 -67.5q0 -46 15.5 -67
t47.5 -21q33 0 48.5 21t15.5 67q0 47 -15 67.5t-49 20.5zM752 1110q-35 0 -49.5 -20t-14.5 -68q0 -46 15.5 -67t48.5 -21q32 0 47.5 21.5t15.5 66.5q0 46 -15 67t-48 21zM166 686q0 144 56 277.5t159 236.5q104 104 238.5 159.5t281.5 55.5q124 0 244 -42.5t217 -121.5
q126 -101 195 -249t69 -316q0 -170 -67.5 -316t-196.5 -253q-98 -82 -216 -124t-247 -42q-306 0 -519.5 214t-213.5 521z" />
    <glyph glyph-name="sun" unicode="&#x263c;" horiz-adv-x="1796" 
d="M934 1421v-239q80 -8 149.5 -38t137.5 -87l170 170l51 -51l-170 -170q54 -72 82.5 -142.5t32.5 -140.5h239v-74h-239q-4 -71 -32.5 -142.5t-82.5 -141.5l170 -170l-51 -52l-170 170q-65 -56 -133.5 -85.5t-153.5 -37.5v-241h-74v241q-84 8 -151.5 37.5t-133.5 85.5
l-169 -170l-52 52l170 170q-53 68 -82 140t-33 144h-239v74h239q4 70 32.5 140.5t82.5 142.5l-170 170l52 51l169 -170q67 57 135.5 87t149.5 38v239h74zM901 1114q-177 0 -301.5 -123.5t-124.5 -300.5t124.5 -301.5t301.5 -124.5q176 0 300 125.5t124 300.5t-124.5 299.5
t-299.5 124.5z" />
    <glyph glyph-name="female" unicode="&#x2640;" horiz-adv-x="1683" 
d="M799 -72v256h-297v90h297v332q-179 18 -292.5 143t-113.5 302q0 187 131.5 318.5t317.5 131.5q183 0 315.5 -132t132.5 -318q0 -171 -117.5 -302.5t-283.5 -142.5v-332h297v-90h-297v-256h-90zM842 1417q-152 0 -259.5 -107t-107.5 -259t107 -258.5t260 -106.5
q152 0 259 107t107 258q0 150 -108 258t-258 108z" />
    <glyph glyph-name="male" unicode="&#x2642;" horiz-adv-x="1683" 
d="M373 365q0 -152 106.5 -257.5t257.5 -105.5q155 0 262 107.5t107 263.5q0 147 -109 253.5t-264 106.5q-146 0 -253 -108.5t-107 -259.5zM862 797l207 522q-76 -29 -164.5 -46t-187.5 -22l-10 43q104 20 219 66.5t235 118.5l29 -9q22 -112 75 -228.5t134 -227.5l-37 -25
q-78 75 -131.5 150t-81.5 147l-203 -522q114 -61 178 -164t64 -225q0 -191 -130 -324t-313 -133q-190 0 -322 130t-132 312q0 191 131.5 324t308.5 133q27 0 58.5 -5t72.5 -15z" />
    <glyph glyph-name="spade" unicode="&#x2660;" horiz-adv-x="2019" 
d="M864 -96q54 59 79.5 143.5t25.5 202.5q0 70 -12.5 99.5t-41.5 29.5q-42 0 -71 -85q-15 -46 -27 -71q-36 -78 -100.5 -121t-145.5 -43q-115 0 -195.5 85.5t-80.5 211.5q0 96 46 196.5t171 260.5l102 126q260 319 396 538q137 -220 389 -529q76 -93 108 -135
q125 -160 171 -260.5t46 -196.5q0 -126 -80 -211.5t-196 -85.5q-79 0 -144 43.5t-102 120.5q-12 25 -27 71q-28 85 -71 85q-29 0 -41 -29.5t-12 -99.5q0 -116 26 -201t80 -145h-293z" />
    <glyph glyph-name="club" unicode="&#x2663;" horiz-adv-x="2019" 
d="M840 -66q55 65 80.5 145t25.5 191q0 65 -15 103.5t-40 38.5q-29 0 -80 -68l-35 -45q-71 -85 -135.5 -120.5t-144.5 -35.5q-133 0 -215 100.5t-82 262.5q0 151 85.5 248.5t213.5 97.5q95 0 203 -67.5t128 -67.5q19 0 31 10t12 27q0 28 -93 108l-34 29q-48 42 -75 103
t-27 128q0 144 98 227t269 83q172 0 269 -85t97 -235q0 -60 -27.5 -120t-74.5 -101q-12 -10 -33 -29q-94 -80 -94 -108q0 -17 12 -27t31 -10q20 0 128 67.5t204 67.5q129 0 214 -99t85 -255q0 -157 -82.5 -256t-214.5 -99q-80 0 -145 35.5t-136 120.5q-15 18 -39 50
q-48 63 -76 63q-23 0 -39 -36.5t-16 -92.5q0 -125 24.5 -204t82.5 -145h-340z" />
    <glyph glyph-name="heart" unicode="&#x2665;" horiz-adv-x="2019" 
d="M1010 -78q-164 258 -407 548l-50 60q-150 186 -204 304t-54 237q0 165 94 269t238 104q103 0 182.5 -58.5t124.5 -168.5q6 -15 16 -43q26 -76 60 -76q35 0 60 76q9 27 15 43q46 109 125.5 168t182.5 59q144 0 237.5 -104t93.5 -269q0 -119 -54 -237t-204 -304l-48 -58
q-235 -281 -408 -550z" />
    <glyph glyph-name="diamond" unicode="&#x2666;" horiz-adv-x="2019" 
d="M1001 -92l-614 782l614 783l631 -783z" />
    <glyph glyph-name="musicalnote" unicode="&#x266a;" horiz-adv-x="1090" 
d="M553 1032v-686q0 -108 -13.5 -162.5t-43.5 -95.5q-46 -58 -124 -95.5t-155 -37.5q-81 0 -130.5 44t-49.5 116q0 103 111 195.5t229 92.5q36 0 58 -5t42 -17v1083h76v-123q0 -113 132 -258q7 -7 11 -12q138 -152 187 -260t49 -238q0 -49 -9.5 -114t-31.5 -170l-72 18
q17 72 25 131.5t8 112.5q0 163 -60 264.5t-239 216.5z" />
    <glyph glyph-name="musicalnotedbl" unicode="&#x266b;" horiz-adv-x="1470" 
d="M975 754q0 86 -67 168t-236 200v-112q0 -92 121.5 -196t181.5 -179v119zM672 1464v-69q0 -132 179 -307q33 -32 50 -50q101 -100 125.5 -157t24.5 -146v-774q0 -147 -14.5 -207.5t-49.5 -101.5q-45 -54 -122 -89.5t-150 -35.5q-81 0 -130.5 44.5t-49.5 117.5
q0 106 111.5 196t248.5 90q23 0 42 -5.5t38 -18.5v495q0 80 -66 157t-237 194v-435q0 -123 -13 -177.5t-45 -96.5q-43 -58 -122 -95.5t-156 -37.5q-81 0 -129.5 43.5t-48.5 116.5q0 104 111 196t237 92q27 0 47.5 -5.5t42.5 -18.5v1085h76z" />
    <glyph glyph-name="IJ" unicode="&#x132;" horiz-adv-x="1628" 
d="M1231 1133q15 53 19.5 77.5t4.5 42.5q0 33 -19.5 52t-57.5 24q-13 2 -33 3q-53 4 -53 22q0 8 12.5 14t32.5 6q3 0 18 -1q103 -7 213 -7q109 0 220 9q19 1 24 1q16 0 27.5 -6.5t11.5 -13.5q0 -20 -49 -24t-74 -13q-31 -12 -50 -35.5t-34 -81.5l-359 -1290
q-72 -260 -185 -375t-292 -115q-107 0 -174 41t-67 105q0 39 23.5 63.5t58.5 24.5q44 0 67 -24t23 -70q0 -6 -1 -20.5t-1 -22.5q0 -25 22.5 -40.5t58.5 -15.5q82 0 140.5 85t113.5 286zM373 219q-8 -28 -12.5 -54t-4.5 -44q0 -32 14.5 -50t45.5 -26q21 -5 53 -8
q45 -5 45 -25q0 -6 -8 -13t-17 -7q-3 0 -22 2q-122 12 -254 12q-90 0 -185 -11q-22 -3 -28 -3q-19 0 -30 6t-11 16q0 20 47 27h2q18 2 35.5 5.5t33.5 8.5q36 12 57 42t44 114l254 922q14 49 19.5 75t5.5 45q0 33 -19.5 52.5t-56.5 23.5q-13 2 -33 3q-55 4 -55 22
q0 8 12.5 14t32.5 6q3 0 19 -1q102 -7 212 -7q109 0 220 9q19 1 24 1q16 0 27.5 -6.5t11.5 -13.5q0 -20 -48 -24t-73 -13q-31 -12 -49.5 -35.5t-34.5 -81.5z" />
    <glyph glyph-name="ij" unicode="&#x133;" horiz-adv-x="1096" 
d="M307 1335q0 35 26.5 60.5t61.5 25.5q36 0 61 -24.5t25 -61.5q0 -35 -26 -60.5t-62 -25.5q-37 0 -61.5 24.5t-24.5 61.5zM125 399l76 197q34 85 49.5 138t15.5 83q0 22 -10 35.5t-27 13.5q-39 0 -94 -68t-108 -186l-35 15q64 149 131.5 224t136.5 75q57 0 92 -41.5
t35 -108.5q0 -49 -18.5 -120t-61.5 -183l-59 -158q-40 -106 -57 -161t-17 -78q0 -21 10.5 -33t28.5 -12q45 0 93.5 56.5t131.5 213.5l29 -18q-70 -159 -140.5 -233.5t-150.5 -74.5q-58 0 -91.5 37.5t-33.5 102.5q0 51 16.5 116t57.5 168zM825 729q6 26 9.5 47t3.5 37
t-5.5 26t-15.5 11q-39 0 -103.5 -71t-125.5 -187l-35 16q66 140 158.5 229t165.5 89q43 0 67.5 -29t24.5 -82q0 -40 -11.5 -104.5t-42.5 -192.5l-94 -395q-89 -376 -198 -532t-277 -156q-79 0 -124.5 29t-45.5 77q0 30 15 48t40 18q43 0 62 -64.5t76 -64.5q77 0 129.5 97.5
t152.5 481.5zM889 1335q0 36 25.5 61t60.5 25q36 0 62 -25.5t26 -60.5t-26 -60.5t-62 -25.5t-61 25t-25 61z" />
    <glyph glyph-name="quoten" unicode="&#x149;" horiz-adv-x="1399" 
d="M301 1264q-6 -2 -12 -3t-15 -1q-47 0 -72.5 22t-25.5 64q0 39 27 66.5t67 27.5q57 0 89 -37.5t32 -104.5q0 -95 -75 -185.5t-183 -121.5l-18 31q92 53 142 108t50 103q0 6 -2.5 17t-3.5 14zM489 0h-145l110 367q39 131 61.5 250.5t22.5 183.5q0 31 -9.5 45t-31.5 14
q-47 0 -97 -68t-116 -225l-37 13q65 179 137.5 262.5t161.5 83.5q56 0 85.5 -41.5t29.5 -120.5q0 -43 -9 -103t-28 -137q94 194 195 298t196 104q75 0 118.5 -52t43.5 -141q0 -34 -6.5 -72t-19.5 -79l-136 -420q-8 -26 -13 -49.5t-5 -36.5q0 -24 11.5 -37.5t31.5 -13.5
q48 0 102.5 68t122.5 212l33 -18l-39 -88q-52 -114 -117.5 -171t-144.5 -57q-62 0 -95.5 38t-33.5 108q0 31 7.5 67.5t33.5 116.5l110 326q18 48 26.5 88.5t8.5 70.5q0 40 -17.5 61t-49.5 21q-41 0 -87.5 -33t-97.5 -100q-141 -183 -244 -516q-9 -30 -14 -45z" />
    <glyph glyph-name="minute" unicode="&#x2032;" horiz-adv-x="674" 
d="M250 889h-31l84 457q10 56 31.5 82t56.5 26q26 0 44 -17t18 -42q0 -17 -5 -37t-14 -41z" />
    <glyph glyph-name="second" unicode="&#x2033;" horiz-adv-x="674" 
d="M406 889h-31l84 457q10 56 30.5 82t55.5 26q28 0 46.5 -17t18.5 -42q0 -17 -4.5 -37.5t-13.5 -40.5zM102 889h-30l84 457q10 57 30.5 82.5t55.5 25.5q28 0 46.5 -17t18.5 -42q0 -17 -4.5 -37t-13.5 -41z" />
    <glyph glyph-name="cslasho" unicode="&#x2105;" horiz-adv-x="1401" 
d="M1024 -16q-81 0 -126.5 44.5t-45.5 125.5q0 65 24 128.5t70 120.5q45 56 99.5 85.5t111.5 29.5q73 0 118.5 -51.5t45.5 -134.5q0 -67 -25.5 -131t-74.5 -123q-39 -45 -90.5 -69.5t-106.5 -24.5zM938 106q0 -46 24 -73t66 -27q39 0 72.5 24.5t56.5 69.5q35 68 56.5 146
t21.5 135q0 56 -20.5 84.5t-61.5 28.5q-39 0 -75 -31.5t-68 -91.5q-33 -64 -52.5 -138t-19.5 -127zM154 -33l940 1436h84l-938 -1436h-86zM383 752q-40 -81 -97 -122.5t-128 -41.5q-78 0 -118 39t-40 116q0 57 22 114.5t64 113.5q55 71 118.5 111t121.5 40q46 0 75 -20
t29 -51q0 -18 -12.5 -31.5t-28.5 -13.5q-21 0 -33 8.5t-12 23.5q0 16 8 30t8 15q0 6 -11 10.5t-25 4.5q-32 0 -59 -18.5t-54 -57.5q-53 -81 -85 -169t-32 -151q0 -42 20.5 -65t57.5 -23q53 0 100 36.5t90 111.5z" />
    <glyph glyph-name="litre" unicode="&#x2113;" horiz-adv-x="934" 
d="M397 711q175 124 285.5 276.5t110.5 251.5q0 57 -26 90t-71 33q-92 0 -173 -175t-126 -476zM217 530q-39 -26 -71 -50.5t-60 -49.5l-37 45q28 28 71 63t105 80q59 360 189.5 581.5t275.5 221.5q72 0 119 -49t47 -125q0 -131 -128.5 -304.5t-340.5 -315.5l-20 -192
q-6 -47 -8.5 -84t-2.5 -68q0 -125 27 -180.5t86 -55.5q56 0 100.5 54.5t77.5 164.5l55 -18q-37 -140 -96 -206.5t-145 -66.5q-121 0 -186.5 109.5t-65.5 312.5q0 26 2 59.5t6 73.5z" />
    <glyph glyph-name="U25a1" unicode="&#x25a1;" horiz-adv-x="1933" 
d="M51 -393v1831h1831v-1831h-1831zM162 -291h1610v1626h-1610v-1626z" />
    <glyph glyph-name="U25aa" unicode="&#x25aa;" horiz-adv-x="1380" 
d="M170 164v1038h1040v-1038h-1040z" />
    <glyph glyph-name="U25ab" unicode="&#x25ab;" horiz-adv-x="1380" 
d="M262 252h856v864h-856v-864zM170 164v1040h1040v-1040h-1040z" />
    <glyph glyph-name="U25cf" unicode="&#x25cf;" horiz-adv-x="1606" 
d="M72 602q0 145 55 277t158 235q104 105 239 161t281 56q122 0 242.5 -43t218.5 -123q125 -102 196.5 -253t71.5 -314q0 -145 -56 -280t-159 -238t-236 -158t-280 -55q-165 0 -312 69t-253 197q-82 98 -124 217.5t-42 251.5z" />
    <glyph glyph-name="U25e6" unicode="&#x25e6;" horiz-adv-x="1706" 
d="M1053 610q0 82 -59 140.5t-140 58.5q-82 0 -140.5 -58t-58.5 -141t58 -140.5t141 -57.5t141 58.5t58 139.5zM854 897q119 0 203 -83.5t84 -203.5q0 -118 -84.5 -203t-204.5 -85t-203.5 84t-83.5 204t84.5 203.5t204.5 83.5z" />
    <glyph glyph-name="Amacron" unicode="&#x100;" horiz-adv-x="1341" 
d="M827 563h-413q-184 -266 -232.5 -349.5t-48.5 -117.5q0 -29 36 -46t99 -17q9 0 16 -6t7 -13q0 -10 -7.5 -15t-21.5 -5q-6 0 -74 6t-129 6q-52 0 -111.5 -7t-66.5 -7q-10 0 -18 6t-8 14q0 12 33 23h1q58 14 99 44t75 79l789 1114l25 37q66 98 145 98q6 0 11 -10t5 -27v-10
l-49 -1172v-24q0 -55 16.5 -80t59.5 -37q17 -5 48 -9q44 -6 44 -22q0 -11 -8 -15.5t-29 -4.5q-4 0 -21 1q-102 9 -204 9q-72 0 -150.5 -6t-85.5 -6q-18 0 -26 4t-8 14q0 11 8 15.5t39 7.5l18 3q39 6 61 13q56 18 62 135v9zM457 627h372l25 553zM739 1612l23 106h512
l-23 -106h-512z" />
    <glyph glyph-name="amacron" unicode="&#x101;" horiz-adv-x="1010" 
d="M115 160q0 -65 33 -105.5t85 -40.5q64 0 121 51.5t121 167.5q82 148 130 293.5t48 235.5q0 55 -29 88t-77 33q-68 0 -136.5 -64.5t-138.5 -191.5q-77 -141 -117 -261t-40 -206zM530 256q-60 -145 -142 -215t-189 -70q-103 0 -162.5 70.5t-59.5 191.5q0 96 45 211.5
t125 225.5q87 117 192 185.5t193 68.5q61 0 103 -36t57 -100l31 109q3 9 9 12.5t18 3.5q39 0 60 -8.5t21 -25.5q0 -9 -1.5 -20.5t-4.5 -21.5l-172 -595q-12 -45 -19 -88t-7 -74q0 -23 13 -37t34 -14q42 0 93 78t105 227l33 -12q-47 -171 -118 -261t-160 -90q-61 0 -93 31.5
t-32 91.5q0 26 7 67.5t21 94.5zM371 1133l23 106h512l-23 -106h-512z" />
    <glyph glyph-name="Ccircumflex" unicode="&#x108;" horiz-adv-x="1341" 
d="M1077 36q-4 -16 -14 -27t-21 -11q-13 0 -22.5 32.5t-32.5 32.5l-123 -49t-256 -49q-245 0 -382.5 142.5t-137.5 396.5q0 172 72.5 345t206.5 322q98 110 234.5 171t281.5 61q134 0 272 -75q34 -19 43 -19q11 0 30 23.5t32 23.5q10 0 16 -7t6 -20q0 -2 -1 -6t-1 -6
l-57 -297q-1 -3 -3 -11q-7 -32 -24 -32q-11 0 -16.5 9t-5.5 26q0 5 1 13.5t1 12.5q0 157 -73 242.5t-208 85.5q-105 0 -202 -64t-187 -192q-98 -140 -154.5 -323t-56.5 -355q0 -212 84 -317t254 -105q141 0 249 74t187 223q11 22 27 58q28 65 51 65q9 0 15.5 -6.5t6.5 -15.5
t-3 -23t-13 -51zM1182 1515h-45l-174 244l-270 -244h-54l283 348h104z" />
    <glyph glyph-name="ccircumflex" unicode="&#x109;" horiz-adv-x="786" 
d="M608 268q-64 -147 -154 -221t-204 -74q-124 0 -187 71t-63 210q0 99 34.5 202.5t100.5 200.5q86 127 188 199t193 72q74 0 121 -36t47 -91q0 -32 -20.5 -56t-47.5 -24q-33 0 -52 16t-19 43q0 28 14 51.5t14 26.5q0 11 -17 19t-42 8q-50 0 -94 -33.5t-84 -101.5
q-85 -144 -135.5 -301.5t-50.5 -268.5q0 -76 32.5 -118t91.5 -42q84 0 158.5 66t142.5 201zM778 1036h-45l-174 244l-270 -244h-54l283 348h104z" />
    </font>
</defs>
</svg>
